<?xml version="1.0" encoding="UTF-8" standalone="no"?>
<svg width="151px" height="142px" viewBox="0 0 151 142" version="1.1" xmlns="http://www.w3.org/2000/svg" xmlns:xlink="http://www.w3.org/1999/xlink" xmlns:sketch="http://www.bohemiancoding.com/sketch/ns">
    <!-- Generator: Sketch 3.3.3 (12081) - http://www.bohemiancoding.com/sketch -->
    <title>Group + berlin.freifunk.net</title>
    <desc>Created with Sketch.</desc>
    <defs></defs>
    <g id="Page-1" stroke="none" stroke-width="1" fill="none" fill-rule="evenodd" sketch:type="MSPage">
        <g id="Freifunk-logo" sketch:type="MSLayerGroup" transform="translate(-12.000000, -9.000000)">
            <g id="Group-+-berlin.freifunk.net" transform="translate(17.000000, 15.000000)" sketch:type="MSShapeGroup">
                <g id="Group">
                    <ellipse id="Oval" stroke="#DE2C68" stroke-width="1.7091601" cx="33.072052" cy="63.9163548" rx="32.507552" ry="33.1431452"></ellipse>
                    <ellipse id="Oval" stroke="#DE2C68" stroke-width="1.70912283" cx="90.9613864" cy="47.2044994" rx="35.0910472" ry="35.6911588"></ellipse>
                    <ellipse id="Oval" stroke="#DE2C68" stroke-width="9.24622009" cx="90.8116802" cy="47.204321" rx="45.9106801" ry="46.3606789"></ellipse>
                    <path d="M25.2302294,47.9514144 L17.9833924,47.9514144 L23.780862,53.4466096 L12.1859228,53.4466096 L12.1859228,58.9418048 L23.780862,58.9418048 L17.9833924,64.437 L25.2302294,64.437 L33.9264338,56.1942072 L25.2302294,47.9514144 Z" id="Shape" fill="#FFCC33"></path>
                    <path d="M100.514312,70.333 L91.4185536,60.919444 L111.126031,60.919444 L111.126031,51.505888 L91.4185536,51.505888 L100.514312,42.092332 L88.386634,42.092332 L74.7429958,56.212666 L88.386634,70.333 L100.514312,70.333 Z" id="Shape" fill="#FFCC33"></path>
                </g>
                <path d="M5.23388672,125.598633 L5.23388672,116.937012 C5.23388672,116.576658 5.1877446,116.332764 5.09545898,116.205322 C5.00317337,116.07788 4.84277458,116.01416 4.61425781,116.01416 C4.40331926,116.01416 4.24731496,116.088866 4.14624023,116.238281 C4.04516551,116.387696 3.99462891,116.620604 3.99462891,116.937012 L3.99462891,125.598633 C3.99462891,125.915041 4.04516551,126.152343 4.14624023,126.310547 C4.24731496,126.468751 4.40331926,126.547852 4.61425781,126.547852 C4.84277458,126.547852 5.00317337,126.479737 5.09545898,126.343506 C5.1877446,126.207275 5.23388672,125.958986 5.23388672,125.598633 L5.23388672,125.598633 Z M0.566894531,129 L0.566894531,109.554199 L3.99462891,109.554199 L3.99462891,114.748535 L4.04736328,114.748535 C4.31103647,114.2124 4.64062302,113.812501 5.03613281,113.548828 C5.4316426,113.285155 5.90185274,113.15332 6.44677734,113.15332 C7.19385139,113.15332 7.75414852,113.375242 8.12768555,113.819092 C8.50122257,114.262942 8.68798828,114.924312 8.68798828,115.803223 L8.68798828,126.758789 C8.68798828,127.628911 8.50341981,128.283689 8.13427734,128.723145 C7.76513487,129.1626 7.2026405,129.382324 6.44677734,129.382324 C5.86669632,129.382324 5.37011925,129.237306 4.95703125,128.947266 C4.54394325,128.657225 4.22314567,128.226565 3.99462891,127.655273 L3.94189453,127.655273 L3.94189453,129 L0.566894531,129 Z M13.1176758,116.449219 L13.1176758,119.38916 L14.3569336,119.38916 L14.3569336,116.449219 C14.3569336,116.106444 14.3085942,115.86255 14.2119141,115.717529 C14.1152339,115.572509 13.9570323,115.5 13.7373047,115.5 C13.517577,115.5 13.3593755,115.572509 13.2626953,115.717529 C13.1660151,115.86255 13.1176758,116.106444 13.1176758,116.449219 L13.1176758,116.449219 Z M13.1176758,125.862305 C13.1176758,126.20508 13.1660151,126.448974 13.2626953,126.593994 C13.3593755,126.739014 13.517577,126.811523 13.7373047,126.811523 C13.9570323,126.811523 14.1152339,126.739014 14.2119141,126.593994 C14.3085942,126.448974 14.3569336,126.20508 14.3569336,125.862305 L14.3569336,122.94873 L17.784668,122.94873 L17.784668,125.835938 C17.784668,126.960943 17.4309117,127.833249 16.7233887,128.452881 C16.0158656,129.072513 15.0205142,129.382324 13.7373047,129.382324 C12.2871021,129.382324 11.2500031,129.048343 10.6259766,128.380371 C10.00195,127.712399 9.68994141,126.569832 9.68994141,124.952637 L9.68994141,117.503906 C9.68994141,115.869132 9.99755552,114.722171 10.612793,114.062988 C11.2280304,113.403805 12.2607349,113.074219 13.7109375,113.074219 C14.9853579,113.074219 15.9829066,113.370847 16.7036133,113.964111 C17.42432,114.557376 17.784668,115.376948 17.784668,116.422852 L17.784668,121.709473 L13.1176758,121.709473 L13.1176758,125.862305 Z M18.8657227,129 L18.8657227,113.443359 L22.2407227,113.443359 L22.2407227,114.748535 L22.293457,114.748535 C22.5834975,114.203611 22.930662,113.801515 23.3349609,113.542236 C23.7392598,113.282958 24.20947,113.15332 24.7456055,113.15332 C25.4926795,113.15332 26.0529766,113.375242 26.4265137,113.819092 C26.8000507,114.262942 26.9868164,114.924312 26.9868164,115.803223 L26.9868164,121.814941 L23.5327148,121.814941 L23.5327148,116.937012 C23.5327148,116.576658 23.4865727,116.332764 23.3942871,116.205322 C23.3020015,116.07788 23.1416027,116.01416 22.9130859,116.01416 C22.7021474,116.01416 22.5461431,116.088866 22.4450684,116.238281 C22.3439936,116.387696 22.293457,116.620604 22.293457,116.937012 L22.293457,129 L18.8657227,129 Z M27.8041992,129 L27.8041992,109.554199 L31.2319336,109.554199 L31.2319336,129 L27.8041992,129 Z M32.3657227,129 L32.3657227,113.443359 L35.793457,113.443359 L35.793457,129 L32.3657227,129 Z M32.3657227,112.507324 L32.3657227,109.554199 L35.793457,109.554199 L35.793457,112.507324 L32.3657227,112.507324 Z M36.9272461,129 L36.9272461,113.443359 L40.3022461,113.443359 L40.3022461,114.748535 L40.3549805,114.748535 C40.645021,114.203611 40.9921855,113.801515 41.3964844,113.542236 C41.8007833,113.282958 42.2709934,113.15332 42.8071289,113.15332 C43.554203,113.15332 44.1145001,113.375242 44.4880371,113.819092 C44.8615741,114.262942 45.0483398,114.924312 45.0483398,115.803223 L45.0483398,129 L41.5942383,129 L41.5942383,116.937012 C41.5942383,116.576658 41.5480962,116.332764 41.4558105,116.205322 C41.3635249,116.07788 41.2031261,116.01416 40.9746094,116.01416 C40.7636708,116.01416 40.6076665,116.088866 40.5065918,116.238281 C40.4055171,116.387696 40.3549805,116.620604 40.3549805,116.937012 L40.3549805,129 L36.9272461,129 Z M46.340332,129 L46.340332,125.031738 L49.9130859,125.031738 L49.9130859,129 L46.340332,129 Z M51.7983398,129 L51.7983398,115.908691 L50.9545898,115.908691 L50.9545898,113.443359 L51.7983398,113.443359 L51.7983398,111.966797 C51.7983398,111.210934 52.0268532,110.619875 52.4838867,110.193604 C52.9409203,109.767332 53.5781209,109.554199 54.3955078,109.554199 L56.3334961,109.554199 L56.3334961,111.993164 C55.9291972,111.993164 55.6435555,112.039306 55.4765625,112.131592 C55.3095695,112.223877 55.2260742,112.384276 55.2260742,112.612793 L55.2260742,113.443359 L56.3334961,113.443359 L56.3334961,115.908691 L55.2260742,115.908691 L55.2260742,129 L51.7983398,129 Z M56.953125,129 L56.953125,113.443359 L60.328125,113.443359 L60.328125,114.748535 L60.3808594,114.748535 C60.6708999,114.203611 61.0180644,113.801515 61.4223633,113.542236 C61.8266622,113.282958 62.2968723,113.15332 62.8330078,113.15332 C63.5800819,113.15332 64.140379,113.375242 64.513916,113.819092 C64.887453,114.262942 65.0742188,114.924312 65.0742188,115.803223 L65.0742188,121.814941 L61.6201172,121.814941 L61.6201172,116.937012 C61.6201172,116.576658 61.5739751,116.332764 61.4816895,116.205322 C61.3894038,116.07788 61.229005,116.01416 61.0004883,116.01416 C60.7895497,116.01416 60.6335454,116.088866 60.5324707,116.238281 C60.431396,116.387696 60.3808594,116.620604 60.3808594,116.937012 L60.3808594,129 L56.953125,129 Z M69.7675781,116.449219 L69.7675781,119.38916 L71.0068359,119.38916 L71.0068359,116.449219 C71.0068359,116.106444 70.9584966,115.86255 70.8618164,115.717529 C70.7651362,115.572509 70.6069347,115.5 70.387207,115.5 C70.1674794,115.5 70.0092778,115.572509 69.9125977,115.717529 C69.8159175,115.86255 69.7675781,116.106444 69.7675781,116.449219 L69.7675781,116.449219 Z M69.7675781,125.862305 C69.7675781,126.20508 69.8159175,126.448974 69.9125977,126.593994 C70.0092778,126.739014 70.1674794,126.811523 70.387207,126.811523 C70.6069347,126.811523 70.7651362,126.739014 70.8618164,126.593994 C70.9584966,126.448974 71.0068359,126.20508 71.0068359,125.862305 L71.0068359,122.94873 L74.4345703,122.94873 L74.4345703,125.835938 C74.4345703,126.960943 74.0808141,127.833249 73.373291,128.452881 C72.6657679,129.072513 71.6704166,129.382324 70.387207,129.382324 C68.9370045,129.382324 67.8999055,129.048343 67.2758789,128.380371 C66.6518523,127.712399 66.3398438,126.569832 66.3398438,124.952637 L66.3398438,117.503906 C66.3398438,115.869132 66.6474579,114.722171 67.2626953,114.062988 C67.8779328,113.403805 68.9106373,113.074219 70.3608398,113.074219 C71.6352603,113.074219 72.6328089,113.370847 73.3535156,113.964111 C74.0742224,114.557376 74.4345703,115.376948 74.4345703,116.422852 L74.4345703,121.709473 L69.7675781,121.709473 L69.7675781,125.862305 Z M75.515625,129 L75.515625,113.443359 L78.9433594,113.443359 L78.9433594,129 L75.515625,129 Z M75.515625,112.507324 L75.515625,109.554199 L78.9433594,109.554199 L78.9433594,112.507324 L75.515625,112.507324 Z M80.6176758,129 L80.6176758,115.908691 L79.7739258,115.908691 L79.7739258,113.443359 L80.6176758,113.443359 L80.6176758,111.966797 C80.6176758,111.210934 80.8461891,110.619875 81.3032227,110.193604 C81.7602562,109.767332 82.3974569,109.554199 83.2148438,109.554199 L85.152832,109.554199 L85.152832,111.993164 C84.7485331,111.993164 84.4628915,112.039306 84.2958984,112.131592 C84.1289054,112.223877 84.0454102,112.384276 84.0454102,112.612793 L84.0454102,113.443359 L85.152832,113.443359 L85.152832,115.908691 L84.0454102,115.908691 L84.0454102,129 L80.6176758,129 Z M93.8935547,113.443359 L93.8935547,129 L90.5185547,129 L90.5185547,127.708008 L90.4394531,127.708008 C90.1494126,128.244143 89.8088398,128.63745 89.4177246,128.887939 C89.0266094,129.138429 88.5585965,129.263672 88.0136719,129.263672 C87.2665978,129.263672 86.7063007,129.046145 86.3327637,128.611084 C85.9592266,128.176023 85.7724609,127.523442 85.7724609,126.65332 L85.7724609,113.443359 L89.2001953,113.443359 L89.2001953,125.519531 C89.2001953,125.862306 89.2507319,126.099609 89.3518066,126.231445 C89.4528814,126.363282 89.6176746,126.429199 89.8461914,126.429199 C90.05713,126.429199 90.2087398,126.358887 90.3010254,126.218262 C90.393311,126.077636 90.4394531,125.844728 90.4394531,125.519531 L90.4394531,113.443359 L93.8935547,113.443359 Z M94.9746094,129 L94.9746094,113.443359 L98.3496094,113.443359 L98.3496094,114.748535 L98.4023438,114.748535 C98.6923843,114.203611 99.0395488,113.801515 99.4438477,113.542236 C99.8481466,113.282958 100.318357,113.15332 100.854492,113.15332 C101.601566,113.15332 102.161863,113.375242 102.5354,113.819092 C102.908937,114.262942 103.095703,114.924312 103.095703,115.803223 L103.095703,129 L99.6416016,129 L99.6416016,116.937012 C99.6416016,116.576658 99.5954594,116.332764 99.5031738,116.205322 C99.4108882,116.07788 99.2504894,116.01416 99.0219727,116.01416 C98.8110341,116.01416 98.6550298,116.088866 98.5539551,116.238281 C98.4528804,116.387696 98.4023438,116.620604 98.4023438,116.937012 L98.4023438,129 L94.9746094,129 Z M104.176758,129 L104.176758,109.554199 L107.604492,109.554199 L107.604492,120.219727 L107.657227,120.219727 L109.120605,113.443359 L112.627441,113.443359 L110.926758,120.166992 L112.627441,129 L109.015137,129 L107.657227,120.852539 L107.604492,120.852539 L107.604492,129 L104.176758,129 Z M113.299805,129 L113.299805,125.031738 L116.872559,125.031738 L116.872559,129 L113.299805,129 Z M118.217285,129 L118.217285,113.443359 L121.592285,113.443359 L121.592285,114.748535 L121.64502,114.748535 C121.93506,114.203611 122.282225,113.801515 122.686523,113.542236 C123.090822,113.282958 123.561032,113.15332 124.097168,113.15332 C124.844242,113.15332 125.404539,113.375242 125.778076,113.819092 C126.151613,114.262942 126.338379,114.924312 126.338379,115.803223 L126.338379,129 L122.884277,129 L122.884277,116.937012 C122.884277,116.576658 122.838135,116.332764 122.74585,116.205322 C122.653564,116.07788 122.493165,116.01416 122.264648,116.01416 C122.05371,116.01416 121.897706,116.088866 121.796631,116.238281 C121.695556,116.387696 121.64502,116.620604 121.64502,116.937012 L121.64502,129 L118.217285,129 Z M130.794434,116.449219 L130.794434,119.38916 L132.033691,119.38916 L132.033691,116.449219 C132.033691,116.106444 131.985352,115.86255 131.888672,115.717529 C131.791992,115.572509 131.63379,115.5 131.414062,115.5 C131.194335,115.5 131.036133,115.572509 130.939453,115.717529 C130.842773,115.86255 130.794434,116.106444 130.794434,116.449219 L130.794434,116.449219 Z M130.794434,125.862305 C130.794434,126.20508 130.842773,126.448974 130.939453,126.593994 C131.036133,126.739014 131.194335,126.811523 131.414062,126.811523 C131.63379,126.811523 131.791992,126.739014 131.888672,126.593994 C131.985352,126.448974 132.033691,126.20508 132.033691,125.862305 L132.033691,122.94873 L135.461426,122.94873 L135.461426,125.835938 C135.461426,126.960943 135.10767,127.833249 134.400146,128.452881 C133.692623,129.072513 132.697272,129.382324 131.414062,129.382324 C129.96386,129.382324 128.926761,129.048343 128.302734,128.380371 C127.678708,127.712399 127.366699,126.569832 127.366699,124.952637 L127.366699,117.503906 C127.366699,115.869132 127.674313,114.722171 128.289551,114.062988 C128.904788,113.403805 129.937493,113.074219 131.387695,113.074219 C132.662116,113.074219 133.659664,113.370847 134.380371,113.964111 C135.101078,114.557376 135.461426,115.376948 135.461426,116.422852 L135.461426,121.709473 L130.794434,121.709473 L130.794434,125.862305 Z M136.001953,115.935059 L136.001953,113.443359 L136.87207,113.443359 L136.87207,110.556152 L140.326172,110.556152 L140.326172,113.443359 L141.328125,113.443359 L141.328125,115.935059 L140.326172,115.935059 L140.326172,125.387695 C140.326172,125.871096 140.385497,126.176513 140.50415,126.303955 C140.622803,126.431397 140.857908,126.495117 141.209473,126.495117 L141.328125,126.495117 L141.328125,129 L139.166016,129 C138.331051,129 137.739992,128.80884 137.392822,128.426514 C137.045653,128.044188 136.87207,127.325689 136.87207,126.270996 L136.87207,115.935059 L136.001953,115.935059 Z" id="berlin.freifunk.net" fill="#000000"></path>
            </g>
        </g>
    </g>
</svg>