<svg width="151" height="142" viewBox="0 0 151 142" xmlns="http://www.w3.org/2000/svg"><title>Group + berlin.freifunk.net</title><g fill="none" fill-rule="evenodd"><g transform="translate(5 6)"><ellipse stroke="#DE2C68" stroke-width="1.709" cx="33.072" cy="63.916" rx="32.508" ry="33.143"/><ellipse stroke="#DE2C68" stroke-width="1.709" cx="90.961" cy="47.204" rx="35.091" ry="35.691"/><ellipse stroke="#DE2C68" stroke-width="9.246" cx="90.812" cy="47.204" rx="45.911" ry="46.361"/><path d="M25.23 47.95h-7.247l5.798 5.497H12.187v5.495H23.78l-5.797 5.495h7.247l8.696-8.243-8.696-8.243zM100.514 70.333L91.42 60.92h19.706v-9.414H91.42l9.094-9.414H88.387l-13.644 14.12 13.644 14.12h12.127z" fill="#FC3"/></g><path d="M10.234 131.6v-8.663c0-.36-.046-.604-.14-.732-.09-.127-.25-.19-.48-.19-.21 0-.367.074-.468.223-.1.15-.15.383-.15.7v8.66c0 .317.05.554.15.713.1.16.257.238.468.238.23 0 .39-.068.48-.204.094-.137.14-.385.14-.745zM5.567 135v-19.446h3.428v5.195h.052c.264-.538.594-.937.99-1.2.395-.265.865-.397 1.41-.397.747 0 1.307.222 1.68.666.374.443.56 1.104.56 1.983v10.956c0 .87-.184 1.524-.553 1.963-.37.44-.93.66-1.687.66-.58 0-1.077-.146-1.49-.436-.413-.29-.734-.72-.962-1.292h-.053V135H5.567zm12.55-12.55v2.94h1.24v-2.94c0-.344-.048-.587-.145-.732-.097-.145-.255-.218-.475-.218-.22 0-.378.073-.474.218-.097.145-.145.388-.145.73zm0 9.412c0 .343.05.587.146.732.096.145.255.218.474.218.22 0 .378-.073.475-.218.097-.145.145-.39.145-.732v-2.913h3.428v2.886c0 1.125-.354 1.997-1.062 2.617-.707.62-1.702.93-2.986.93-1.45 0-2.487-.335-3.11-1.003-.625-.668-.937-1.81-.937-3.427v-7.45c0-1.634.308-2.78.923-3.44.615-.66 1.648-.99 3.098-.99 1.275 0 2.273.298 2.994.89.72.594 1.08 1.414 1.08 2.46v5.286H18.12v4.152zm5.75 3.138v-15.557h3.374v1.306h.053c.29-.546.638-.948 1.042-1.208s.874-.39 1.41-.39c.748 0 1.308.223 1.682.667.373.443.56 1.104.56 1.983v6.012h-3.454v-4.878c0-.36-.046-.604-.14-.732-.09-.127-.25-.19-.48-.19-.21 0-.367.074-.468.223-.1.15-.152.383-.152.7V135h-3.427zm8.937 0v-19.446h3.428V135h-3.428zm4.562 0v-15.557h3.427V135h-3.427zm0-16.493v-2.953h3.427v2.953h-3.427zM41.926 135v-15.557h3.376v1.306h.053c.29-.546.637-.948 1.04-1.208.406-.26.876-.39 1.412-.39.747 0 1.308.223 1.68.667.375.443.56 1.104.56 1.983V135h-3.453v-12.063c0-.36-.046-.604-.138-.732-.092-.127-.253-.19-.48-.19-.212 0-.368.074-.47.223-.1.15-.15.383-.15.7V135h-3.43zm9.414 0v-3.968h3.573V135H51.34zm5.458 0v-13.09h-.843v-2.467h.843v-1.476c0-.756.23-1.347.686-1.773.457-.427 1.094-.64 1.912-.64h1.937v2.44c-.404 0-.69.045-.856.138-.167.092-.25.252-.25.48v.83h1.106v2.467h-1.107V135h-3.428zm5.155 0v-15.557h3.375v1.306h.053c.29-.546.638-.948 1.042-1.208.405-.26.875-.39 1.41-.39.748 0 1.308.223 1.682.667.373.443.56 1.104.56 1.983v6.012H66.62v-4.878c0-.36-.046-.604-.138-.732-.093-.127-.253-.19-.482-.19-.21 0-.366.074-.468.223-.1.15-.15.383-.15.7V135h-3.43zm12.815-12.55v2.94h1.24v-2.94c0-.344-.05-.587-.146-.732-.097-.145-.255-.218-.475-.218-.22 0-.378.073-.474.218-.097.145-.145.388-.145.73zm0 9.412c0 .343.048.587.145.732.096.145.254.218.474.218.22 0 .378-.073.475-.218.096-.145.145-.39.145-.732v-2.913h3.428v2.886c0 1.125-.354 1.997-1.062 2.617-.707.62-1.703.93-2.986.93-1.45 0-2.487-.335-3.11-1.003-.625-.668-.937-1.81-.937-3.427v-7.45c0-1.634.307-2.78.923-3.44.615-.66 1.648-.99 3.098-.99 1.275 0 2.273.298 2.994.89.72.594 1.08 1.414 1.08 2.46v5.286H74.77v4.152zM80.516 135v-15.557h3.427V135h-3.427zm0-16.493v-2.953h3.427v2.953h-3.427zM85.618 135v-13.09h-.844v-2.467h.844v-1.476c0-.756.228-1.347.685-1.773.457-.427 1.094-.64 1.912-.64h1.938v2.44c-.404 0-.69.045-.857.138-.167.092-.25.252-.25.48v.83h1.107v2.467h-1.108V135h-3.427zm13.276-15.557V135H95.52v-1.292h-.08c-.29.536-.63.93-1.022 1.18-.39.25-.86.376-1.404.376-.747 0-1.308-.218-1.68-.653-.375-.434-.562-1.087-.562-1.957v-13.21H94.2v12.077c0 .342.05.58.152.71.1.133.266.2.494.2.21 0 .363-.07.455-.212.093-.14.14-.373.14-.698v-12.077h3.454zM99.974 135v-15.557h3.376v1.306h.052c.29-.546.638-.948 1.042-1.208s.874-.39 1.41-.39c.748 0 1.308.223 1.68.667.375.443.562 1.104.562 1.983V135h-3.454v-12.063c0-.36-.047-.604-.14-.732-.09-.127-.252-.19-.48-.19-.21 0-.367.074-.468.223-.1.15-.152.383-.152.7V135h-3.427zm9.203 0v-19.446h3.427v10.666h.053l1.464-6.777h3.507l-1.7 6.724 1.7 8.833h-3.612l-1.358-8.147h-.053V135h-3.427zm9.123 0v-3.968h3.573V135H118.3zm4.917 0v-15.557h3.375v1.306h.053c.29-.546.637-.948 1.042-1.208.404-.26.874-.39 1.41-.39.747 0 1.308.223 1.68.667.375.443.56 1.104.56 1.983V135h-3.453v-12.063c0-.36-.046-.604-.138-.732-.092-.127-.253-.19-.48-.19-.212 0-.368.074-.47.223-.1.15-.15.383-.15.7V135h-3.43zm12.577-12.55v2.94h1.24v-2.94c0-.344-.05-.587-.145-.732-.098-.145-.256-.218-.476-.218-.22 0-.378.073-.475.218-.097.145-.146.388-.146.73zm0 9.412c0 .343.05.587.145.732.096.145.254.218.474.218.22 0 .378-.073.475-.218.095-.145.144-.39.144-.732v-2.913h3.427v2.886c0 1.125-.352 1.997-1.06 2.617-.707.62-1.703.93-2.986.93-1.45 0-2.487-.335-3.11-1.003-.625-.668-.937-1.81-.937-3.427v-7.45c0-1.634.307-2.78.923-3.44.615-.66 1.647-.99 3.098-.99 1.274 0 2.272.298 2.992.89.72.594 1.08 1.414 1.08 2.46v5.286h-4.666v4.152zm5.208-9.927v-2.492h.87v-2.887h3.454v2.887h1.002v2.492h-1.002v9.453c0 .483.06.79.178.916.12.127.354.19.705.19h.118V135h-2.162c-.835 0-1.426-.19-1.773-.573-.347-.383-.52-1.1-.52-2.156v-10.335h-.87z" fill="#000"/></g></svg>