<?xml version="1.0" encoding="utf-8"?>
<!-- Generator: Adobe Illustrator 19.0.0, SVG Export Plug-In . SVG Version: 6.00 Build 0)  -->
<svg version="1.1" id="Layer_1" xmlns="http://www.w3.org/2000/svg" xmlns:xlink="http://www.w3.org/1999/xlink" x="0px" y="0px"
	 viewBox="0 0 218.4 158.2" style="enable-background:new 0 0 218.4 158.2;" xml:space="preserve">
<style type="text/css">
	.st0{fill:#FFFFFF;}
</style>
<g id="XMLID_11_">
	<path id="XMLID_12_" class="st0" d="M158.3,131.1c-1.4-0.1-0.8-5.4,4.8-6c2.5-0.3,5.2,0.3,7.6-0.4c1.3-0.3,0.7,1.3,0.1,5.2
		C170.6,131.4,159.5,131.2,158.3,131.1L158.3,131.1z M104.8,23.7c-0.1,1.4-3.8,0.9-4.7,0.9l-0.1,0c-3.9-1-0.6-9.8-5-12.9
		C88.5,7.2,42,8.2,18,10.4c-4.7,0.4-6.9,5.3-7.9,11.9C9,28.8,9.3,36.6,9.2,42C9,51,9.3,60.7,12.9,70.6c1.4,4,4.7,5.3,9.1,5.7
		c4.5,0.4,9.8-0.3,15-0.1c9.2,0,22.3,0.2,33.5,0.1C81.7,76.2,91,76,92.9,75.2c2.6-1,3.8-5,4.4-7.9c0.5-2.4,0.5-4.5,0.9-6
		c0.8-3.6,5.2-3.5,6.1-0.9c1.3,3.7-1.9,15.4-2.8,18.6c-1.3,4.9-10.8,3.7-14.4,3.7c-25.6-0.7-51.4,0.1-76.2-0.5
		C3,82.1,3,47.8,2.6,41.5C2.3,35.9,2.9,4.7,10,4.3c4.5-0.2,29.9-1.9,44.9-1.9c14.6,0,30.2,0.4,43.6,2.6
		C101.2,5.4,105.3,12.2,104.8,23.7L104.8,23.7z M178.1,83.4c-3.7,1.7-10.2,4-14.1,0.6c-0.1-0.1-0.2-0.4-0.2-0.5v-1.4
		c0-0.3,0.3-0.6,0.6-0.6c16.6,0.7,23.8-23.1,25.8-23.2c1.9-0.2,2.2,1.4,2.7,2.7c0,0,0,0.3,0,0.3C191.3,69.9,187.1,79,178.1,83.4
		L178.1,83.4z M205.8,93.1c4.4-0.8,8.9-3,10.1,3.9c0,0.2-0.1,0.5-0.3,0.6c-5.5,2.9-12.8,2.2-18.5,0.6c-0.7,2,0.7,5.1,0.2,7.6
		c-0.8,8.2-3.9,16-11.2,21.1l-0.1,0c-0.4,0.2-5,3.4-4.6,1.3c1.6-8.1-0.2-2.7,5.3-8.3c1.7-1.7,3.2-3.9,3.3-6.4l0-0.1
		c3.1-11-0.3-21.8-7.7-29.9c-0.2-0.2-0.2-0.6,0-0.9c6.8-6.2,4.7-6.4,8.2,0.3C193.9,89,198,94.5,205.8,93.1L205.8,93.1z M182.6,110.6
		c-1.1,8.3-3.4,16.7-4.4,24.5c0.8,5.9,1.6,11.6,6.3,15.5c0.4,0.3,0,1.4,0,1.8c-0.1,1.4-0.1,4.1-2.5,3.2l-0.1,0
		c-7.3-3.8-9.6-11.5-9.5-19.3c-0.3-12.9,6.9-24.8,5.2-37.8l-0.8-1.7c-5.4,5.9-11.1,13-10.7,21.9c0,1.1-4.5,2-4.9,0.9
		c-4.2-13.6,10.2-20.9,12.1-32.7c0.1-0.6,2-1,2.2-1.1c0.6-0.2,3.4-0.8,3.8,0.1C183.5,93.8,183.7,102.2,182.6,110.6L182.6,110.6z
		 M171,76.9l-0.2,0.1c-6,1.3-13.5,5.2-18.4-0.9c-0.2-0.2-0.2-0.6,0.1-0.8c3.4-3.1,9.1-1.1,12.7-3.3l0.2-0.1c2.8-0.8,5-1.5,6.7-2.2
		c1.9-1.1,3.8-2.5,5.5-4c0.7-1.3,0.8-2.8,1.6-4.5c-4.2,3.4-9.3,5.9-14.1,7c-4.9,1.1-11.8,2.7-15.7-1.4c-0.1-0.1-0.2-0.5-0.1-0.6
		c0.8-2.1,3.5-2.4,5.4-2.7l0.1,0c9.9-0.4,19.3-3.7,25.7-10.8c-10,6.4-22.1,12-34.3,7.1c-1.4-0.4-2.2-2.2-1.3-3.5
		c0-0.2-0.3-0.4-0.5-0.5c-21.8,0.9-43.8-2.2-65.4,1.4c-1.9,0.3-2.1,2.3-2.5,3.8c-0.9,3.7,1.7,10.7-1.1,13.2
		c-0.6,0.6-4.1,0.6-4.3-0.4c-0.3-1.8-1.4-12.2,1-17.8c3.2-7.5,30.3-5,37.3-5.1c13.2-0.3,28.5-0.7,41.2,0.1
		c-3.5-2.4-8.3-2.5-13.2-2.3c-17.8-0.3-45.6-0.2-56.8-0.8c-12.4-0.7-18.9,9-25.3,17.6c-0.6,0.8-6.7,9.2-7.8,9.2h-4.9
		c-0.6,0-0.9-0.5-0.5-1c4.5-6.2,18.7-26.6,25.1-29.1c0.8-0.3,1.6-0.5,2.9-0.9c3.5-1,21.9-0.9,39.2-0.6c17.4,0.3,33.9,0.9,33.9,0.9
		l0.1,0c2.6,0.6,5.2,1,7.7,1.8c-2-2.8-6.2-3.6-9.9-4.1c-23.6-0.7-47.6-0.1-70.8-1.6l-0.1,0C63,37.7,59.5,29.5,54.8,25L44.2,11.6
		c-0.4-0.5-0.1-1,0.5-1l5.3,0.3c0.1,0,0.4,0.2,0.4,0.2c6.8,7.9,11.6,17.7,20.3,23.8c1.9,1.3,59.3,0.9,65.3,0.8
		c3.5,0,10.5,2.2,15.3,4.6c-0.2-0.5-1-1.1-1.4-1.5c-4.8-4.6-12.3-6.3-19.6-6.7c-7.3-0.4-14.3,0.3-18,0.3c-12.4,0-28.6,2.8-39.7-4.1
		c-3.1-1.9-2.8-18.2-0.6-18.2h3.6c1.7,0,0.8,8.1,0.8,9.4c0,2.9,0.5,5.2,3.3,6.4c22.9,3.9,51.7-4.7,71.9,7.7l0.1,0.1
		c4.8,4.6,8.5,9.9,11.1,15.5c-3-8.3-9.4-15.6-14.9-22.4c-0.6-0.7,1.1-3,4.1-1c0.4,0.2,2,1.2,2.1,1.3c5.8,7.3,12.2,15.1,14.6,24.3
		c0.2,0.2,0.5,0.6,0.7,0.7c0,0,0.1,0,0.1-0.1l0.1-0.1l0.7-0.7c-2.1-9.5-8.2-17.4-13.2-25.5c-0.6-1,1.9-2,4.3-0.7
		c0.5,0.3,3.1,2.3,3.3,2.6c4,6.5,8.3,13.1,9.9,20.7c0.7,0.2,1.5-0.9,1.8-1.4c-0.8-5.8-2.8-11-5.2-16c-0.2-0.3,0.3-1.3,0.5-1.6
		c0.2-0.5,0.7-0.9,1.4-0.9c2.6,0,5.3,5.4,5.9,7.2c0.9,2.6,1.4,5.3,2.2,7.9c1.5-1.3,2.9-5.9,5.5-2.1l0.1,0.1c1,2.6-2.9,5.3,0.4,5.5
		c0.4,0,0.6,0.4,0.6,0.7c-0.4,2-1.2,3.9-2.2,5.7c0.6-0.5,1.3-0.9,2-1.4c0.9-0.6,1.6-1.1,2.5,0.2c0,0.1,0.1,0.4,0.1,0.5
		C187.7,62.9,180.3,71.9,171,76.9L171,76.9z"/>
</g>
</svg>
