<svg id="Layer_1" xmlns="http://www.w3.org/2000/svg" viewBox="0 0 218.4 158.2"><style>.st0{fill:#FFFFFF;}</style><g id="XMLID_11_"><path id="XMLID_12_" class="st0" d="M158.3 131.1c-1.4-.1-.8-5.4 4.8-6 2.5-.3 5.2.3 7.6-.4 1.3-.3.7 1.3.1 5.2-.2 1.5-11.3 1.3-12.5 1.2zM104.8 23.7c-.1 1.4-3.8.9-4.7.9h-.1c-3.9-1-.6-9.8-5-12.9-6.5-4.5-53-3.5-77-1.3-4.7.4-6.9 5.3-7.9 11.9C9 28.8 9.3 36.6 9.2 42c-.2 9 .1 18.7 3.7 28.6 1.4 4 4.7 5.3 9.1 5.7 4.5.4 9.8-.3 15-.1 9.2 0 22.3.2 33.5.1S91 76 92.9 75.2c2.6-1 3.8-5 4.4-7.9.5-2.4.5-4.5.9-6 .8-3.6 5.2-3.5 6.1-.9 1.3 3.7-1.9 15.4-2.8 18.6-1.3 4.9-10.8 3.7-14.4 3.7-25.6-.7-51.4.1-76.2-.5C3 82.1 3 47.8 2.6 41.5c-.3-5.6.3-36.8 7.4-37.2 4.5-.2 29.9-1.9 44.9-1.9 14.6 0 30.2.4 43.6 2.6 2.7.4 6.8 7.2 6.3 18.7zm73.3 59.7c-3.7 1.7-10.2 4-14.1.6-.1-.1-.2-.4-.2-.5v-1.4c0-.3.3-.6.6-.6 16.6.7 23.8-23.1 25.8-23.2 1.9-.2 2.2 1.4 2.7 2.7v.3c-1.6 8.6-5.8 17.7-14.8 22.1zm27.7 9.7c4.4-.8 8.9-3 10.1 3.9 0 .2-.1.5-.3.6-5.5 2.9-12.8 2.2-18.5.6-.7 2 .7 5.1.2 7.6-.8 8.2-3.9 16-11.2 21.1h-.1c-.4.2-5 3.4-4.6 1.3 1.6-8.1-.2-2.7 5.3-8.3 1.7-1.7 3.2-3.9 3.3-6.4v-.1c3.1-11-.3-21.8-7.7-29.9-.2-.2-.2-.6 0-.9 6.8-6.2 4.7-6.4 8.2.3 3.4 6.1 7.5 11.6 15.3 10.2zm-23.2 17.5c-1.1 8.3-3.4 16.7-4.4 24.5.8 5.9 1.6 11.6 6.3 15.5.4.3 0 1.4 0 1.8-.1 1.4-.1 4.1-2.5 3.2h-.1c-7.3-3.8-9.6-11.5-9.5-19.3-.3-12.9 6.9-24.8 5.2-37.8l-.8-1.7c-5.4 5.9-11.1 13-10.7 21.9 0 1.1-4.5 2-4.9.9-4.2-13.6 10.2-20.9 12.1-32.7.1-.6 2-1 2.2-1.1.6-.2 3.4-.8 3.8.1 4.2 7.9 4.4 16.3 3.3 24.7zM171 76.9l-.2.1c-6 1.3-13.5 5.2-18.4-.9-.2-.2-.2-.6.1-.8 3.4-3.1 9.1-1.1 12.7-3.3l.2-.1c2.8-.8 5-1.5 6.7-2.2 1.9-1.1 3.8-2.5 5.5-4 .7-1.3.8-2.8 1.6-4.5-4.2 3.4-9.3 5.9-14.1 7-4.9 1.1-11.8 2.7-15.7-1.4-.1-.1-.2-.5-.1-.6.8-2.1 3.5-2.4 5.4-2.7h.1c9.9-.4 19.3-3.7 25.7-10.8-10 6.4-22.1 12-34.3 7.1-1.4-.4-2.2-2.2-1.3-3.5 0-.2-.3-.4-.5-.5-21.8.9-43.8-2.2-65.4 1.4-1.9.3-2.1 2.3-2.5 3.8-.9 3.7 1.7 10.7-1.1 13.2-.6.6-4.1.6-4.3-.4-.3-1.8-1.4-12.2 1-17.8 3.2-7.5 30.3-5 37.3-5.1 13.2-.3 28.5-.7 41.2.1-3.5-2.4-8.3-2.5-13.2-2.3-17.8-.3-45.6-.2-56.8-.8-12.4-.7-18.9 9-25.3 17.6-.6.8-6.7 9.2-7.8 9.2h-4.9c-.6 0-.9-.5-.5-1 4.5-6.2 18.7-26.6 25.1-29.1.8-.3 1.6-.5 2.9-.9 3.5-1 21.9-.9 39.2-.6 17.4.3 33.9.9 33.9.9h.1c2.6.6 5.2 1 7.7 1.8-2-2.8-6.2-3.6-9.9-4.1-23.6-.7-47.6-.1-70.8-1.6h-.1C63 37.7 59.5 29.5 54.8 25L44.2 11.6c-.4-.5-.1-1 .5-1l5.3.3c.1 0 .4.2.4.2C57.2 19 62 28.8 70.7 34.9c1.9 1.3 59.3.9 65.3.8 3.5 0 10.5 2.2 15.3 4.6-.2-.5-1-1.1-1.4-1.5-4.8-4.6-12.3-6.3-19.6-6.7-7.3-.4-14.3.3-18 .3-12.4 0-28.6 2.8-39.7-4.1-3.1-1.9-2.8-18.2-.6-18.2h3.6c1.7 0 .8 8.1.8 9.4 0 2.9.5 5.2 3.3 6.4 22.9 3.9 51.7-4.7 71.9 7.7l.1.1c4.8 4.6 8.5 9.9 11.1 15.5-3-8.3-9.4-15.6-14.9-22.4-.6-.7 1.1-3 4.1-1 .4.2 2 1.2 2.1 1.3 5.8 7.3 12.2 15.1 14.6 24.3.2.2.5.6.7.7 0 0 .1 0 .1-.1l.1-.1.7-.7c-2.1-9.5-8.2-17.4-13.2-25.5-.6-1 1.9-2 4.3-.7.5.3 3.1 2.3 3.3 2.6 4 6.5 8.3 13.1 9.9 20.7.7.2 1.5-.9 1.8-1.4-.8-5.8-2.8-11-5.2-16-.2-.3.3-1.3.5-1.6.2-.5.7-.9 1.4-.9 2.6 0 5.3 5.4 5.9 7.2.9 2.6 1.4 5.3 2.2 7.9 1.5-1.3 2.9-5.9 5.5-2.1l.1.1c1 2.6-2.9 5.3.4 5.5.4 0 .6.4.6.7-.4 2-1.2 3.9-2.2 5.7.6-.5 1.3-.9 2-1.4.9-.6 1.6-1.1 2.5.2 0 .1.1.4.1.5-2.5 10.2-9.9 19.2-19.2 24.2z"/></g></svg>