<svg width="366" height="264" viewBox="0 0 366 264" xmlns="http://www.w3.org/2000/svg"><title>Chaosknoten-4.0</title><path d="M267.13 220.898c-2.376-.15-1.36-9.315 8.29-10.32 4.306-.448 8.878.472 13.098-.645 2.168-.574 1.14 2.232.134 8.905-.37 2.457-19.44 2.19-21.52 2.06zM175.4 36.642c-.104 2.387-6.544 1.52-8.03 1.496l-.25-.035c-6.775-1.784-1.107-16.855-8.642-22.128-11.084-7.758-90.734-5.92-132.044-2.164-8.02.73-11.842 9.01-13.578 20.363-1.72 11.23-1.26 24.567-1.433 33.8-.286 15.4.253 32.108 6.285 49.045 2.418 6.79 8.036 9.11 15.58 9.754 7.672.654 16.88-.447 25.65-.13 15.83 0 38.19.262 57.466.176 19.44-.087 35.326-.542 38.572-1.837 4.446-1.774 6.44-8.524 7.54-13.467.932-4.19.91-7.75 1.487-10.244 1.415-6.114 8.874-6.013 10.436-1.53 2.225 6.39-3.24 26.418-4.735 31.97-2.246 8.33-18.517 6.403-24.71 6.403-43.856-1.173-88.195.234-130.645-.938C.716 136.798.798 77.915.13 67.18-.47 57.603.573 3.986 12.826 3.336 20.617 2.923 64.133.006 89.895 0c25.094-.007 51.81.612 74.88 4.425 4.42.73 11.49 12.534 10.626 32.217zm125.787 102.32c-6.426 2.985-17.44 6.923-24.123 1.012-.097-.086-.353-.653-.353-.782v-2.345c0-.587.502-1.068 1.088-1.044 28.394 1.147 40.87-39.564 44.188-39.866 3.342-.304 3.74 2.39 4.59 4.66.017.042.057.522.05.566-2.843 14.68-9.998 30.32-25.44 37.8zm47.566 16.636c7.61-1.405 15.33-5.204 17.27 6.63.054.327-.25.94-.545 1.094-9.46 4.966-21.98 3.7-31.77 1.033-1.13 3.436 1.186 8.686.424 12.962-1.43 14.003-6.68 27.458-19.202 36.127l-.113.068c-.66.343-8.58 5.773-7.858 2.152 2.77-13.89-.354-4.577 9.147-14.232 2.94-2.99 5.47-6.747 5.627-10.932l.038-.243c5.285-18.84-.445-37.47-13.132-51.31-.375-.41-.346-1.1.064-1.476 11.592-10.625 8.1-10.91 13.99.437 5.534 10.66 12.586 20.178 26.06 17.69zm-39.95 30.123c-1.868 14.285-5.834 28.657-7.485 42.1 1.41 10.114 2.824 19.94 10.872 26.646.643.536.04 2.43-.008 3.124-.165 2.417-.213 6.994-4.31 5.458l-.123-.055c-12.464-6.6-16.508-19.757-16.27-33.072-.435-22.184 11.783-42.508 8.942-64.88l-1.38-2.912c-9.334 10.13-19.03 22.384-18.372 37.513.08 1.88-7.803 3.354-8.373 1.53-7.285-23.31 17.54-35.806 20.838-56.068.178-1.093 3.42-1.7 3.853-1.81 1.066-.27 5.812-1.326 6.55.097 6.944 13.41 7.154 27.91 5.266 42.33zm-19.77-57.816l-.277.1c-10.208 2.19-23.107 8.855-31.518-1.536-.322-.397-.27-1.084.107-1.43 5.803-5.297 15.593-1.88 21.724-5.74l.27-.12c4.833-1.38 8.544-2.642 11.414-3.835 3.31-1.948 6.45-4.265 9.394-6.846 1.236-2.277 1.392-4.727 2.664-7.775-7.22 5.917-15.994 10.15-24.128 12.036-8.382 1.863-20.216 4.647-27.015-2.404-.184-.19-.32-.854-.224-1.1 1.393-3.622 5.967-4.138 9.26-4.645l.12-.012c16.962-.636 33.033-6.307 44.08-18.504-17.11 10.963-37.96 20.534-58.912 12.098-2.404-.66-3.736-3.856-2.27-5.918.062-.415-.548-.703-.847-.824-37.332 1.62-75.135-3.696-112.244 2.328-3.31.537-3.652 3.88-4.312 6.494-1.608 6.364 2.87 18.402-1.885 22.663-1.074.962-7.117 1.013-7.425-.69-.562-3.122-2.414-20.923 1.705-30.616 5.436-12.79 52.025-8.523 63.916-8.764 22.636-.457 48.902-1.18 70.622.173-5.922-4.035-14.164-4.234-22.637-4.028-30.5-.47-78.183-.31-97.512-1.372-21.3-1.17-32.485 15.397-43.486 30.198-1.083 1.457-11.57 15.734-13.324 15.734H67.85c-1.047 0-1.46-.8-.85-1.653 7.675-10.712 32.075-45.607 42.98-49.997 1.3-.524 2.816-.92 4.96-1.527 6.036-1.71 37.53-1.573 67.185-1.045 29.798.532 58.135 1.476 58.135 1.476l.197.026c4.413 1.003 8.922 1.63 13.234 3.047-3.438-4.726-10.63-6.25-17.064-7.085-40.57-1.17-81.605-.235-121.47-2.814l-.236-.042c-11.147-3.393-17.27-17.327-25.33-25.162L71.485 15.76c-.69-.877-.24-1.745.875-1.688l9.146.47c.116.005.663.273.738.36 11.68 13.55 19.83 30.293 34.757 40.872 3.19 2.26 101.705 1.46 111.964 1.45 6.042-.008 18.01 3.702 26.29 7.945-.35-.88-1.72-1.968-2.4-2.646-8.28-7.927-21.055-10.734-33.556-11.498-12.536-.767-24.53.522-30.896.545-21.225.074-49.122 4.865-68.102-6.956-5.327-3.318-4.804-31.247-1.09-31.247h6.1c2.97 0 1.402 13.95 1.366 16.043-.085 4.905.806 8.86 5.73 10.963 39.252 6.724 88.633-8.11 123.376 13.252l.182.143c8.174 7.97 14.593 17.002 19.1 26.645-5.173-14.168-16.178-26.802-25.565-38.373-.978-1.204 1.81-5.194 6.986-1.75.6.4 3.377 2.097 3.552 2.316 10.012 12.515 20.86 25.865 25.003 41.7.273.36.828 1.102 1.26 1.234.03-.02.123-.077.215-.205l.11-.132 1.24-1.24c-3.613-16.298-14.09-29.806-22.728-43.67-1.097-1.76 3.32-3.49 7.306-1.16.8.467 5.336 3.868 5.732 4.523 6.777 11.218 14.23 22.445 16.92 35.508 1.12.338 2.657-1.595 3.145-2.358-1.42-10.02-4.855-18.94-9-27.462-.263-.54.57-2.288.836-2.79.413-.785 1.125-1.526 2.45-1.526 4.54 0 9.036 9.257 10.132 12.43 1.517 4.386 2.33 9.175 3.834 13.482 2.52-2.196 4.94-10.102 9.406-3.65l.12.227c1.694 4.52-5.043 9.036.73 9.408.665.043 1.09.604.955 1.256-.718 3.45-2.037 6.74-3.818 9.824 1.03-.79 2.15-1.605 3.374-2.452 1.54-1.067 2.797-1.955 4.28.282.064.1.17.702.144.817-4.062 17.205-16.702 32.683-32.652 41.254z" fill="#1A1918" fill-rule="evenodd"/></svg>