<?xml version="1.0" encoding="UTF-8" standalone="no"?>
<svg width="366px" height="264px" viewBox="0 0 366 264" version="1.1" xmlns="http://www.w3.org/2000/svg" xmlns:xlink="http://www.w3.org/1999/xlink" xmlns:sketch="http://www.bohemiancoding.com/sketch/ns">
    <!-- Generator: Sketch 3.3.3 (12081) - http://www.bohemiancoding.com/sketch -->
    <title>Chaosknoten-4.0</title>
    <desc>Created with Sketch.</desc>
    <defs></defs>
    <g id="Page-1" stroke="none" stroke-width="1" fill="none" fill-rule="evenodd" sketch:type="MSPage">
        <path d="M267.130724,220.898058 C264.753724,220.749058 265.770724,211.583058 275.419724,210.578058 C279.725724,210.130058 284.297724,211.050058 288.517724,209.933058 C290.685724,209.359058 289.657724,212.165058 288.651724,218.838058 C288.281724,221.295058 269.210724,221.028058 267.130724,220.898058 L267.130724,220.898058 Z M175.400724,36.6420583 C175.295724,39.0290583 168.855724,38.1610583 167.368724,38.1380583 L167.119724,38.1030583 C160.344724,36.3190583 166.012724,21.2480583 158.477724,15.9750583 C147.393724,8.21705826 67.7437245,10.0560583 26.4337245,13.8110583 C18.4147245,14.5400583 14.5917245,22.8210583 12.8557245,34.1730583 C11.1367245,45.4030583 11.5947245,58.7400583 11.4227245,67.9730583 C11.1367245,83.3720583 11.6757245,100.081058 17.7077245,117.018058 C20.1257245,123.807058 25.7437245,126.128058 33.2887245,126.772058 C40.9597245,127.426058 50.1677245,126.325058 58.9377245,126.642058 C74.7677245,126.642058 97.1287245,126.904058 116.403724,126.818058 C135.843724,126.731058 151.729724,126.276058 154.975724,124.981058 C159.421724,123.206058 161.416724,116.456058 162.515724,111.513058 C163.447724,107.322058 163.425724,103.762058 164.002724,101.269058 C165.417724,95.1560583 172.876724,95.2570583 174.438724,99.7400583 C176.664724,106.129058 171.200724,126.158058 169.704724,131.711058 C167.458724,140.039058 151.187724,138.113058 144.994724,138.113058 C101.138724,136.940058 56.7997245,138.347058 14.3497245,137.175058 C0.715724486,136.798058 0.797724486,77.9150583 0.128724486,67.1800583 C-0.468275514,57.6030583 0.573724486,3.98605826 12.8267245,3.33605826 C20.6157245,2.92305826 64.1327245,0.00605826479 89.8947245,5.82647943e-05 C114.988724,-0.00694173521 141.705724,0.612058265 164.773724,4.42505826 C169.194724,5.15605826 176.264724,16.9590583 175.400724,36.6420583 L175.400724,36.6420583 Z M301.186724,138.963058 C294.760724,141.947058 283.745724,145.885058 277.063724,139.974058 C276.966724,139.888058 276.710724,139.321058 276.710724,139.192058 L276.710724,136.847058 C276.710724,136.260058 277.211724,135.779058 277.797724,135.803058 C306.191724,136.950058 318.668724,96.2390583 321.985724,95.9370583 C325.327724,95.6330583 325.724724,98.3260583 326.576724,100.598058 C326.592724,100.639058 326.632724,101.119058 326.624724,101.163058 C323.782724,115.844058 316.627724,131.484058 301.186724,138.963058 L301.186724,138.963058 Z M348.752724,155.598058 C356.363724,154.193058 364.083724,150.394058 366.023724,162.228058 C366.076724,162.555058 365.771724,163.167058 365.477724,163.322058 C356.016724,168.288058 343.496724,167.021058 333.706724,164.355058 C332.577724,167.791058 334.893724,173.041058 334.131724,177.317058 C332.700724,191.320058 327.451724,204.775058 314.929724,213.444058 L314.816724,213.512058 C314.155724,213.855058 306.235724,219.285058 306.958724,215.664058 C309.730724,201.775058 306.605724,211.087058 316.106724,201.432058 C319.047724,198.443058 321.575724,194.685058 321.733724,190.500058 L321.771724,190.257058 C327.056724,171.418058 321.326724,152.787058 308.639724,138.946058 C308.264724,138.537058 308.293724,137.846058 308.703724,137.471058 C320.295724,126.845058 316.804724,126.561058 322.693724,137.907058 C328.227724,148.568058 335.279724,158.085058 348.752724,155.598058 L348.752724,155.598058 Z M308.803724,185.721058 C306.934724,200.005058 302.968724,214.377058 301.317724,227.820058 C302.728724,237.934058 304.141724,247.759058 312.189724,254.466058 C312.832724,255.002058 312.229724,256.896058 312.181724,257.590058 C312.016724,260.007058 311.968724,264.584058 307.870724,263.048058 L307.748724,262.993058 C295.285724,256.394058 291.241724,243.236058 291.479724,229.921058 C291.044724,207.736058 303.262724,187.412058 300.421724,165.039058 L299.041724,162.128058 C289.707724,172.259058 280.010724,184.512058 280.669724,199.641058 C280.750724,201.521058 272.866724,202.994058 272.296724,201.170058 C265.011724,177.861058 289.836724,165.364058 293.134724,145.102058 C293.312724,144.009058 296.555724,143.402058 296.987724,143.293058 C298.053724,143.023058 302.799724,141.966058 303.536724,143.389058 C310.481724,156.800058 310.691724,171.300058 308.803724,185.721058 L308.803724,185.721058 Z M289.031724,127.904058 L288.755724,128.005058 C278.547724,130.193058 265.648724,136.859058 257.237724,126.468058 C256.915724,126.071058 256.967724,125.384058 257.344724,125.039058 C263.147724,119.741058 272.937724,123.158058 279.068724,119.298058 L279.338724,119.178058 C284.172724,117.797058 287.883724,116.536058 290.753724,115.343058 C294.062724,113.395058 297.202724,111.078058 300.147724,108.497058 C301.383724,106.220058 301.539724,103.770058 302.811724,100.722058 C295.591724,106.639058 286.817724,110.872058 278.683724,112.758058 C270.301724,114.621058 258.467724,117.405058 251.668724,110.354058 C251.485724,110.164058 251.350724,109.500058 251.445724,109.254058 C252.838724,105.632058 257.412724,105.116058 260.704724,104.609058 L260.824724,104.598058 C277.787724,103.962058 293.858724,98.2910583 304.906724,86.0940583 C287.794724,97.0570583 266.946724,106.628058 245.993724,98.1920583 C243.589724,97.5320583 242.257724,94.3360583 243.724724,92.2740583 C243.785724,91.8590583 243.175724,91.5710583 242.876724,91.4500583 C205.544724,93.0690583 167.741724,87.7540583 130.632724,93.7780583 C127.322724,94.3150583 126.980724,97.6590583 126.320724,100.272058 C124.711724,106.636058 129.190724,118.674058 124.434724,122.935058 C123.360724,123.897058 117.317724,123.948058 117.009724,122.244058 C116.447724,119.123058 114.595724,101.322058 118.714724,91.6290583 C124.150724,78.8400583 170.739724,83.1070583 182.630724,82.8660583 C205.265724,82.4090583 231.531724,81.6870583 253.251724,83.0390583 C247.329724,79.0050583 239.087724,78.8060583 230.614724,79.0120583 C200.113724,78.5430583 152.431724,78.7010583 133.102724,77.6400583 C111.803724,76.4710583 100.617724,93.0370583 89.6167245,107.838058 C88.5337245,109.295058 78.0467245,123.572058 76.2927245,123.572058 L67.8497245,123.572058 C66.8027245,123.572058 66.3907245,122.771058 67.0007245,121.919058 C74.6747245,111.208058 99.0747245,76.3130583 109.978724,71.9230583 C111.279724,71.3990583 112.795724,71.0030583 114.939724,70.3960583 C120.975724,68.6870583 152.468724,68.8230583 182.124724,69.3510583 C211.922724,69.8820583 240.259724,70.8260583 240.259724,70.8260583 L240.456724,70.8520583 C244.869724,71.8550583 249.378724,72.4820583 253.690724,73.8990583 C250.251724,69.1740583 243.060724,67.6490583 236.625724,66.8150583 C196.056724,65.6450583 155.020724,66.5800583 115.156724,64.0010583 L114.919724,63.9580583 C103.772724,60.5650583 97.6487245,46.6310583 89.5897245,38.7960583 L71.4847245,15.7610583 C70.7947245,14.8830583 71.2447245,14.0150583 72.3597245,14.0720583 L81.5057245,14.5410583 C81.6217245,14.5470583 82.1687245,14.8150583 82.2437245,14.9020583 C93.9247245,28.4530583 102.072724,45.1950583 117.000724,55.7740583 C120.190724,58.0340583 218.704724,57.2340583 228.963724,57.2230583 C235.005724,57.2160583 246.972724,60.9260583 255.253724,65.1690583 C254.903724,64.2910583 253.532724,63.2020583 252.854724,62.5240583 C244.574724,54.5970583 231.798724,51.7900583 219.297724,51.0260583 C206.761724,50.2590583 194.768724,51.5480583 188.401724,51.5710583 C167.176724,51.6440583 139.279724,56.4350583 120.299724,44.6140583 C114.972724,41.2960583 115.495724,13.3670583 119.210724,13.3670583 L125.308724,13.3670583 C128.280724,13.3670583 126.711724,27.3170583 126.675724,29.4100583 C126.590724,34.3150583 127.481724,38.2710583 132.404724,40.3730583 C171.657724,47.0970583 221.038724,32.2630583 255.781724,53.6250583 L255.963724,53.7680583 C264.137724,61.7370583 270.556724,70.7700583 275.062724,80.4130583 C269.890724,66.2450583 258.885724,53.6110583 249.498724,42.0400583 C248.521724,40.8360583 251.310724,36.8460583 256.485724,40.2900583 C257.086724,40.6900583 259.862724,42.3870583 260.037724,42.6060583 C270.049724,55.1210583 280.898724,68.4710583 285.040724,84.3070583 C285.312724,84.6670583 285.867724,85.4080583 286.299724,85.5400583 C286.329724,85.5190583 286.422724,85.4630583 286.514724,85.3350583 L286.625724,85.2030583 L287.864724,83.9640583 C284.251724,67.6650583 273.773724,54.1570583 265.136724,40.2930583 C264.039724,38.5320583 268.457724,36.8020583 272.442724,39.1320583 C273.243724,39.6000583 277.778724,43.0010583 278.174724,43.6560583 C284.951724,54.8740583 292.403724,66.1010583 295.094724,79.1640583 C296.213724,79.5020583 297.751724,77.5690583 298.239724,76.8060583 C296.820724,66.7870583 293.384724,57.8650583 289.239724,49.3440583 C288.976724,48.8040583 289.810724,47.0560583 290.075724,46.5530583 C290.488724,45.7690583 291.200724,45.0280583 292.524724,45.0280583 C297.066724,45.0280583 301.561724,54.2850583 302.657724,57.4580583 C304.174724,61.8440583 304.986724,66.6330583 306.491724,70.9400583 C309.012724,68.7440583 311.431724,60.8380583 315.897724,67.2890583 L316.016724,67.5170583 C317.711724,72.0370583 310.974724,76.5530583 316.747724,76.9250583 C317.412724,76.9680583 317.838724,77.5290583 317.702724,78.1810583 C316.984724,81.6300583 315.665724,84.9190583 313.884724,88.0040583 C314.913724,87.2150583 316.034724,86.3990583 317.258724,85.5520583 C318.799724,84.4850583 320.056724,83.5970583 321.538724,85.8340583 C321.603724,85.9330583 321.710724,86.5360583 321.683724,86.6510583 C317.621724,103.855058 304.981724,119.333058 289.031724,127.904058 L289.031724,127.904058 Z" id="Chaosknoten-4.0" fill="#1A1918" sketch:type="MSShapeGroup"></path>
    </g>
</svg>