<svg xmlns="http://www.w3.org/2000/svg" width="336.614" height="124.016"><path d="M40.307 60.83V40.45H19.64v20.38h20.667zM40.307 83.567V63.184H19.64v20.383h20.667zM63.042 38.097V17.715H42.376v20.382h20.666zM63.042 60.83V40.45H42.376v20.38h20.666zM63.042 83.567V63.184H42.376v20.383h20.666zM87.844 60.83V40.45H67.176v20.38h20.668zM87.844 83.567V63.184H67.176v20.383h20.668zM110.577 60.83V40.45H89.91v20.38h20.667zM110.577 83.567V63.184H89.91v20.383h20.667zM110.577 106.3V85.92H89.91v20.38h20.667z"/><path style="line-height:85.00000238%;-inkscape-font-specification:Alte DIN 1451 Mittelschrift Bold" d="M125.53 59.927v-19.92h6.972c2.725 0 4.75 1.117 6.07 3.35.492.847.793 1.64.903 2.38.11.737.164 2.15.164 4.237 0 2.242-.08 3.74-.234 4.498-.146.747-.442 1.467-.888 2.16-.593.93-1.41 1.714-2.448 2.352-1.03.628-2.283.943-3.76.943h-6.78m3.02-17.063v14.22h3.624c1.66 0 2.89-.58 3.69-1.737.33-.5.534-1.04.616-1.613.092-.584.137-1.8.137-3.65 0-1.787-.05-3.022-.15-3.706-.09-.683-.337-1.3-.74-1.846-.828-1.112-2.013-1.668-3.553-1.668h-3.623M142.818 59.927v-19.92h3.022v19.92h-3.022M156.504 51.82v-2.858h7.082v4.06c0 1.98-.688 3.65-2.065 5.018-1.375 1.367-3.057 2.05-5.043 2.05-1.568 0-2.885-.373-3.952-1.12-1.057-.757-1.818-1.572-2.283-2.447-.328-.584-.556-1.222-.683-1.914-.13-.694-.193-2.24-.193-4.636 0-2.397.064-3.942.192-4.635.126-.694.354-1.332.682-1.915.465-.866 1.226-1.682 2.283-2.447 1.067-.766 2.384-1.15 3.952-1.15 1.886 0 3.445.585 4.675 1.75 1.24 1.16 2.015 2.544 2.325 4.158h-3.186c-.245-.766-.705-1.436-1.38-2.01-.665-.574-1.476-.862-2.433-.862-.71 0-1.327.146-1.846.438-.52.292-.93.63-1.23 1.012-.392.51-.66 1.07-.806 1.68-.137.612-.205 1.938-.205 3.98 0 2.05.067 3.38.204 3.992.146.61.414 1.162.806 1.654.3.4.71.748 1.23 1.04.52.282 1.136.423 1.847.423 1.148 0 2.114-.392 2.898-1.176.793-.783 1.19-1.804 1.19-3.062V51.82h-4.06M167.1 59.927v-19.92h3.02v19.92h-3.02M177.71 59.927v-17.24h-5.456v-2.68h13.932v2.68h-5.456v17.24h-3.02M185.602 59.913l7.273-19.933h2.488l7.274 19.933h-3.172l-1.53-4.498h-7.562l-1.586 4.498h-3.185m5.66-7.164h5.77c-.42-1.23-.753-2.193-1-2.886l-.628-1.86c-.173-.537-.35-1.084-.533-1.64-.18-.556-.423-1.307-.724-2.255-.32.983-.574 1.77-.765 2.364-.19.583-.377 1.148-.56 1.695-.173.546-.378 1.157-.615 1.83-.228.676-.542 1.592-.943 2.75M205.14 59.927v-19.92h3.02v17.076h9.72v2.844h-12.74M220.725 59.927v-19.92h12.742v2.857h-9.72v5.674h8.284v2.694h-8.284v5.85h9.72v2.845h-12.74M131.996 75.62v-2.858h7.082v4.06c0 1.98-.688 3.65-2.064 5.018-1.377 1.367-3.058 2.05-5.045 2.05-1.57 0-2.886-.373-3.952-1.12-1.058-.757-1.82-1.572-2.284-2.447-.328-.584-.556-1.222-.683-1.914-.127-.694-.19-2.24-.19-4.636 0-2.397.063-3.942.19-4.635.128-.694.356-1.332.684-1.915.465-.866 1.226-1.682 2.284-2.447 1.066-.766 2.383-1.15 3.95-1.15 1.887 0 3.446.585 4.676 1.75 1.24 1.16 2.015 2.544 2.325 4.158h-3.187c-.246-.766-.706-1.436-1.38-2.01-.666-.574-1.477-.862-2.434-.862-.712 0-1.327.146-1.847.438-.52.292-.93.63-1.23 1.012-.392.51-.66 1.07-.807 1.68-.137.612-.205 1.938-.205 3.98 0 2.05.07 3.38.206 3.992.146.61.415 1.162.807 1.654.3.4.71.748 1.23 1.04.52.282 1.135.423 1.846.423 1.147 0 2.113-.392 2.897-1.176.793-.783 1.19-1.804 1.19-3.062V75.62h-4.06M141.967 83.727v-19.92h12.742v2.857h-9.722v5.674h8.285v2.694h-8.285v5.85h9.72v2.845h-12.74M156.44 81.157l1.997-2.27c.748.602 1.61 1.085 2.584 1.45.977.364 1.998.546 3.064.546 1.23 0 2.197-.255 2.898-.765.702-.51 1.053-1.18 1.053-2.01 0-1.568-.866-2.466-2.598-2.694-.455-.054-.88-.11-1.27-.164l-1.368-.19c-1.724-.238-3.036-.867-3.94-1.888-.9-1.03-1.352-2.27-1.352-3.718 0-1.696.565-3.09 1.695-4.184 1.14-1.094 2.74-1.64 4.8-1.64 1.23 0 2.387.195 3.472.587 1.084.392 2.082.89 2.994 1.49l-1.683 2.49c-.73-.457-1.513-.826-2.35-1.11-.84-.28-1.697-.423-2.572-.423-.93 0-1.718.237-2.365.71-.647.475-.97 1.186-.97 2.134 0 .565.218 1.094.656 1.586.437.492 1.162.816 2.173.97.264.046.583.097.956.15.374.047.802.097 1.286.152 1.86.227 3.23.902 4.115 2.023.893 1.12 1.34 2.36 1.34 3.718 0 1.832-.634 3.254-1.9 4.265-1.268 1.012-2.968 1.518-5.1 1.518-3 0-5.538-.91-7.616-2.733M174.256 83.727v-19.92h12.742v2.857h-9.72v5.674h8.284v2.694h-8.285v5.85h9.72v2.845h-12.74M189.842 83.727v-19.92h3.02v17.076h9.722v2.844h-12.742M205.428 83.727v-19.92h3.02v17.076h9.722v2.844h-12.742M219.652 81.157l1.996-2.27c.748.602 1.61 1.085 2.584 1.45.976.364 1.996.546 3.063.546 1.23 0 2.196-.255 2.898-.765s1.053-1.18 1.053-2.01c0-1.568-.866-2.466-2.598-2.694-.455-.054-.88-.11-1.27-.164l-1.368-.19c-1.723-.238-3.035-.867-3.938-1.888-.902-1.03-1.353-2.27-1.353-3.718 0-1.696.564-3.09 1.694-4.184 1.14-1.094 2.74-1.64 4.8-1.64 1.23 0 2.387.195 3.472.587 1.084.392 2.082.89 2.994 1.49l-1.682 2.49c-.73-.457-1.513-.826-2.352-1.11-.838-.28-1.695-.423-2.57-.423-.93 0-1.718.237-2.365.71-.646.475-.97 1.186-.97 2.134 0 .565.22 1.094.656 1.586.438.492 1.163.816 2.174.97.265.046.584.097.957.15.374.047.802.097 1.285.152 1.86.227 3.232.902 4.116 2.023.893 1.12 1.34 2.36 1.34 3.718 0 1.832-.634 3.254-1.9 4.265-1.268 1.012-2.968 1.518-5.1 1.518-3 0-5.538-.91-7.616-2.733M247.346 78.162h3.185c-.39 1.86-1.23 3.282-2.514 4.266-1.286.975-2.78 1.463-4.485 1.463-1.567 0-2.884-.373-3.95-1.12-1.057-.757-1.818-1.572-2.283-2.447-.328-.584-.556-1.222-.684-1.914-.127-.694-.19-2.24-.19-4.636 0-2.397.063-3.942.19-4.635.128-.694.356-1.332.684-1.915.465-.866 1.226-1.682 2.283-2.447 1.066-.766 2.383-1.15 3.95-1.15 1.888 0 3.447.585 4.677 1.75 1.24 1.16 2.014 2.544 2.324 4.158h-3.184c-.246-.766-.707-1.436-1.38-2.01-.667-.574-1.478-.862-2.435-.862-.71 0-1.325.146-1.844.438-.52.292-.93.63-1.23 1.012-.393.51-.662 1.07-.808 1.68-.136.612-.205 1.938-.205 3.98 0 2.05.07 3.38.205 3.992.146.61.415 1.162.807 1.654.3.4.71.748 1.23 1.04.52.282 1.135.423 1.846.423 1.678 0 2.95-.907 3.816-2.72M264.102 83.727v-8.695H256.2v8.695h-3.022v-19.92h3.02v8.53h7.904v-8.53h3.02v19.92h-3.02M268.867 83.713l7.274-19.933h2.49l7.272 19.933h-3.172l-1.53-4.498h-7.56l-1.587 4.498h-3.186m5.66-7.164h5.77c-.42-1.23-.752-2.193-.998-2.886l-.63-1.86c-.173-.537-.35-1.084-.533-1.64-.183-.556-.424-1.307-.725-2.255-.32.983-.574 1.77-.766 2.364-.19.583-.378 1.148-.56 1.695-.173.546-.378 1.157-.615 1.83-.227.676-.542 1.592-.943 2.75M288.28 83.727v-19.92h12.74v2.857h-9.72v5.866h8.286v2.693H291.3v8.504h-3.02M308.496 83.727v-17.24h-5.455v-2.68h13.933v2.68h-5.455v17.24h-3.022" font-size="22.4" font-weight="bold" letter-spacing="0" word-spacing="0" font-family="Alte DIN 1451 Mittelschrift"/></svg>