<?xml version="1.0" encoding="UTF-8" standalone="no"?>
<svg
   xmlns:dc="http://purl.org/dc/elements/1.1/"
   xmlns:cc="http://creativecommons.org/ns#"
   xmlns:rdf="http://www.w3.org/1999/02/22-rdf-syntax-ns#"
   xmlns:svg="http://www.w3.org/2000/svg"
   xmlns="http://www.w3.org/2000/svg"
   xml:space="preserve"
   id="svg4015"
   height="71.546875"
   width="200.42731"
   version="1.1"><metadata
     id="metadata4021"><rdf:RDF><cc:Work
         rdf:about=""><dc:format>image/svg+xml</dc:format><dc:type
           rdf:resource="http://purl.org/dc/dcmitype/StillImage" /><dc:title></dc:title></cc:Work></rdf:RDF></metadata><defs
     id="defs4019"><clipPath
       id="clipPath4031"><path
         id="path4033"
         d="m 0,0 1969,0 0,932.852 -1969,0 L 0,0 Z" /></clipPath><clipPath
       id="clipPath4041"><path
         id="path4043"
         d="m 749.898,466.41 c 0,-156.555 -126.91,-283.469 -283.472,-283.469 -156.543,0 -283.461,126.914 -283.461,283.469 0,156.547 126.918,283.457 283.461,283.457 156.562,0 283.472,-126.91 283.472,-283.457 z" /></clipPath><clipPath
       id="clipPath4113"><path
         id="path4115"
         d="M 0,0 0,933 1969,933 1969,0 0,0 Z" /></clipPath></defs><g
     id="g4023"
     transform="matrix(1.25,0,0,-1.25,-22.870625,94.4145)"><g
       id="g4025"
       transform="scale(0.1,0.1)"><g
         id="g4027"><g
           id="g4029"
           clip-path="url(#clipPath4031)"><path
             style="fill:#7c7f80;fill-opacity:1;fill-rule:nonzero;stroke:none"
             id="path4035"
             d="m 749.898,466.41 c 0,-156.555 -126.91,-283.469 -283.472,-283.469 -156.543,0 -283.461,126.914 -283.461,283.469 0,156.547 126.918,283.457 283.461,283.457 156.562,0 283.472,-126.91 283.472,-283.457" /></g></g><g
         id="g4037"><g
           id="g4039"
           clip-path="url(#clipPath4041)"><path
             style="fill:none;stroke:#ffffff;stroke-width:10;stroke-linecap:butt;stroke-linejoin:miter;stroke-miterlimit:10;stroke-dasharray:none;stroke-opacity:1"
             id="path4045"
             d="M 385.473,625.023 63.3984,923.461" /><path
             style="fill:#ffffff;fill-opacity:1;fill-rule:nonzero;stroke:none"
             id="path4047"
             d="m 400.805,641.574 c 9.136,-8.469 9.683,-22.746 1.215,-31.883 -8.465,-9.132 -22.743,-9.679 -31.879,-1.214 -9.133,8.468 -9.68,22.746 -1.215,31.878 8.469,9.137 22.746,9.684 31.879,1.219" /><path
             style="fill:none;stroke:#ffffff;stroke-width:10;stroke-linecap:butt;stroke-linejoin:miter;stroke-miterlimit:10;stroke-dasharray:none;stroke-opacity:1"
             id="path4049"
             d="m 385.473,625.023 65.425,236.68" /><path
             style="fill:#ffffff;fill-opacity:1;fill-rule:nonzero;stroke:none"
             id="path4051"
             d="m 407.219,619.016 c -3.324,-12.008 -15.75,-19.055 -27.754,-15.735 -12.008,3.321 -19.055,15.746 -15.735,27.754 3.321,12.008 15.747,19.055 27.754,15.735 12.008,-3.321 19.051,-15.75 15.735,-27.754" /><path
             style="fill:none;stroke:#ffffff;stroke-width:10;stroke-linecap:butt;stroke-linejoin:miter;stroke-miterlimit:10;stroke-dasharray:none;stroke-opacity:1"
             id="path4053"
             d="M 92.2031,450.062 385.473,625.023" /><path
             style="fill:none;stroke:#ffffff;stroke-width:10;stroke-linecap:butt;stroke-linejoin:miter;stroke-miterlimit:10;stroke-dasharray:none;stroke-opacity:1"
             id="path4055"
             d="M 297.988,406.223 -7.91797,140.539" /><path
             style="fill:#ffffff;fill-opacity:1;fill-rule:nonzero;stroke:none"
             id="path4057"
             d="m 283.199,423.254 c 9.403,8.164 23.653,7.168 31.821,-2.238 8.168,-9.403 7.168,-23.661 -2.243,-31.825 -9.402,-8.164 -23.652,-7.168 -31.82,2.235 -8.168,9.406 -7.168,23.664 2.242,31.828" /><path
             style="fill:none;stroke:#ffffff;stroke-width:10;stroke-linecap:butt;stroke-linejoin:miter;stroke-miterlimit:10;stroke-dasharray:none;stroke-opacity:1"
             id="path4059"
             d="m -108.418,632.973 493.891,-7.95" /><path
             style="fill:none;stroke:#ffffff;stroke-width:10;stroke-linecap:butt;stroke-linejoin:miter;stroke-miterlimit:10;stroke-dasharray:none;stroke-opacity:1"
             id="path4061"
             d="M 385.473,625.023 643.102,546.117" /><path
             style="fill:#ffffff;fill-opacity:1;fill-rule:nonzero;stroke:none"
             id="path4063"
             d="m 378.867,603.457 c -11.91,3.648 -18.613,16.266 -14.961,28.176 3.649,11.906 16.266,18.613 28.172,14.961 11.91,-3.649 18.613,-16.266 14.965,-28.176 -3.648,-11.91 -16.266,-18.613 -28.176,-14.961" /><path
             style="fill:none;stroke:#ffffff;stroke-width:10;stroke-linecap:butt;stroke-linejoin:miter;stroke-miterlimit:10;stroke-dasharray:none;stroke-opacity:1"
             id="path4065"
             d="m 297.988,406.223 203.313,60.988" /><path
             style="fill:#ffffff;fill-opacity:1;fill-rule:nonzero;stroke:none"
             id="path4067"
             d="m 304.473,384.609 c -11.934,-3.574 -24.512,3.196 -28.09,15.129 -3.578,11.934 3.191,24.512 15.121,28.094 11.934,3.574 24.512,-3.191 28.09,-15.125 3.582,-11.934 -3.192,-24.512 -15.121,-28.098" /><path
             style="fill:none;stroke:#ffffff;stroke-width:10;stroke-linecap:butt;stroke-linejoin:miter;stroke-miterlimit:10;stroke-dasharray:none;stroke-opacity:1"
             id="path4069"
             d="M 492.637,287.59 643.102,546.117" /><path
             style="fill:#ffffff;fill-opacity:1;fill-rule:nonzero;stroke:none"
             id="path4071"
             d="m 512.133,276.242 c -6.266,-10.762 -20.078,-14.414 -30.844,-8.144 -10.766,6.257 -14.414,20.066 -8.148,30.84 6.261,10.761 20.078,14.414 30.843,8.144 10.766,-6.262 14.414,-20.07 8.149,-30.84" /><path
             style="fill:none;stroke:#ffffff;stroke-width:10;stroke-linecap:butt;stroke-linejoin:miter;stroke-miterlimit:10;stroke-dasharray:none;stroke-opacity:1"
             id="path4073"
             d="M -7.91797,140.539 492.637,287.59" /><path
             style="fill:none;stroke:#ffffff;stroke-width:10;stroke-linecap:butt;stroke-linejoin:miter;stroke-miterlimit:10;stroke-dasharray:none;stroke-opacity:1"
             id="path4075"
             d="M 385.473,625.023 768.398,801.781" /><path
             style="fill:#ffffff;fill-opacity:1;fill-rule:nonzero;stroke:none"
             id="path4077"
             d="m 394.926,604.543 c -11.309,-5.223 -24.711,-0.285 -29.938,11.027 -5.218,11.309 -0.281,24.715 11.032,29.938 11.308,5.219 24.71,0.285 29.937,-11.031 5.219,-11.309 0.281,-24.711 -11.031,-29.934" /><path
             style="fill:none;stroke:#ffffff;stroke-width:10;stroke-linecap:butt;stroke-linejoin:miter;stroke-miterlimit:10;stroke-dasharray:none;stroke-opacity:1"
             id="path4079"
             d="M 492.637,287.59 603.398,48.5273" /><path
             style="fill:#ffffff;fill-opacity:1;fill-rule:nonzero;stroke:none"
             id="path4081"
             d="m 472.168,278.105 c -5.234,11.301 -0.316,24.719 10.984,29.954 11.305,5.234 24.715,0.312 29.953,-10.989 5.235,-11.297 0.317,-24.715 -10.988,-29.949 -11.301,-5.234 -24.711,-0.312 -29.949,10.984" /><path
             style="fill:none;stroke:#ffffff;stroke-width:10;stroke-linecap:butt;stroke-linejoin:miter;stroke-miterlimit:10;stroke-dasharray:none;stroke-opacity:1"
             id="path4083"
             d="M 603.398,48.5273 643.102,546.117" /><path
             style="fill:none;stroke:#ffffff;stroke-width:10;stroke-linecap:butt;stroke-linejoin:miter;stroke-miterlimit:10;stroke-dasharray:none;stroke-opacity:1"
             id="path4085"
             d="m 297.988,406.223 87.485,218.8" /><path
             style="fill:#ffffff;fill-opacity:1;fill-rule:nonzero;stroke:none"
             id="path4087"
             d="m 318.938,397.844 c -4.626,-11.563 -17.754,-17.188 -29.325,-12.571 -11.566,4.629 -17.195,17.754 -12.574,29.329 4.625,11.562 17.758,17.187 29.324,12.566 11.567,-4.629 17.196,-17.754 12.575,-29.324" /><path
             style="fill:none;stroke:#ffffff;stroke-width:10;stroke-linecap:butt;stroke-linejoin:miter;stroke-miterlimit:10;stroke-dasharray:none;stroke-opacity:1"
             id="path4089"
             d="M 501.301,467.211 385.473,625.023" /><path
             style="fill:#ffffff;fill-opacity:1;fill-rule:nonzero;stroke:none"
             id="path4091"
             d="m 519.48,480.562 c 7.375,-10.042 5.208,-24.164 -4.832,-31.539 -10.043,-7.367 -24.164,-5.199 -31.535,4.84 -7.371,10.043 -5.203,24.164 4.836,31.539 10.043,7.368 24.164,5.2 31.531,-4.84" /><path
             style="fill:none;stroke:#ffffff;stroke-width:10;stroke-linecap:butt;stroke-linejoin:miter;stroke-miterlimit:10;stroke-dasharray:none;stroke-opacity:1"
             id="path4093"
             d="M 643.102,546.117 843.398,86.7891" /><path
             style="fill:#ffffff;fill-opacity:1;fill-rule:nonzero;stroke:none"
             id="path4095"
             d="m 622.422,537.102 c -4.981,11.418 0.246,24.714 11.66,29.695 11.422,4.98 24.719,-0.242 29.695,-11.66 4.985,-11.422 -0.242,-24.715 -11.66,-29.696 -11.418,-4.98 -24.715,0.243 -29.695,11.661" /><path
             style="fill:none;stroke:#ffffff;stroke-width:10;stroke-linecap:butt;stroke-linejoin:miter;stroke-miterlimit:10;stroke-dasharray:none;stroke-opacity:1"
             id="path4097"
             d="M 492.637,287.59 125.898,-329.047" /><path
             style="fill:#ffffff;fill-opacity:1;fill-rule:nonzero;stroke:none"
             id="path4099"
             d="m 473.246,299.121 c 6.367,10.703 20.215,14.219 30.926,7.852 10.699,-6.368 14.223,-20.203 7.855,-30.918 -6.367,-10.703 -20.215,-14.219 -30.922,-7.852 -10.707,6.367 -14.226,20.207 -7.859,30.918" /><path
             style="fill:none;stroke:#ffffff;stroke-width:10;stroke-linecap:butt;stroke-linejoin:miter;stroke-miterlimit:10;stroke-dasharray:none;stroke-opacity:1"
             id="path4101"
             d="M 768.398,801.781 643.102,546.117" /><path
             style="fill:none;stroke:#ffffff;stroke-width:10;stroke-linecap:butt;stroke-linejoin:miter;stroke-miterlimit:10;stroke-dasharray:none;stroke-opacity:1"
             id="path4103"
             d="M 297.988,406.223 492.637,287.59" /><path
             style="fill:none;stroke:#ffffff;stroke-width:10;stroke-linecap:butt;stroke-linejoin:miter;stroke-miterlimit:10;stroke-dasharray:none;stroke-opacity:1"
             id="path4105"
             d="M 501.301,467.211 492.637,287.59" /><path
             style="fill:none;stroke:#ffffff;stroke-width:10;stroke-linecap:butt;stroke-linejoin:miter;stroke-miterlimit:10;stroke-dasharray:none;stroke-opacity:1"
             id="path4107"
             d="m 501.301,467.211 141.801,78.906" /></g></g><g
         id="g4109"><g
           id="g4111"
           clip-path="url(#clipPath4113)"><path
             style="fill:#367fb0;fill-opacity:1;fill-rule:nonzero;stroke:none"
             id="path4117"
             d="m 1697.27,466.41 86.28,117.453 c 6.06,8.762 2.06,17.528 -8.76,17.528 l -24.99,0 c -4.04,0 -8.08,-3.368 -10.11,-6.075 l -71.55,-95.976 -0.66,0 -70.19,96.652 c -2.02,2.703 -6.1,5.399 -10.81,5.399 l -24.98,0 c -11.46,0 -14.84,-8.766 -8.77,-17.528 l 88.32,-117.453 -88.32,-117.453 c -6.07,-8.75 -2.69,-17.5 8.77,-17.5 l 24.98,0 c 4.71,0 8.79,2.676 10.81,5.371 l 70.19,96.664 0.66,0 71.55,-96 c 2.03,-2.695 6.07,-6.035 10.11,-6.035 l 24.99,0 c 10.82,0 14.82,8.75 8.76,17.5 l -86.28,117.453" /><path
             style="fill:#367fb0;fill-opacity:1;fill-rule:nonzero;stroke:none"
             id="path4119"
             d="m 1439.55,723.031 c 0,18.145 14.12,32.285 31.6,32.285 18.17,0 32.25,-14.14 32.25,-32.285 0,-17.488 -14.08,-31.59 -32.25,-31.59 -17.48,0 -31.6,14.102 -31.6,31.59" /><path
             style="fill:#367fb0;fill-opacity:1;fill-rule:nonzero;stroke:none"
             id="path4121"
             d="m 1448.2,588.582 c 0,6.734 6.06,12.809 12.82,12.809 l 20.89,0 c 6.76,0 12.84,-6.075 12.84,-12.809 l 0,-244.332 c 0,-6.758 -6.08,-12.793 -12.84,-12.793 l -20.89,0 c -6.76,0 -12.82,6.035 -12.82,12.793 l 0,244.332" /><path
             style="fill:#367fb0;fill-opacity:1;fill-rule:nonzero;stroke:none"
             id="path4123"
             d="m 959.895,564.156 c 46.305,0 85.105,-32.422 95.125,-75.722 l -190.262,0 c 10.039,43.3 48.828,75.722 95.137,75.722 z M 1079.61,444.41 c 12.15,0 22,9.848 22,22 l 0,0 c 0,78.281 -63.46,141.738 -141.727,141.738 -78.274,0 -141.731,-63.457 -141.731,-141.738 0,-78.254 63.457,-141.711 141.731,-141.711 49.637,0 93.207,25.586 118.487,64.227 2.12,3.234 2.29,7.363 0.46,10.762 -1.84,3.398 -5.39,5.519 -9.25,5.519 l -20.83,0 c -7.62,0 -14.93,-3 -20.36,-8.352 -17.64,-17.382 -41.828,-28.152 -68.507,-28.152 -46.321,0 -85.117,32.402 -95.137,75.715 l 214.864,-0.008" /><path
             style="fill:#367fb0;fill-opacity:1;fill-rule:nonzero;stroke:none"
             id="path4125"
             d="m 1368.61,405.031 c -4.55,3.153 -10.73,2.332 -14.32,-1.886 -17.93,-21.055 -44.59,-34.442 -74.35,-34.442 -53.89,0 -97.72,43.836 -97.72,97.723 0,53.886 43.83,97.726 97.72,97.726 26.92,0 51.31,-10.945 69.01,-28.613 3.91,-3.906 10.16,-4.227 14.43,-0.715 l 17.48,14.332 c 2.33,1.914 3.75,4.711 3.93,7.719 0.17,3.008 -0.93,5.949 -3.03,8.109 -25.76,26.618 -61.85,43.172 -101.82,43.172 -78.27,0 -141.73,-63.457 -141.73,-141.73 0,-78.27 63.46,-141.727 141.73,-141.727 44.1,0 83.43,20.176 109.43,51.766 1.91,2.324 2.76,5.344 2.35,8.332 -0.42,2.976 -2.06,5.664 -4.53,7.371 l -18.58,12.863" /></g></g></g></g></svg>