<?xml version="1.0" encoding="utf-8"?>
<!-- Generator: Adobe Illustrator 19.0.0, SVG Export Plug-In . SVG Version: 6.00 Build 0)  -->
<svg version="1.1" id="Layer_1" xmlns="http://www.w3.org/2000/svg" xmlns:xlink="http://www.w3.org/1999/xlink" x="0px" y="0px"
	 viewBox="0 0 218.4 158.2" style="enable-background:new 0 0 218.4 158.2;" xml:space="preserve">
<style type="text/css">
	.st0{fill:none;}
	.st1{fill:none;stroke:#FFFFFF;stroke-width:2.4703;stroke-miterlimit:3.8637;}
	.st2{fill:#FFFFFF;}
	.st3{fill:none;stroke:#FFFFFF;stroke-width:14.8382;stroke-miterlimit:3.8637;}
</style>
<g id="XMLID_1_">
	<path id="XMLID_17_" class="st0" d="M-10,104.2c0-34.7,28.2-62.9,62.9-62.9c34.7,0,62.9,28.2,62.9,62.9s-28.2,62.9-62.9,62.9
		C18.1,167.1-10,138.9-10,104.2L-10,104.2z"/>
	<path id="XMLID_16_" class="st0" d="M49.4,79.3c0-50.5,40.8-91.5,91.1-91.5c50.3,0,91.1,41,91.1,91.5s-40.8,91.5-91.1,91.5
		C90.2,170.8,49.4,129.8,49.4,79.3L49.4,79.3z"/>
	<path id="XMLID_15_" class="st1" d="M3.6,104.2c0-27.3,22-49.5,49.2-49.5s49.2,22.1,49.2,49.5c0,27.3-22,49.5-49.2,49.5
		S3.6,131.5,3.6,104.2L3.6,104.2z"/>
	<polygon id="XMLID_14_" class="st2" points="116,92.9 136.8,72 156.5,72 142.6,86 170.4,85.9 170.4,99.9 142.6,99.9 156.5,113.9 
		136.8,113.9 116,92.9 	"/>
	<polygon id="XMLID_13_" class="st2" points="54.2,92.9 41.8,80.6 30.2,80.6 38.4,88.8 22,88.8 22,97.1 38.4,97.1 30.2,105.3 
		41.8,105.3 54.2,92.9 	"/>
	<path id="XMLID_12_" class="st3" d="M71.6,79.3C71.6,41,102.5,10,140.5,10c38.1,0,68.9,31,68.9,69.2c0,38.2-30.9,69.2-68.9,69.2
		C102.5,148.5,71.6,117.5,71.6,79.3L71.6,79.3z"/>
	<path id="XMLID_11_" class="st1" d="M87.7,79.3c0-29.3,23.7-53.1,52.8-53.1c29.2,0,52.8,23.8,52.8,53.1s-23.7,53.1-52.8,53.1
		C111.4,132.3,87.7,108.6,87.7,79.3L87.7,79.3z"/>
</g>
</svg>
