<svg id="Layer_1" xmlns="http://www.w3.org/2000/svg" viewBox="0 0 218.4 158.2"><style>.st0{fill:none;} .st1{fill:none;stroke:#FFFFFF;stroke-width:2.4703;stroke-miterlimit:3.8637;} .st2{fill:#FFFFFF;} .st3{fill:none;stroke:#FFFFFF;stroke-width:14.8382;stroke-miterlimit:3.8637;}</style><g id="XMLID_1_"><path id="XMLID_17_" class="st0" d="M-10 104.2c0-34.7 28.2-62.9 62.9-62.9s62.9 28.2 62.9 62.9-28.2 62.9-62.9 62.9c-34.8 0-62.9-28.2-62.9-62.9z"/><path id="XMLID_16_" class="st0" d="M49.4 79.3c0-50.5 40.8-91.5 91.1-91.5s91.1 41 91.1 91.5-40.8 91.5-91.1 91.5-91.1-41-91.1-91.5z"/><path id="XMLID_15_" class="st1" d="M3.6 104.2c0-27.3 22-49.5 49.2-49.5S102 76.8 102 104.2c0 27.3-22 49.5-49.2 49.5S3.6 131.5 3.6 104.2z"/><path id="XMLID_14_" class="st2" d="M116 92.9L136.8 72h19.7l-13.9 14 27.8-.1v14h-27.8l13.9 14h-19.7l-20.8-21z"/><path id="XMLID_13_" class="st2" d="M54.2 92.9L41.8 80.6H30.2l8.2 8.2H22v8.3h16.4l-8.2 8.2h11.6l12.4-12.4z"/><path id="XMLID_12_" class="st3" d="M71.6 79.3C71.6 41 102.5 10 140.5 10c38.1 0 68.9 31 68.9 69.2s-30.9 69.2-68.9 69.2c-38 .1-68.9-30.9-68.9-69.1z"/><path id="XMLID_11_" class="st1" d="M87.7 79.3c0-29.3 23.7-53.1 52.8-53.1 29.2 0 52.8 23.8 52.8 53.1s-23.7 53.1-52.8 53.1c-29.1-.1-52.8-23.8-52.8-53.1z"/></g></svg>