<svg xmlns="http://www.w3.org/2000/svg" viewBox="0 0 1813.3333 832" height="832" width="1813.333"><path d="M0 832h1813.333V0H0z" fill="#283a81"/><path d="M35.26 47.037v21.66l22.162 1.51 16.622 2.015 12.088 2.52 8.06 4.028 5.038 5.542 2.517 7.554 1.512 10.58V510.947l-1.513 10.578-2.517 8.06-5.038 5.54-8.06 4.03-12.088 2.518-16.622 2.014L35.26 545.2v21.66h221.628V545.2l-25.69-1.512-19.14-2.014-14.103-2.518-9.57-4.03-6.045-5.54-3.525-8.06-1.008-10.578-.504-14.104V321.052h105.275l21.154 1.008 16.623 2.517 12.09 4.535 8.562 7.05 6.045 9.068 4.028 11.082 2.52 14.102 2.52 16.623h22.666v-160.68H356.12l-2.52 16.62-2.52 14.104-4.028 11.586-6.045 9.067-8.563 6.548-12.09 4.534-16.622 2.52-21.154 1.007H177.303V91.867l1.008-6.548 1.008-4.533 2.52-3.525 3.525-2.016 5.036-1.51 6.548-.504h98.223l14.104 1.007 12.592 1.007 11.082 2.016 10.074 2.518 8.562 3.022 7.556 4.03 6.548 4.532 6.044 5.542 5.038 6.548 4.03 8.058 3.526 8.564 3.02 9.57 3.024 11.082 2.016 12.592 2.013 13.6h22.666V47.038zM1220.474 197.645v21.658l22.16 1.51 16.624 2.017 12.088 2.52 8.06 4.028 5.037 5.54 2.52 7.556 1.51 10.577V661.556l-1.51 10.578-2.52 8.06-5.037 5.54-8.06 4.03-12.088 2.518-16.623 2.017-22.16 1.51v21.66h221.628v-21.66l-25.69-1.51-19.14-2.016-14.104-2.517-9.57-4.03-6.045-5.54-3.526-8.06-1.01-10.578-.502-14.105V471.66h105.273l21.157 1.007 16.623 2.518 12.09 4.534 8.562 7.05 6.044 9.067 4.03 11.082 2.518 14.1 2.52 16.623H1564v-160.68h-22.666l-2.52 16.623-2.52 14.103-4.028 11.584-6.044 9.067-8.563 6.55-12.09 4.532-16.623 2.52-21.156 1.005H1362.52V242.473l1.007-6.547 1.008-4.533 2.518-3.527 3.527-2.015 5.037-1.51 6.548-.503h98.223l14.102 1.008 12.594 1.006 11.082 2.016 10.075 2.52 8.562 3.02 7.554 4.03 6.55 4.534 6.043 5.54 5.038 6.55 4.028 8.058 3.526 8.564 3.022 9.57 3.02 11.082 2.017 12.592 2.014 13.6h22.667v-119.88zM1120.237 197.645h-97.72l20.652-85.127 5.542-19.644 5.538-16.62 5.542-13.603 6.044-10.576 6.045-8.06 6.55-5.54 7.05-3.023 7.557-1.005 7.052 1.006 7.05 2.017 6.548 4.03 6.044 6.044 5.54 7.053 6.046 9.066 6.044 11.08 6.044 12.594 3.024 5.036 4.028 4.03 5.542 2.52 7.554 1.006 6.044-.504 6.046-2.015 6.044-3.022 6.044-4.03 5.037-4.533 4.03-6.044 2.518-6.045 1.007-7.05-2.015-11.586-5.037-11.082-8.06-10.074-10.577-8.562-13.096-7.052-14.104-5.54-16.118-3.527-16.622-1.007-17.63 1.006-16.118 2.518-14.608 4.533-13.096 6.045-12.592 7.556-11.082 8.564-10.578 10.075-9.57 11.584-4.03 5.54-4.534 6.044-3.525 6.045-4.03 6.044-3.527 6.548-3.02 7.052-3.527 6.548-3.024 7.052-3.02 7.052-2.52 7.555-2.518 7.052-2.52 7.555-2.52 7.556-2.516 7.052-2.015 7.555-2.015 7.556-7.556 27.705H888.03l-8.564 28.71h66.992l-87.14 442.758-3.526 15.613-3.023 12.09-3.022 9.065-3.023 6.55-3.02 4.028-3.024 2.52-2.518 1.007-3.02.505-3.024-.505-3.525-1.008-4.03-2.014-4.534-3.525-5.54-4.535-5.542-6.55-6.548-8.056-7.052-10.578-2.015-3.025-2.015-2.518-2.518-3.02-2.015-2.52-3.02-2.52-2.52-1.51-3.024-1.008-3.524-.503-6.044 1.008-6.046 2.012-6.044 4.032-5.037 4.532-4.533 6.044-3.022 6.045-2.016 7.053-1.006 7.052 1.51 9.066 4.534 8.06 6.55 7.555 8.56 6.044 10.075 5.54 11.587 3.527 12.592 2.518 13.096 1.008 13.598-.506 12.595-2.517 12.088-3.527 10.58-5.036 10.575-7.052 9.066-8.057 9.068-10.076 8.06-11.585 7.555-13.6 7.555-15.112 7.052-16.622 6.548-18.636 6.044-20.653 6.045-22.16 6.045-24.18 6.044-26.192 70.015-316.327h94.695zM661.362 376.46l.504-12.593 1.512-10.075 2.517-7.556 5.038-5.54 7.556-3.525 10.576-2.518 13.6-1.512 18.133-1.006v-28.208H481.54v28.208l18.133 1.006 13.6 1.512 10.578 2.52 7.557 3.524 5.038 5.54 2.517 7.556 1.512 10.075.503 12.592v374.25l-.503 12.594-1.512 10.074-2.517 7.554-5.038 5.542L523.85 790l-10.576 2.518-13.6 1.51-18.133 1.008v28.71H720.8v-28.71l-18.133-1.008-13.6-1.51L678.488 790l-7.557-3.526-5.038-5.542-2.517-7.554-1.512-10.074-.504-12.593zM306.25 521.526l4.535.503 4.533 1.512 3.525 2.012 3.527 2.52 2.517 3.525 2.016 3.525 1.51 4.534.505 4.533-.504 4.533-1.51 4.535-2.017 3.523-2.517 3.527-3.527 2.52-3.525 2.013-4.533 1.51-4.534.506-4.53-.506-4.535-1.51-3.526-2.013-3.527-2.52-2.52-3.527-2.012-3.522-1.51-4.534-.505-4.533.504-4.534 1.51-4.535 2.014-3.526 2.52-3.527 3.525-2.52 3.525-2.01 4.534-1.514z" fill="#fff" fill-rule="evenodd"/><path d="M306.25 521.526l4.535.503 4.533 1.512 3.525 2.012 3.527 2.52 2.517 3.525 2.016 3.525 1.51 4.534.505 4.533-.504 4.533-1.51 4.535-2.017 3.523-2.517 3.527-3.527 2.52-3.525 2.013-4.533 1.51-4.534.506-4.53-.506-4.535-1.51-3.526-2.013-3.527-2.52-2.52-3.527-2.012-3.522-1.51-4.534-.505-4.533.504-4.534 1.51-4.535 2.014-3.526 2.52-3.527 3.525-2.52 3.525-2.01 4.534-1.514z" fill="none" stroke="#fff" stroke-width="1.5106628899999999" stroke-linecap="round" stroke-linejoin="round"/><path d="M395.91 521.526l4.533.503 4.535 1.512 3.525 2.012 3.527 2.52 2.52 3.525 2.012 3.525 1.512 4.534.504 4.533-.504 4.533-1.512 4.535-2.013 3.523-2.52 3.527-3.527 2.52-3.525 2.013-4.535 1.51-4.532.506-4.532-.506-4.535-1.51-3.525-2.013-3.525-2.52-2.52-3.527-2.014-3.522-1.513-4.534-.502-4.533.502-4.534 1.512-4.535 2.014-3.526 2.52-3.527 3.524-2.52 3.525-2.01 4.535-1.514z" fill="#fff" fill-rule="evenodd"/><path d="M395.91 521.526l4.533.503 4.535 1.512 3.525 2.012 3.527 2.52 2.52 3.525 2.012 3.525 1.512 4.534.504 4.533-.504 4.533-1.512 4.535-2.013 3.523-2.52 3.527-3.527 2.52-3.525 2.013-4.535 1.51-4.532.506-4.532-.506-4.535-1.51-3.525-2.013-3.525-2.52-2.52-3.527-2.014-3.522-1.513-4.534-.502-4.533.502-4.534 1.512-4.535 2.014-3.526 2.52-3.527 3.524-2.52 3.525-2.01 4.535-1.514z" fill="none" stroke="#fff" stroke-width="1.5106628899999999" stroke-linecap="round" stroke-linejoin="round"/><path d="M487.585 521.526l4.533.503 4.533 1.512 3.527 2.012 3.526 2.52 2.518 3.525 2.017 3.525 1.51 4.534.504 4.533-.503 4.533-1.51 4.535-2.016 3.523-2.517 3.527-3.526 2.52-3.526 2.013-4.532 1.51-4.533.506-4.532-.506-4.535-1.51-3.525-2.013-3.527-2.52-2.52-3.527-2.012-3.522-1.512-4.534-.504-4.533.504-4.534 1.512-4.535 2.013-3.526 2.52-3.527 3.526-2.52 3.525-2.01 4.535-1.514z" fill="#fff" fill-rule="evenodd"/><path d="M487.585 521.526l4.533.503 4.533 1.512 3.527 2.012 3.526 2.52 2.518 3.525 2.017 3.525 1.51 4.534.504 4.533-.503 4.533-1.51 4.535-2.016 3.523-2.517 3.527-3.526 2.52-3.526 2.013-4.532 1.51-4.533.506-4.532-.506-4.535-1.51-3.525-2.013-3.527-2.52-2.52-3.527-2.012-3.522-1.512-4.534-.504-4.533.504-4.534 1.512-4.535 2.013-3.526 2.52-3.527 3.526-2.52 3.525-2.01 4.535-1.514z" fill="none" stroke="#fff" stroke-width="1.5106628899999999" stroke-linecap="round" stroke-linejoin="round"/><path d="M709.215 521.526l4.532.503 4.534 1.512 3.527 2.012 3.526 2.52 2.52 3.525 2.012 3.525 1.512 4.534.504 4.533-.503 4.533-1.512 4.535-2.013 3.523-2.52 3.527-3.525 2.52-3.526 2.013-4.533 1.51-4.532.506-4.534-.506-4.533-1.51-3.526-2.013-3.524-2.52-2.52-3.527-2.013-3.522-1.512-4.534-.502-4.533.503-4.534 1.513-4.535 2.014-3.526 2.52-3.527 3.524-2.52 3.527-2.01 4.534-1.514z" fill="#fff" fill-rule="evenodd"/><path d="M709.215 521.526l4.532.503 4.534 1.512 3.527 2.012 3.526 2.52 2.52 3.525 2.012 3.525 1.512 4.534.504 4.533-.503 4.533-1.512 4.535-2.013 3.523-2.52 3.527-3.525 2.52-3.526 2.013-4.533 1.51-4.532.506-4.534-.506-4.533-1.51-3.526-2.013-3.524-2.52-2.52-3.527-2.013-3.522-1.512-4.534-.502-4.533.503-4.534 1.513-4.535 2.014-3.526 2.52-3.527 3.524-2.52 3.527-2.01 4.534-1.514z" fill="none" stroke="#fff" stroke-width="1.5106628899999999" stroke-linecap="round" stroke-linejoin="round"/><path d="M819.525 521.526l4.533.503 4.535 1.512 3.525 2.012 3.527 2.52 2.517 3.525 2.015 3.525 1.512 4.534.5 4.533-.5 4.533-1.513 4.535-2.015 3.523-2.517 3.527-3.527 2.52-3.525 2.013-4.535 1.51-4.533.506-4.534-.506-4.532-1.51-3.525-2.013-3.527-2.52-2.52-3.527-2.012-3.522-1.512-4.534-.504-4.533.504-4.534 1.512-4.535 2.013-3.526 2.52-3.527 3.526-2.52 3.525-2.01 4.533-1.514z" fill="#fff" fill-rule="evenodd"/><path d="M819.525 521.526l4.533.503 4.535 1.512 3.525 2.012 3.527 2.52 2.517 3.525 2.015 3.525 1.512 4.534.5 4.533-.5 4.533-1.513 4.535-2.015 3.523-2.517 3.527-3.527 2.52-3.525 2.013-4.535 1.51-4.533.506-4.534-.506-4.532-1.51-3.525-2.013-3.527-2.52-2.52-3.527-2.012-3.522-1.512-4.534-.504-4.533.504-4.534 1.512-4.535 2.013-3.526 2.52-3.527 3.526-2.52 3.525-2.01 4.533-1.514z" fill="none" stroke="#fff" stroke-width="1.5106628899999999" stroke-linecap="round" stroke-linejoin="round"/><path d="M1024.03 521.526l4.532.503 4.535 1.512 3.524 2.012 3.527 2.52 2.52 3.525 2.012 3.525 1.51 4.534.505 4.533-.504 4.533-1.51 4.535-2.013 3.523-2.52 3.527-3.526 2.52-3.523 2.013-4.535 1.51-4.533.506-4.535-.506-4.533-1.51-3.525-2.013-3.527-2.52-2.52-3.527-2.012-3.522-1.512-4.534-.504-4.533.504-4.534 1.512-4.535 2.013-3.526 2.52-3.527 3.527-2.52 3.525-2.01 4.533-1.514z" fill="#fff" fill-rule="evenodd"/><path d="M1024.03 521.526l4.532.503 4.535 1.512 3.524 2.012 3.527 2.52 2.52 3.525 2.012 3.525 1.51 4.534.505 4.533-.504 4.533-1.51 4.535-2.013 3.523-2.52 3.527-3.526 2.52-3.523 2.013-4.535 1.51-4.533.506-4.535-.506-4.533-1.51-3.525-2.013-3.527-2.52-2.52-3.527-2.012-3.522-1.512-4.534-.504-4.533.504-4.534 1.512-4.535 2.013-3.526 2.52-3.527 3.527-2.52 3.525-2.01 4.533-1.514z" fill="none" stroke="#fff" stroke-width="1.5106628899999999" stroke-linecap="round" stroke-linejoin="round"/><path d="M1133.333 521.526l4.532.503 4.534 1.512 3.524 2.012 3.527 2.52 2.52 3.525 2.014 3.525 1.51 4.534.506 4.533-.505 4.533-1.51 4.535-2.016 3.523-2.52 3.527-3.526 2.52-3.525 2.013-4.535 1.51-4.532.506-4.533-.506-4.535-1.51-3.525-2.013-3.527-2.52-2.518-3.527-2.015-3.522-1.51-4.534-.503-4.533.502-4.534 1.51-4.535 2.015-3.526 2.518-3.527 3.527-2.52 3.525-2.01 4.535-1.514z" fill="#fff" fill-rule="evenodd"/><path d="M1133.333 521.526l4.532.503 4.534 1.512 3.524 2.012 3.527 2.52 2.52 3.525 2.014 3.525 1.51 4.534.506 4.533-.505 4.533-1.51 4.535-2.016 3.523-2.52 3.527-3.526 2.52-3.525 2.013-4.535 1.51-4.532.506-4.533-.506-4.535-1.51-3.525-2.013-3.527-2.52-2.518-3.527-2.015-3.522-1.51-4.534-.503-4.533.502-4.534 1.51-4.535 2.015-3.526 2.518-3.527 3.527-2.52 3.525-2.01 4.535-1.514z" fill="none" stroke="#fff" stroke-width="1.5106628899999999" stroke-linecap="round" stroke-linejoin="round"/><path d="M1227.02 468.638l4.534.503 4.535 1.51 3.524 2.016 3.527 2.52 2.52 3.525 2.013 3.527 1.512 4.534.502 4.535-.502 4.53-1.512 4.535-2.014 3.525-2.52 3.527-3.526 2.52-3.525 2.013-4.536 1.51-4.533.506-4.533-.504-4.533-1.51-3.524-2.015-3.527-2.518-2.518-3.527-2.015-3.525-1.512-4.535-.504-4.53.504-4.534 1.512-4.533 2.015-3.526 2.518-3.525 3.527-2.52 3.524-2.014 4.533-1.51z" fill="#fff" fill-rule="evenodd"/><path d="M1227.02 468.638l4.534.503 4.535 1.51 3.524 2.016 3.527 2.52 2.52 3.525 2.013 3.527 1.512 4.534.502 4.535-.502 4.53-1.512 4.535-2.014 3.525-2.52 3.527-3.526 2.52-3.525 2.013-4.536 1.51-4.533.506-4.533-.504-4.533-1.51-3.524-2.015-3.527-2.518-2.518-3.527-2.015-3.525-1.512-4.535-.504-4.53.504-4.534 1.512-4.533 2.015-3.526 2.518-3.525 3.527-2.52 3.524-2.014 4.533-1.51z" fill="none" stroke="#fff" stroke-width="1.5106628899999999" stroke-linecap="round" stroke-linejoin="round"/><path d="M1668.266 429.35l4.533.502 4.534 1.51 3.525 2.015 3.524 2.52 2.52 3.525 2.012 3.526 1.514 4.534.502 4.534-.502 4.53-1.514 4.535-2.012 3.526-2.52 3.527-3.525 2.52-3.526 2.013-4.535 1.51-4.534.506-4.534-.505-4.533-1.51-3.526-2.015-3.527-2.52-2.52-3.526-2.012-3.525-1.512-4.534-.504-4.53.503-4.534 1.512-4.534 2.013-3.526 2.52-3.526 3.526-2.52 3.525-2.014 4.532-1.51z" fill="#fff" fill-rule="evenodd"/><path d="M1668.266 429.35l4.533.502 4.534 1.51 3.525 2.015 3.524 2.52 2.52 3.525 2.012 3.526 1.514 4.534.502 4.534-.502 4.53-1.514 4.535-2.012 3.526-2.52 3.527-3.525 2.52-3.526 2.013-4.535 1.51-4.534.506-4.534-.505-4.533-1.51-3.526-2.015-3.527-2.52-2.52-3.526-2.012-3.525-1.512-4.534-.504-4.53.503-4.534 1.512-4.534 2.013-3.526 2.52-3.526 3.526-2.52 3.525-2.014 4.532-1.51z" fill="none" stroke="#fff" stroke-width="1.5106628899999999" stroke-linecap="round" stroke-linejoin="round"/><path d="M1781.6 429.35l4.532.502 4.535 1.51 3.525 2.015 3.526 2.52 2.52 3.525 2.012 3.526 1.513 4.534.503 4.534-.503 4.53-1.513 4.535-2.012 3.526-2.52 3.527-3.526 2.52-3.525 2.013-4.535 1.51-4.533.506-4.534-.505-4.534-1.51-3.525-2.015-3.527-2.52-2.518-3.526-2.014-3.525-1.512-4.534-.504-4.53.504-4.534 1.512-4.534 2.014-3.526 2.518-3.526 3.527-2.52 3.525-2.014 4.534-1.51z" fill="#fff" fill-rule="evenodd"/><path d="M1781.6 429.35l4.532.502 4.535 1.51 3.525 2.015 3.526 2.52 2.52 3.525 2.012 3.526 1.513 4.534.503 4.534-.503 4.53-1.513 4.535-2.012 3.526-2.52 3.527-3.526 2.52-3.525 2.013-4.535 1.51-4.533.506-4.534-.505-4.534-1.51-3.525-2.015-3.527-2.52-2.518-3.526-2.014-3.525-1.512-4.534-.504-4.53.504-4.534 1.512-4.534 2.014-3.526 2.518-3.526 3.527-2.52 3.525-2.014 4.534-1.51z" fill="none" stroke="#fff" stroke-width="1.5106628899999999" stroke-linecap="round" stroke-linejoin="round"/></svg>
