<?xml version="1.0" encoding="UTF-8" standalone="no"?>
<svg width="316px" height="42px" viewBox="0 0 316 42" version="1.1" xmlns="http://www.w3.org/2000/svg" xmlns:xlink="http://www.w3.org/1999/xlink" xmlns:sketch="http://www.bohemiancoding.com/sketch/ns">
    <!-- Generator: Sketch 3.3.3 (12081) - http://www.bohemiancoding.com/sketch -->
    <title>foerderverein-freie-netzwerke</title>
    <desc>Created with Sketch.</desc>
    <defs></defs>
    <g id="Page-1" stroke="none" stroke-width="1" fill="none" fill-rule="evenodd" sketch:type="MSPage">
        <rect id="Rectangle-1" stroke="#DC0067" fill="#DC0067" sketch:type="MSShapeGroup" x="1" y="1" width="314" height="7"></rect>
        <path d="M1.59765625,41.3100229 L1.59765625,18.7148438 L10.0076585,18.7148438 L10.0076585,21.8551907 L6.11669208,21.8551907 L6.11669208,27.063571 L9.91574593,27.063571 L9.91574593,30.326468 L6.11669208,30.326468 L6.11669208,41.3100229 L1.59765625,41.3100229 Z M15.0322136,26.7265581 L15.0322136,37.6641567 C15.0322136,38.0624466 15.0883819,38.3458409 15.20072,38.5143482 C15.3130582,38.6828555 15.4968816,38.7671078 15.7521956,38.7671078 C16.0075096,38.7671078 16.191333,38.6828555 16.3036712,38.5143482 C16.4160093,38.3458409 16.4721776,38.0624466 16.4721776,37.6641567 L16.4721776,26.7265581 C16.4721776,26.3384808 16.4134562,26.0576396 16.2960118,25.884026 C16.1785673,25.7104125 15.9870847,25.623607 15.7215581,25.623607 C15.4764566,25.623607 15.3002926,25.7053063 15.1930607,25.8687073 C15.0858288,26.0321082 15.0322136,26.3180557 15.0322136,26.7265581 L15.0322136,26.7265581 Z M11.0186971,27.9520594 C11.0186971,26.0831606 11.3837906,24.7581007 12.1139888,23.9768397 C12.8441869,23.1955788 14.046698,22.8049541 15.7215581,22.8049541 C17.3964181,22.8049541 18.5989292,23.1955788 19.3291274,23.9768397 C20.0593255,24.7581007 20.4244191,26.0831606 20.4244191,27.9520594 L20.4244191,36.6071619 C20.4244191,38.4658481 20.0593255,39.7883549 19.3291274,40.5747222 C18.5989292,41.3610894 17.3964181,41.7542671 15.7215581,41.7542671 C14.046698,41.7542671 12.8441869,41.3610894 12.1139888,40.5747222 C11.3837906,39.7883549 11.0186971,38.4658481 11.0186971,36.6071619 L11.0186971,27.9520594 Z M16.380265,21.9777408 L16.380265,18.9139877 L19.1989178,18.9139877 L19.1989178,21.9777408 L16.380265,21.9777408 Z M12.2441983,21.9777408 L12.2441983,18.9139877 L15.0322136,18.9139877 L15.0322136,21.9777408 L12.2441983,21.9777408 Z M21.6805579,41.3100229 L21.6805579,23.2338796 L25.6021618,23.2338796 L25.6021618,24.7504374 L25.6634369,24.7504374 C26.0004514,24.1172586 26.4038416,23.6500409 26.8736194,23.3487703 C27.3433972,23.0474998 27.889761,22.8968667 28.5127273,22.8968667 C29.380795,22.8968667 30.031836,23.15473 30.4658699,23.6704644 C30.8999038,24.1861988 31.1169174,24.9546825 31.1169174,25.9759386 L31.1169174,32.9612957 L27.1034009,32.9612957 L27.1034009,27.2933524 C27.1034009,26.8746374 27.0497857,26.5912431 26.9425538,26.443161 C26.8353219,26.2950788 26.6489455,26.2210389 26.3834189,26.2210389 C26.1383174,26.2210389 25.9570472,26.3078443 25.8396027,26.4814579 C25.7221582,26.6550714 25.6634369,26.9257002 25.6634369,27.2933524 L25.6634369,41.3100229 L21.6805579,41.3100229 Z M41.993241,41.3100229 L38.071637,41.3100229 L38.071637,39.7475088 L38.0103619,39.7475088 C37.7448353,40.4113253 37.3746355,40.9117333 36.8997514,41.2487478 C36.4248673,41.5857624 35.8453131,41.7542671 35.1610715,41.7542671 C34.2930038,41.7542671 33.647069,41.50151 33.2232477,40.9959882 C32.7994264,40.4904664 32.5875189,39.7270889 32.5875189,38.7058328 L32.5875189,25.9759386 C32.5875189,24.9444699 32.8019795,24.1734331 33.2309071,23.662805 C33.6598347,23.1521769 34.3032164,22.8968667 35.1610715,22.8968667 C35.7942503,22.8968667 36.3406142,23.0500529 36.8001794,23.3564297 C37.2597447,23.6628065 37.64271,24.1274711 37.9490869,24.7504374 L38.0103619,24.7504374 L38.0103619,18.7148438 L41.993241,18.7148438 L41.993241,41.3100229 Z M36.570398,37.3577814 C36.570398,37.7764964 36.6240131,38.064997 36.731245,38.2232917 C36.8384769,38.3815864 37.0248533,38.4607325 37.2903799,38.4607325 C37.5354814,38.4607325 37.7167517,38.3688208 37.8341961,38.1849947 C37.9516406,38.0011686 38.0103619,37.7254336 38.0103619,37.3577814 L38.0103619,27.2933524 C38.0103619,26.9257002 37.9516406,26.6550714 37.8341961,26.4814579 C37.7167517,26.3078443 37.5354814,26.2210389 37.2903799,26.2210389 C37.0248533,26.2210389 36.8384769,26.2950788 36.731245,26.443161 C36.6240131,26.5912431 36.570398,26.8746374 36.570398,27.2933524 L36.570398,37.3577814 Z M47.2322588,26.7265581 L47.2322588,30.1426428 L48.6722227,30.1426428 L48.6722227,26.7265581 C48.6722227,26.3282682 48.6160545,26.0448739 48.5037163,25.8763666 C48.3913781,25.7078594 48.2075548,25.623607 47.9522407,25.623607 C47.6969267,25.623607 47.5131034,25.7078594 47.4007652,25.8763666 C47.288427,26.0448739 47.2322588,26.3282682 47.2322588,26.7265581 L47.2322588,26.7265581 Z M47.2322588,37.6641567 C47.2322588,38.0624466 47.288427,38.3458409 47.4007652,38.5143482 C47.5131034,38.6828555 47.6969267,38.7671078 47.9522407,38.7671078 C48.2075548,38.7671078 48.3913781,38.6828555 48.5037163,38.5143482 C48.6160545,38.3458409 48.6722227,38.0624466 48.6722227,37.6641567 L48.6722227,34.2787095 L52.6551018,34.2787095 L52.6551018,37.6335192 C52.6551018,38.940727 52.2440523,39.9543086 51.4219411,40.6742941 C50.5998299,41.3942797 49.4432747,41.7542671 47.9522407,41.7542671 C46.2671681,41.7542671 45.0621039,41.3661956 44.3370121,40.5900409 C43.6119202,39.8138863 43.2493797,38.4862732 43.2493797,36.6071619 L43.2493797,27.9520594 C43.2493797,26.0525229 43.606814,24.7198037 44.3216933,23.9538616 C45.0365726,23.1879195 46.2365306,22.8049541 47.9216032,22.8049541 C49.4024246,22.8049541 50.561533,23.1496229 51.398963,23.8389708 C52.236393,24.5283187 52.6551018,25.4806258 52.6551018,26.6959206 L52.6551018,32.8387456 L47.2322588,32.8387456 L47.2322588,37.6641567 Z M53.9112405,41.3100229 L53.9112405,23.2338796 L57.8328445,23.2338796 L57.8328445,24.7504374 L57.8941196,24.7504374 C58.2311341,24.1172586 58.6345242,23.6500409 59.1043021,23.3487703 C59.5740799,23.0474998 60.1204437,22.8968667 60.74341,22.8968667 C61.6114777,22.8968667 62.2625187,23.15473 62.6965526,23.6704644 C63.1305864,24.1861988 63.3476001,24.9546825 63.3476001,25.9759386 L63.3476001,32.9612957 L59.3340835,32.9612957 L59.3340835,27.2933524 C59.3340835,26.8746374 59.2804684,26.5912431 59.1732365,26.443161 C59.0660046,26.2950788 58.8796282,26.2210389 58.6141016,26.2210389 C58.3690001,26.2210389 58.1877298,26.3078443 58.0702854,26.4814579 C57.9528409,26.6550714 57.8941196,26.9257002 57.8941196,27.2933524 L57.8941196,41.3100229 L53.9112405,41.3100229 Z M66.5798596,41.3100229 L63.9756695,23.2338796 L67.9891861,23.2338796 L68.8623557,32.1800387 C68.9338436,32.8540677 68.9900119,33.5919142 69.0308621,34.3936003 C69.0717124,35.1952863 69.1023496,36.0556817 69.1227747,36.9748123 L69.2453248,36.9748123 C69.26575,35.9841938 69.3040465,35.0318867 69.3602156,34.1178625 C69.4163847,33.2038382 69.4802122,32.3638677 69.5517001,31.5979256 L70.3635947,23.2338796 L74.132011,23.2338796 L71.5278209,41.3100229 L66.5798596,41.3100229 Z M78.3753091,26.7265581 L78.3753091,30.1426428 L79.815273,30.1426428 L79.815273,26.7265581 C79.815273,26.3282682 79.7591048,26.0448739 79.6467666,25.8763666 C79.5344285,25.7078594 79.3506051,25.623607 79.0952911,25.623607 C78.839977,25.623607 78.6561537,25.7078594 78.5438155,25.8763666 C78.4314773,26.0448739 78.3753091,26.3282682 78.3753091,26.7265581 L78.3753091,26.7265581 Z M78.3753091,37.6641567 C78.3753091,38.0624466 78.4314773,38.3458409 78.5438155,38.5143482 C78.6561537,38.6828555 78.839977,38.7671078 79.0952911,38.7671078 C79.3506051,38.7671078 79.5344285,38.6828555 79.6467666,38.5143482 C79.7591048,38.3458409 79.815273,38.0624466 79.815273,37.6641567 L79.815273,34.2787095 L83.7981521,34.2787095 L83.7981521,37.6335192 C83.7981521,38.940727 83.3871027,39.9543086 82.5649915,40.6742941 C81.7428803,41.3942797 80.586325,41.7542671 79.0952911,41.7542671 C77.4102184,41.7542671 76.2051543,41.3661956 75.4800624,40.5900409 C74.7549705,39.8138863 74.3924301,38.4862732 74.3924301,36.6071619 L74.3924301,27.9520594 C74.3924301,26.0525229 74.7498643,24.7198037 75.4647436,23.9538616 C76.1796229,23.1879195 77.3795809,22.8049541 79.0646535,22.8049541 C80.5454749,22.8049541 81.7045833,23.1496229 82.5420133,23.8389708 C83.3794433,24.5283187 83.7981521,25.4806258 83.7981521,26.6959206 L83.7981521,32.8387456 L78.3753091,32.8387456 L78.3753091,37.6641567 Z M85.0542909,41.3100229 L85.0542909,23.2338796 L88.9758948,23.2338796 L88.9758948,24.7504374 L89.0371699,24.7504374 C89.3741844,24.1172586 89.7775746,23.6500409 90.2473524,23.3487703 C90.7171302,23.0474998 91.263494,22.8968667 91.8864603,22.8968667 C92.754528,22.8968667 93.405569,23.15473 93.8396029,23.6704644 C94.2736368,24.1861988 94.4906504,24.9546825 94.4906504,25.9759386 L94.4906504,32.9612957 L90.4771339,32.9612957 L90.4771339,27.2933524 C90.4771339,26.8746374 90.4235187,26.5912431 90.3162868,26.443161 C90.2090549,26.2950788 90.0226785,26.2210389 89.7571519,26.2210389 C89.5120504,26.2210389 89.3307802,26.3078443 89.2133357,26.4814579 C89.0958912,26.6550714 89.0371699,26.9257002 89.0371699,27.2933524 L89.0371699,41.3100229 L85.0542909,41.3100229 Z M99.944131,26.7265581 L99.944131,30.1426428 L101.384095,30.1426428 L101.384095,26.7265581 C101.384095,26.3282682 101.327927,26.0448739 101.215588,25.8763666 C101.10325,25.7078594 100.919427,25.623607 100.664113,25.623607 C100.408799,25.623607 100.224976,25.7078594 100.112637,25.8763666 C100.000299,26.0448739 99.944131,26.3282682 99.944131,26.7265581 L99.944131,26.7265581 Z M99.944131,37.6641567 C99.944131,38.0624466 100.000299,38.3458409 100.112637,38.5143482 C100.224976,38.6828555 100.408799,38.7671078 100.664113,38.7671078 C100.919427,38.7671078 101.10325,38.6828555 101.215588,38.5143482 C101.327927,38.3458409 101.384095,38.0624466 101.384095,37.6641567 L101.384095,34.2787095 L105.366974,34.2787095 L105.366974,37.6335192 C105.366974,38.940727 104.955925,39.9543086 104.133813,40.6742941 C103.311702,41.3942797 102.155147,41.7542671 100.664113,41.7542671 C98.9790403,41.7542671 97.7739761,41.3661956 97.0488843,40.5900409 C96.3237924,39.8138863 95.9612519,38.4862732 95.9612519,36.6071619 L95.9612519,27.9520594 C95.9612519,26.0525229 96.3186862,24.7198037 97.0335655,23.9538616 C97.7484448,23.1879195 98.9484028,22.8049541 100.633475,22.8049541 C102.114297,22.8049541 103.273405,23.1496229 104.110835,23.8389708 C104.948265,24.5283187 105.366974,25.4806258 105.366974,26.6959206 L105.366974,32.8387456 L99.944131,32.8387456 L99.944131,37.6641567 Z M106.623113,41.3100229 L106.623113,23.2338796 L110.605992,23.2338796 L110.605992,41.3100229 L106.623113,41.3100229 Z M106.623113,22.1462472 L106.623113,18.7148438 L110.605992,18.7148438 L110.605992,22.1462472 L106.623113,22.1462472 Z M111.923406,41.3100229 L111.923406,23.2338796 L115.84501,23.2338796 L115.84501,24.7504374 L115.906285,24.7504374 C116.243299,24.1172586 116.646689,23.6500409 117.116467,23.3487703 C117.586245,23.0474998 118.132609,22.8968667 118.755575,22.8968667 C119.623643,22.8968667 120.274684,23.15473 120.708718,23.6704644 C121.142751,24.1861988 121.359765,24.9546825 121.359765,25.9759386 L121.359765,41.3100229 L117.346249,41.3100229 L117.346249,27.2933524 C117.346249,26.8746374 117.292633,26.5912431 117.185402,26.443161 C117.07817,26.2950788 116.891793,26.2210389 116.626267,26.2210389 C116.381165,26.2210389 116.199895,26.3078443 116.08245,26.4814579 C115.965006,26.6550714 115.906285,26.9257002 115.906285,27.2933524 L115.906285,41.3100229 L111.923406,41.3100229 Z M128.697454,41.3100229 L128.697454,18.7148438 L137.107456,18.7148438 L137.107456,21.8551907 L133.21649,21.8551907 L133.21649,27.063571 L137.015544,27.063571 L137.015544,30.326468 L133.21649,30.326468 L133.21649,41.3100229 L128.697454,41.3100229 Z M138.17977,41.3100229 L138.17977,23.2338796 L142.101374,23.2338796 L142.101374,24.7504374 L142.162649,24.7504374 C142.499663,24.1172586 142.903053,23.6500409 143.372831,23.3487703 C143.842609,23.0474998 144.388973,22.8968667 145.011939,22.8968667 C145.880007,22.8968667 146.531048,23.15473 146.965082,23.6704644 C147.399116,24.1861988 147.616129,24.9546825 147.616129,25.9759386 L147.616129,32.9612957 L143.602613,32.9612957 L143.602613,27.2933524 C143.602613,26.8746374 143.548998,26.5912431 143.441766,26.443161 C143.334534,26.2950788 143.148157,26.2210389 142.882631,26.2210389 C142.637529,26.2210389 142.456259,26.3078443 142.338815,26.4814579 C142.22137,26.6550714 142.162649,26.9257002 142.162649,27.2933524 L142.162649,41.3100229 L138.17977,41.3100229 Z M153.06961,26.7265581 L153.06961,30.1426428 L154.509574,30.1426428 L154.509574,26.7265581 C154.509574,26.3282682 154.453406,26.0448739 154.341067,25.8763666 C154.228729,25.7078594 154.044906,25.623607 153.789592,25.623607 C153.534278,25.623607 153.350454,25.7078594 153.238116,25.8763666 C153.125778,26.0448739 153.06961,26.3282682 153.06961,26.7265581 L153.06961,26.7265581 Z M153.06961,37.6641567 C153.06961,38.0624466 153.125778,38.3458409 153.238116,38.5143482 C153.350454,38.6828555 153.534278,38.7671078 153.789592,38.7671078 C154.044906,38.7671078 154.228729,38.6828555 154.341067,38.5143482 C154.453406,38.3458409 154.509574,38.0624466 154.509574,37.6641567 L154.509574,34.2787095 L158.492453,34.2787095 L158.492453,37.6335192 C158.492453,38.940727 158.081403,39.9543086 157.259292,40.6742941 C156.437181,41.3942797 155.280626,41.7542671 153.789592,41.7542671 C152.104519,41.7542671 150.899455,41.3661956 150.174363,40.5900409 C149.449271,39.8138863 149.086731,38.4862732 149.086731,36.6071619 L149.086731,27.9520594 C149.086731,26.0525229 149.444165,24.7198037 150.159044,23.9538616 C150.873924,23.1879195 152.073882,22.8049541 153.758954,22.8049541 C155.239776,22.8049541 156.398884,23.1496229 157.236314,23.8389708 C158.073744,24.5283187 158.492453,25.4806258 158.492453,26.6959206 L158.492453,32.8387456 L153.06961,32.8387456 L153.06961,37.6641567 Z M159.748592,41.3100229 L159.748592,23.2338796 L163.731471,23.2338796 L163.731471,41.3100229 L159.748592,41.3100229 Z M159.748592,22.1462472 L159.748592,18.7148438 L163.731471,18.7148438 L163.731471,22.1462472 L159.748592,22.1462472 Z M168.970488,26.7265581 L168.970488,30.1426428 L170.410452,30.1426428 L170.410452,26.7265581 C170.410452,26.3282682 170.354284,26.0448739 170.241946,25.8763666 C170.129608,25.7078594 169.945784,25.623607 169.69047,25.623607 C169.435156,25.623607 169.251333,25.7078594 169.138995,25.8763666 C169.026657,26.0448739 168.970488,26.3282682 168.970488,26.7265581 L168.970488,26.7265581 Z M168.970488,37.6641567 C168.970488,38.0624466 169.026657,38.3458409 169.138995,38.5143482 C169.251333,38.6828555 169.435156,38.7671078 169.69047,38.7671078 C169.945784,38.7671078 170.129608,38.6828555 170.241946,38.5143482 C170.354284,38.3458409 170.410452,38.0624466 170.410452,37.6641567 L170.410452,34.2787095 L174.393331,34.2787095 L174.393331,37.6335192 C174.393331,38.940727 173.982282,39.9543086 173.160171,40.6742941 C172.33806,41.3942797 171.181504,41.7542671 169.69047,41.7542671 C168.005398,41.7542671 166.800334,41.3661956 166.075242,40.5900409 C165.35015,39.8138863 164.987609,38.4862732 164.987609,36.6071619 L164.987609,27.9520594 C164.987609,26.0525229 165.345044,24.7198037 166.059923,23.9538616 C166.774802,23.1879195 167.97476,22.8049541 169.659833,22.8049541 C171.140654,22.8049541 172.299763,23.1496229 173.137193,23.8389708 C173.974623,24.5283187 174.393331,25.4806258 174.393331,26.6959206 L174.393331,32.8387456 L168.970488,32.8387456 L168.970488,37.6641567 Z M181.639108,41.3100229 L181.639108,18.7148438 L187.827889,18.7148438 L189.42104,28.2890722 C189.564016,29.1469274 189.686565,30.1068937 189.788691,31.1690001 C189.890816,32.2311065 189.977622,33.4463831 190.04911,34.8148663 L190.232935,34.8148663 C190.161447,33.2217067 190.107832,31.8302661 190.072088,30.6405027 C190.036344,29.4507393 190.018472,28.5954501 190.018472,28.0746095 L189.987835,18.7148438 L193.52647,18.7148438 L193.52647,41.3100229 L188.226177,41.3100229 L185.913043,29.0396917 C185.82113,28.5597013 185.70624,27.8346203 185.568371,26.864427 C185.430501,25.8942337 185.290081,24.8321432 185.147105,23.6781238 L185.024555,23.6781238 C185.08583,24.6176794 185.134339,25.4397783 185.170083,26.144445 C185.205827,26.8491118 185.223699,27.4261128 185.223699,27.8754655 L185.223699,41.3100229 L181.639108,41.3100229 Z M198.826762,26.7265581 L198.826762,30.1426428 L200.266726,30.1426428 L200.266726,26.7265581 C200.266726,26.3282682 200.210558,26.0448739 200.09822,25.8763666 C199.985882,25.7078594 199.802058,25.623607 199.546744,25.623607 C199.29143,25.623607 199.107607,25.7078594 198.995269,25.8763666 C198.882931,26.0448739 198.826762,26.3282682 198.826762,26.7265581 L198.826762,26.7265581 Z M198.826762,37.6641567 C198.826762,38.0624466 198.882931,38.3458409 198.995269,38.5143482 C199.107607,38.6828555 199.29143,38.7671078 199.546744,38.7671078 C199.802058,38.7671078 199.985882,38.6828555 200.09822,38.5143482 C200.210558,38.3458409 200.266726,38.0624466 200.266726,37.6641567 L200.266726,34.2787095 L204.249605,34.2787095 L204.249605,37.6335192 C204.249605,38.940727 203.838556,39.9543086 203.016445,40.6742941 C202.194334,41.3942797 201.037778,41.7542671 199.546744,41.7542671 C197.861672,41.7542671 196.656608,41.3661956 195.931516,40.5900409 C195.206424,39.8138863 194.843883,38.4862732 194.843883,36.6071619 L194.843883,27.9520594 C194.843883,26.0525229 195.201318,24.7198037 195.916197,23.9538616 C196.631076,23.1879195 197.831034,22.8049541 199.516107,22.8049541 C200.996928,22.8049541 202.156037,23.1496229 202.993467,23.8389708 C203.830897,24.5283187 204.249605,25.4806258 204.249605,26.6959206 L204.249605,32.8387456 L198.826762,32.8387456 L198.826762,37.6641567 Z M204.877675,26.1291263 L204.877675,23.2338796 L205.888713,23.2338796 L205.888713,19.8790699 L209.90223,19.8790699 L209.90223,23.2338796 L211.066456,23.2338796 L211.066456,26.1291263 L209.90223,26.1291263 L209.90223,37.1126812 C209.90223,37.674372 209.971164,38.0292532 210.109033,38.1773354 C210.246903,38.3254175 210.520085,38.3994575 210.928587,38.3994575 L211.066456,38.3994575 L211.066456,41.3100229 L208.554179,41.3100229 C207.583985,41.3100229 206.897201,41.087903 206.493805,40.6436566 C206.090408,40.1994102 205.888713,39.3645458 205.888713,38.1390384 L205.888713,26.1291263 L204.877675,26.1291263 Z M211.342194,41.3100229 L211.342194,38.169676 L214.635728,26.2210389 L211.449425,26.2210389 L211.449425,23.2338796 L218.940302,23.2338796 L218.940302,25.8380697 L215.493579,38.2615886 L218.940302,38.2615886 L218.940302,41.3100229 L211.342194,41.3100229 Z M221.31471,41.3100229 L218.848389,23.2338796 L222.892543,23.2338796 L223.643163,32.5936453 C223.684013,33.1859739 223.71465,33.839568 223.735075,34.5544473 C223.7555,35.2693266 223.765713,36.0250448 223.765713,36.8216246 L223.9189,36.8216246 C223.959751,35.3203781 224.066981,33.8344727 224.240594,32.3638638 C224.250807,32.2515257 224.261019,32.1698264 224.271232,32.1187636 L225.266952,23.2338796 L229.448975,23.2338796 L230.260869,32.5936453 C230.271082,32.6855584 230.29406,33.1961788 230.329804,34.1255219 C230.365548,35.054865 230.403844,35.9535569 230.444695,36.8216246 L230.613201,36.8216246 C230.674476,35.4837791 230.771494,34.105104 230.904257,32.6855579 C230.934895,32.3996062 230.950214,32.2208891 230.950214,32.1494011 L231.762108,23.2338796 L235.622437,23.2338796 L232.926335,41.3100229 L228.315386,41.3100229 L227.564767,33.0225708 C227.544341,32.7672567 227.51881,32.2566363 227.488173,31.4906942 C227.457535,30.7247521 227.426898,29.846485 227.39626,28.8558665 L227.243073,28.8558665 C227.19201,30.1937121 227.089886,31.4702631 226.936697,32.6855579 L226.936697,32.746833 L225.864384,41.3100229 L221.31471,41.3100229 Z M239.865735,26.7265581 L239.865735,30.1426428 L241.305699,30.1426428 L241.305699,26.7265581 C241.305699,26.3282682 241.249531,26.0448739 241.137193,25.8763666 C241.024855,25.7078594 240.841031,25.623607 240.585717,25.623607 C240.330403,25.623607 240.14658,25.7078594 240.034242,25.8763666 C239.921904,26.0448739 239.865735,26.3282682 239.865735,26.7265581 L239.865735,26.7265581 Z M239.865735,37.6641567 C239.865735,38.0624466 239.921904,38.3458409 240.034242,38.5143482 C240.14658,38.6828555 240.330403,38.7671078 240.585717,38.7671078 C240.841031,38.7671078 241.024855,38.6828555 241.137193,38.5143482 C241.249531,38.3458409 241.305699,38.0624466 241.305699,37.6641567 L241.305699,34.2787095 L245.288578,34.2787095 L245.288578,37.6335192 C245.288578,38.940727 244.877529,39.9543086 244.055418,40.6742941 C243.233306,41.3942797 242.076751,41.7542671 240.585717,41.7542671 C238.900645,41.7542671 237.69558,41.3661956 236.970489,40.5900409 C236.245397,39.8138863 235.882856,38.4862732 235.882856,36.6071619 L235.882856,27.9520594 C235.882856,26.0525229 236.240291,24.7198037 236.95517,23.9538616 C237.670049,23.1879195 238.870007,22.8049541 240.55508,22.8049541 C242.035901,22.8049541 243.19501,23.1496229 244.03244,23.8389708 C244.86987,24.5283187 245.288578,25.4806258 245.288578,26.6959206 L245.288578,32.8387456 L239.865735,32.8387456 L239.865735,37.6641567 Z M246.544717,41.3100229 L246.544717,23.2338796 L250.466321,23.2338796 L250.466321,24.7504374 L250.527596,24.7504374 C250.864611,24.1172586 251.268001,23.6500409 251.737779,23.3487703 C252.207556,23.0474998 252.75392,22.8968667 253.376887,22.8968667 C254.244954,22.8968667 254.895995,23.15473 255.330029,23.6704644 C255.764063,24.1861988 255.981077,24.9546825 255.981077,25.9759386 L255.981077,32.9612957 L251.96756,32.9612957 L251.96756,27.2933524 C251.96756,26.8746374 251.913945,26.5912431 251.806713,26.443161 C251.699481,26.2950788 251.513105,26.2210389 251.247578,26.2210389 C251.002477,26.2210389 250.821206,26.3078443 250.703762,26.4814579 C250.586317,26.6550714 250.527596,26.9257002 250.527596,27.2933524 L250.527596,41.3100229 L246.544717,41.3100229 Z M256.93084,41.3100229 L256.93084,18.7148438 L260.913719,18.7148438 L260.913719,31.1077251 L260.974994,31.1077251 L262.675377,23.2338796 L266.750169,23.2338796 L264.774048,31.04645 L266.750169,41.3100229 L262.552827,41.3100229 L260.974994,31.8430258 L260.913719,31.8430258 L260.913719,41.3100229 L256.93084,41.3100229 Z M271.20793,26.7265581 L271.20793,30.1426428 L272.647894,30.1426428 L272.647894,26.7265581 C272.647894,26.3282682 272.591725,26.0448739 272.479387,25.8763666 C272.367049,25.7078594 272.183226,25.623607 271.927912,25.623607 C271.672598,25.623607 271.488774,25.7078594 271.376436,25.8763666 C271.264098,26.0448739 271.20793,26.3282682 271.20793,26.7265581 L271.20793,26.7265581 Z M271.20793,37.6641567 C271.20793,38.0624466 271.264098,38.3458409 271.376436,38.5143482 C271.488774,38.6828555 271.672598,38.7671078 271.927912,38.7671078 C272.183226,38.7671078 272.367049,38.6828555 272.479387,38.5143482 C272.591725,38.3458409 272.647894,38.0624466 272.647894,37.6641567 L272.647894,34.2787095 L276.630773,34.2787095 L276.630773,37.6335192 C276.630773,38.940727 276.219723,39.9543086 275.397612,40.6742941 C274.575501,41.3942797 273.418946,41.7542671 271.927912,41.7542671 C270.242839,41.7542671 269.037775,41.3661956 268.312683,40.5900409 C267.587591,39.8138863 267.225051,38.4862732 267.225051,36.6071619 L267.225051,27.9520594 C267.225051,26.0525229 267.582485,24.7198037 268.297364,23.9538616 C269.012243,23.1879195 270.212201,22.8049541 271.897274,22.8049541 C273.378095,22.8049541 274.537204,23.1496229 275.374634,23.8389708 C276.212064,24.5283187 276.630773,25.4806258 276.630773,26.6959206 L276.630773,32.8387456 L271.20793,32.8387456 L271.20793,37.6641567 Z M287.767515,26.7265581 L287.767515,30.1426428 L289.207479,30.1426428 L289.207479,26.7265581 C289.207479,26.3282682 289.151311,26.0448739 289.038973,25.8763666 C288.926634,25.7078594 288.742811,25.623607 288.487497,25.623607 C288.232183,25.623607 288.04836,25.7078594 287.936022,25.8763666 C287.823683,26.0448739 287.767515,26.3282682 287.767515,26.7265581 L287.767515,26.7265581 Z M287.767515,37.6641567 C287.767515,38.0624466 287.823683,38.3458409 287.936022,38.5143482 C288.04836,38.6828555 288.232183,38.7671078 288.487497,38.7671078 C288.742811,38.7671078 288.926634,38.6828555 289.038973,38.5143482 C289.151311,38.3458409 289.207479,38.0624466 289.207479,37.6641567 L289.207479,34.2787095 L293.190358,34.2787095 L293.190358,37.6335192 C293.190358,38.940727 292.779309,39.9543086 291.957197,40.6742941 C291.135086,41.3942797 289.978531,41.7542671 288.487497,41.7542671 C286.802424,41.7542671 285.59736,41.3661956 284.872268,40.5900409 C284.147177,39.8138863 283.784636,38.4862732 283.784636,36.6071619 L283.784636,27.9520594 C283.784636,26.0525229 284.14207,24.7198037 284.85695,23.9538616 C285.571829,23.1879195 286.771787,22.8049541 288.45686,22.8049541 C289.937681,22.8049541 291.096789,23.1496229 291.934219,23.8389708 C292.771649,24.5283187 293.190358,25.4806258 293.190358,26.6959206 L293.190358,32.8387456 L287.767515,32.8387456 L287.767515,37.6641567 Z M294.691597,41.3100229 L294.691597,36.6990745 L298.842983,36.6990745 L298.842983,41.3100229 L294.691597,41.3100229 Z M302.47353,41.3100229 L299.961252,18.7148438 L304.602838,18.7148438 L305.491327,32.9153394 C305.521965,33.3136293 305.557708,33.8497807 305.598558,34.5238098 C305.639408,35.1978388 305.680258,35.9229198 305.721108,36.6990745 L305.82834,36.6990745 C305.889615,35.8310068 305.953443,35.0063548 306.019824,34.2250938 C306.086206,33.4438329 306.160246,32.6804554 306.241946,31.9349384 L307.55936,18.7148438 L311.572877,18.7148438 L308.463167,41.3100229 L302.47353,41.3100229 Z M310.944807,41.3100229 L310.944807,36.6990745 L315.096193,36.6990745 L315.096193,41.3100229 L310.944807,41.3100229 Z" id="Förderverein-Freie-N" fill="#000000" sketch:type="MSShapeGroup"></path>
    </g>
</svg>