<svg width="316" height="42" viewBox="0 0 316 42" xmlns="http://www.w3.org/2000/svg"><title>foerderverein-freie-netzwerke</title><g fill="none" fill-rule="evenodd"><path stroke="#DC0067" fill="#DC0067" d="M1 1h314v7H1z"/><path d="M1.598 41.31V18.715h8.41v3.14h-3.89v5.21h3.798v3.26h-3.8V41.31H1.6zm13.434-14.583v10.937c0 .398.056.682.17.85.11.17.295.253.55.253.256 0 .44-.084.552-.253.112-.168.168-.452.168-.85V26.727c0-.39-.06-.67-.176-.843-.117-.174-.31-.26-.574-.26-.246 0-.422.08-.53.245-.106.162-.16.448-.16.857zm-4.013 1.225c0-1.87.364-3.194 1.094-3.975.73-.78 1.933-1.172 3.608-1.172 1.674 0 2.877.39 3.607 1.172.73.78 1.094 2.106 1.094 3.975v8.655c0 1.86-.365 3.18-1.095 3.968-.73.786-1.934 1.18-3.608 1.18-1.675 0-2.878-.394-3.608-1.18-.73-.787-1.095-2.11-1.095-3.968v-8.655zm5.36-5.974v-3.064h2.82v3.064h-2.82zm-4.136 0v-3.064h2.788v3.064h-2.788zM21.68 41.31V23.234h3.922v1.516h.06c.338-.633.742-1.1 1.212-1.4.47-.303 1.016-.453 1.64-.453.867 0 1.518.258 1.952.773.434.516.65 1.285.65 2.306v6.985h-4.013v-5.667c0-.418-.053-.702-.16-.85-.108-.148-.294-.222-.56-.222-.245 0-.426.088-.543.26-.118.175-.177.446-.177.813V41.31H21.68zm20.313 0h-3.92v-1.562h-.063c-.265.663-.635 1.164-1.11 1.5-.475.338-1.055.506-1.74.506-.867 0-1.513-.252-1.937-.758-.424-.506-.635-1.27-.635-2.29v-12.73c0-1.032.214-1.803.643-2.313.43-.51 1.073-.766 1.93-.766.634 0 1.18.153 1.64.46.46.306.843.77 1.15 1.393h.06v-6.035h3.983V41.31zm-5.423-3.952c0 .418.054.707.16.865.108.16.295.238.56.238.245 0 .427-.09.544-.275.118-.184.176-.46.176-.827V27.293c0-.367-.058-.638-.176-.812-.117-.172-.3-.26-.544-.26-.265 0-.452.075-.56.223-.106.148-.16.432-.16.85v10.065zm10.662-10.63v3.415h1.44v-3.416c0-.4-.056-.682-.168-.85-.113-.17-.296-.253-.552-.253-.255 0-.44.084-.55.252-.114.17-.17.452-.17.85zm0 10.936c0 .398.056.682.17.85.11.17.295.253.55.253.256 0 .44-.084.552-.253.112-.168.168-.452.168-.85V34.28h3.983v3.354c0 1.307-.41 2.32-1.233 3.04-.822.72-1.98 1.08-3.47 1.08-1.685 0-2.89-.388-3.615-1.164-.725-.776-1.088-2.104-1.088-3.983v-8.655c0-1.9.357-3.232 1.072-3.998.715-.766 1.915-1.15 3.6-1.15 1.48 0 2.64.346 3.477 1.035.836.688 1.255 1.64 1.255 2.856v6.143h-5.423v4.824zm6.68 3.646V23.234h3.92v1.516h.062c.337-.633.74-1.1 1.21-1.4.47-.303 1.016-.453 1.64-.453.867 0 1.52.258 1.953.773.434.516.65 1.285.65 2.306v6.985h-4.013v-5.667c0-.418-.054-.702-.16-.85-.108-.148-.294-.222-.56-.222-.245 0-.426.088-.544.26-.117.175-.176.446-.176.813V41.31H53.91zm12.668 0l-2.604-18.076h4.013l.872 8.946c.072.674.128 1.412.17 2.214.04.8.07 1.662.09 2.58h.123c.02-.99.06-1.942.115-2.856.056-.914.12-1.754.192-2.52l.812-8.364h3.768L71.528 41.31H66.58zm11.795-14.583v3.416h1.44v-3.416c0-.4-.056-.682-.168-.85-.113-.17-.296-.253-.552-.253-.255 0-.44.084-.55.252-.114.17-.17.452-.17.85zm0 10.937c0 .398.056.682.17.85.11.17.295.253.55.253.256 0 .44-.084.552-.253.112-.168.168-.452.168-.85V34.28h3.983v3.354c0 1.307-.41 2.32-1.233 3.04-.822.72-1.98 1.08-3.47 1.08-1.685 0-2.89-.388-3.615-1.164-.725-.776-1.088-2.104-1.088-3.983v-8.655c0-1.9.358-3.232 1.073-3.998s1.915-1.15 3.6-1.15c1.48 0 2.64.346 3.477 1.035.837.688 1.256 1.64 1.256 2.856v6.143h-5.423v4.824zm6.68 3.646V23.234h3.92v1.516h.062c.337-.633.74-1.1 1.21-1.4.47-.303 1.016-.453 1.64-.453.868 0 1.52.258 1.953.773.434.516.65 1.285.65 2.306v6.985h-4.013v-5.667c0-.418-.053-.702-.16-.85-.108-.148-.294-.222-.56-.222-.245 0-.426.088-.544.26-.117.175-.176.446-.176.813V41.31h-3.983zm14.89-14.583v3.416h1.44v-3.416c0-.4-.057-.682-.17-.85-.112-.17-.296-.253-.55-.253-.256 0-.44.084-.552.252-.113.17-.17.452-.17.85zm0 10.937c0 .398.055.682.168.85.112.17.296.253.55.253.256 0 .44-.084.553-.253.112-.168.168-.452.168-.85V34.28h3.983v3.354c0 1.307-.41 2.32-1.233 3.04-.822.72-1.98 1.08-3.47 1.08-1.685 0-2.89-.388-3.615-1.164-.726-.776-1.09-2.104-1.09-3.983v-8.655c0-1.9.36-3.232 1.074-3.998.714-.766 1.914-1.15 3.6-1.15 1.48 0 2.64.346 3.477 1.035.838.688 1.257 1.64 1.257 2.856v6.143h-5.423v4.824zm6.678 3.646V23.234h3.983V41.31h-3.983zm0-19.164v-3.43h3.983v3.43h-3.983zm5.3 19.164V23.234h3.922v1.516h.06c.338-.633.742-1.1 1.21-1.4.47-.303 1.018-.453 1.64-.453.87 0 1.52.258 1.954.773.433.516.65 1.285.65 2.306V41.31h-4.014V27.293c0-.418-.053-.702-.16-.85-.108-.148-.294-.222-.56-.222-.245 0-.426.088-.544.26-.117.175-.176.446-.176.813V41.31h-3.983zm16.774 0V18.715h8.41v3.14h-3.89v5.21h3.8v3.26h-3.8V41.31h-4.52zm9.483 0V23.234h3.92v1.516h.063c.337-.633.74-1.1 1.21-1.4.47-.303 1.016-.453 1.64-.453.867 0 1.518.258 1.952.773.434.516.65 1.285.65 2.306v6.985h-4.012v-5.667c0-.418-.054-.702-.16-.85-.108-.148-.295-.222-.56-.222-.245 0-.427.088-.544.26-.12.175-.177.446-.177.813V41.31h-3.983zm14.89-14.583v3.416h1.44v-3.416c0-.4-.057-.682-.17-.85-.11-.17-.295-.253-.55-.253-.256 0-.44.084-.552.252-.112.17-.168.452-.168.85zm0 10.937c0 .398.056.682.168.85.112.17.296.253.552.253.255 0 .44-.084.55-.253.113-.168.17-.452.17-.85V34.28h3.982v3.354c0 1.307-.41 2.32-1.233 3.04-.823.72-1.98 1.08-3.47 1.08-1.685 0-2.89-.388-3.616-1.164-.725-.776-1.087-2.104-1.087-3.983v-8.655c0-1.9.357-3.232 1.072-3.998.714-.766 1.914-1.15 3.6-1.15 1.48 0 2.64.346 3.476 1.035.838.688 1.256 1.64 1.256 2.856v6.143h-5.422v4.824zm6.68 3.646V23.234h3.98V41.31h-3.98zm0-19.164v-3.43h3.98v3.43h-3.98zm9.22 4.58v3.417h1.44v-3.416c0-.4-.056-.682-.168-.85-.112-.17-.296-.253-.552-.253-.255 0-.44.084-.55.252-.113.17-.17.452-.17.85zm0 10.938c0 .398.057.682.17.85.11.17.295.253.55.253.256 0 .44-.084.552-.253.112-.168.168-.452.168-.85V34.28h3.983v3.354c0 1.307-.41 2.32-1.233 3.04-.822.72-1.978 1.08-3.47 1.08-1.685 0-2.89-.388-3.615-1.164-.725-.776-1.087-2.104-1.087-3.983v-8.655c0-1.9.357-3.232 1.072-3.998.715-.766 1.915-1.15 3.6-1.15 1.48 0 2.64.346 3.477 1.035.838.688 1.256 1.64 1.256 2.856v6.143h-5.423v4.824zm12.67 3.646V18.715h6.188l1.593 9.574c.144.857.267 1.817.37 2.88.1 1.06.188 2.276.26 3.645h.183c-.072-1.593-.125-2.985-.16-4.174-.037-1.19-.055-2.045-.055-2.565l-.03-9.36h3.538V41.31h-5.3l-2.313-12.27c-.092-.48-.207-1.205-.345-2.176-.137-.97-.278-2.032-.42-3.186h-.123c.06.94.11 1.762.145 2.466.036.705.054 1.282.054 1.73V41.31h-3.585zm17.187-14.583v3.416h1.44v-3.416c0-.4-.056-.682-.17-.85-.11-.17-.295-.253-.55-.253-.256 0-.44.084-.552.252-.112.17-.168.452-.168.85zm0 10.937c0 .398.056.682.168.85.113.17.296.253.552.253.255 0 .44-.084.55-.253.114-.168.17-.452.17-.85V34.28h3.983v3.354c0 1.307-.41 2.32-1.234 3.04-.822.72-1.978 1.08-3.47 1.08-1.684 0-2.89-.388-3.614-1.164-.726-.776-1.088-2.104-1.088-3.983v-8.655c0-1.9.357-3.232 1.072-3.998.715-.766 1.915-1.15 3.6-1.15 1.48 0 2.64.346 3.477 1.035.838.688 1.257 1.64 1.257 2.856v6.143h-5.423v4.824zm6.05-11.535v-2.896h1.012V19.88h4.012v3.354h1.164v2.895h-1.164v10.983c0 .56.07.916.207 1.064.137.148.41.222.82.222h.136v2.91h-2.512c-.97 0-1.657-.222-2.06-.666-.404-.445-.605-1.28-.605-2.505V26.13h-1.012zm6.465 15.18v-3.14l3.294-11.95h-3.187v-2.986h7.49v2.604l-3.446 12.424h3.446v3.048h-7.598zm9.973 0l-2.467-18.076h4.045l.75 9.36c.04.592.072 1.246.092 1.96.02.715.03 1.47.03 2.268h.154c.04-1.502.147-2.988.32-4.458.01-.112.02-.194.03-.245l.997-8.886h4.182l.81 9.36c.01.092.034.602.07 1.532.036.93.074 1.828.115 2.696h.168c.06-1.338.158-2.717.29-4.136.032-.286.047-.465.047-.537l.812-8.916h3.86l-2.696 18.076h-4.61l-.75-8.287c-.022-.256-.047-.766-.078-1.532-.03-.765-.06-1.644-.092-2.634h-.153c-.05 1.338-.153 2.614-.306 3.83v.06l-1.073 8.564h-4.55zm18.55-14.583v3.416h1.44v-3.416c0-.4-.055-.682-.168-.85-.112-.17-.296-.253-.55-.253-.257 0-.44.084-.553.252-.112.17-.168.452-.168.85zm0 10.937c0 .398.057.682.17.85.112.17.295.253.55.253.256 0 .44-.084.552-.253.113-.168.17-.452.17-.85V34.28h3.982v3.354c0 1.307-.412 2.32-1.235 3.04-.822.72-1.978 1.08-3.47 1.08-1.684 0-2.89-.388-3.615-1.164-.725-.776-1.087-2.104-1.087-3.983v-8.655c0-1.9.357-3.232 1.072-3.998.715-.766 1.915-1.15 3.6-1.15 1.48 0 2.64.346 3.477 1.035.838.688 1.257 1.64 1.257 2.856v6.143h-5.424v4.824zm6.68 3.646V23.234h3.92v1.516h.063c.337-.633.74-1.1 1.21-1.4.47-.303 1.016-.453 1.64-.453.867 0 1.518.258 1.952.773.434.516.65 1.285.65 2.306v6.985h-4.012v-5.667c0-.418-.054-.702-.16-.85-.11-.148-.295-.222-.56-.222-.246 0-.427.088-.544.26-.118.175-.176.446-.176.813V41.31h-3.983zm10.386 0V18.715h3.984v12.393h.06l1.7-7.874h4.076l-1.976 7.812 1.976 10.264h-4.197l-1.578-9.467h-.06v9.467h-3.984zm14.278-14.583v3.416h1.44v-3.416c0-.4-.056-.682-.17-.85-.11-.17-.295-.253-.55-.253-.255 0-.44.084-.552.252-.112.17-.168.452-.168.85zm0 10.937c0 .398.056.682.168.85.113.17.297.253.552.253.255 0 .44-.084.55-.253.114-.168.17-.452.17-.85V34.28h3.983v3.354c0 1.307-.41 2.32-1.232 3.04-.822.72-1.98 1.08-3.47 1.08-1.685 0-2.89-.388-3.615-1.164-.725-.776-1.088-2.104-1.088-3.983v-8.655c0-1.9.357-3.232 1.072-3.998.715-.766 1.915-1.15 3.6-1.15 1.48 0 2.64.346 3.478 1.035.837.688 1.256 1.64 1.256 2.856v6.143h-5.422v4.824zm16.56-10.937v3.416h1.44v-3.416c0-.4-.057-.682-.17-.85-.11-.17-.295-.253-.55-.253-.256 0-.44.084-.552.252-.112.17-.168.452-.168.85zm0 10.937c0 .398.056.682.168.85.112.17.296.253.55.253.257 0 .44-.084.553-.253.11-.168.167-.452.167-.85V34.28h3.983v3.354c0 1.307-.41 2.32-1.233 3.04-.822.72-1.978 1.08-3.47 1.08-1.685 0-2.89-.388-3.615-1.164-.725-.776-1.087-2.104-1.087-3.983v-8.655c0-1.9.357-3.232 1.072-3.998.715-.766 1.915-1.15 3.6-1.15 1.48 0 2.64.346 3.477 1.035.838.688 1.256 1.64 1.256 2.856v6.143h-5.422v4.824zm6.924 3.646V36.7h4.15v4.61h-4.15zm7.782 0l-2.513-22.595h4.643l.888 14.2c.032.4.068.935.11 1.61.04.673.08 1.398.12 2.174h.108c.062-.87.125-1.694.192-2.475.066-.78.14-1.545.222-2.29l1.317-13.22h4.013l-3.11 22.595h-5.99zm8.47 0V36.7h4.152v4.61h-4.15z" fill="#000"/></g></svg>