<svg width="278" height="86" viewBox="0 0 278 86" xmlns="http://www.w3.org/2000/svg" xmlns:xlink="http://www.w3.org/1999/xlink"><title>Untitled</title><defs><path id="a" d="M.06.96h277.735V86H.06V.96z"/><path id="c" d="M.06.96h277.735V86H.06V.96z"/></defs><g fill="none" fill-rule="evenodd"><mask id="b" fill="#fff"><use xlink:href="#a"/></mask><path d="M0 17.97h14.135v38.972H0V17.97zM0 .96h14.135v11.266H0V.96z" fill="#00324F" mask="url(#b)"/><path d="M62.89 38.54c0 1.635-.212 2.96-.633 3.973-.42 1.01-1.046 1.814-1.86 2.408-.82.59-1.85 1.002-3.085 1.226-1.24.227-2.646.338-4.223.338h-7.736c-1.976 0-3.52-.17-4.65-.51-1.124-.335-1.972-.814-2.53-1.436-.565-.617-.93-1.406-1.102-2.367-.166-.954-.255-2.024-.255-3.206V33.89c0-1.18.09-2.248.255-3.207.172-.957.537-1.746 1.102-2.366.558-.62 1.406-1.1 2.53-1.437 1.13-.338 2.674-.506 4.65-.506h7.735c1.576 0 2.982.113 4.222.334 1.236.227 2.265.637 3.084 1.227.815.59 1.44 1.398 1.86 2.406.422 1.016.633 2.343.633 3.975v4.225zM62.532.96V23.48h-.166c-.27-1.625-.84-2.96-1.705-4.026-.87-1.056-1.954-1.906-3.255-2.56-1.302-.65-2.723-1.096-4.268-1.346-1.546-.242-3.13-.36-4.757-.36h-3.538c-4.933 0-8.864.417-11.792 1.26-2.93.838-5.16 2.032-6.71 3.576-1.54 1.55-2.548 3.407-3.007 5.57-.46 2.173-.41 4.583-.41 7.24v7.48c0 2.66-.05 5.07.41 7.237.46 2.167 1.467 3.723 3.006 5.264 1.55 1.545 3.78 2.745 6.71 3.582 2.93.844 6.86 1.256 11.793 1.256H48.3c2.33 0 3.847-.185 5.558-.566 1.705-.38 3.156-.934 4.352-1.664 1.19-.733 2.153-1.602 2.884-2.608.73-.996 1.312-1.845 1.75-3.146h.16v7.287h13.443V.96H62.533zM201.797 56.91h14.172V.96h-14.173v55.95zM173.18 49.15c3.897 0 5.403-1.33 5.403-4.253 0-5.048-1.24-5.757-8.88-5.818h-6.71c-5.67-.028-7.032 1.39-7.088 4.4-.09 4.606 1.407 5.67 7.087 5.67h10.187zm-31.448-6.514c0-11.02 15.635-10.5 17.008-10.494 1.373.005 8.99 0 11.338 0 2.924 0 6.91.974 8.24 2.392l.265.272v-4.58c0-4.368-1.655-6.588-7.087-6.588h-8.504c-4.55 0-7.087.84-7.087 2.836H143.11c0-8.534 6.894-11.34 17.927-11.34h16.55c9.965 0 15.17 5.054 15.17 14.69v27.17h-14.174V51.9l-.853 1.502c-2.425 3.453-4.28 4.25-11.56 4.25h-10.05c-8.895 0-14.388-2.027-14.388-11.558v-3.458zM237.828 38.927c0 1.18.088 2.254.254 3.21.172.96.537 1.75 1.102 2.366.558.622 1.406 1.1 2.535 1.435 1.124.337 2.675.51 4.645.51h7.735c1.578 0 2.984-.11 4.222-.34 1.24-.22 2.266-.635 3.084-1.224.82-.592 1.44-1.395 1.862-2.408.42-1.014.636-2.336.636-3.973v-4.225c0-1.632-.216-2.96-.636-3.974-.422-1.008-1.04-1.813-1.862-2.405-.818-.59-1.843-1-3.084-1.227-1.238-.223-2.644-.336-4.222-.336h-7.735c-1.97 0-3.52.17-4.646.508-1.13.336-1.978.816-2.536 1.435-.565.62-.93 1.41-1.102 2.367-.166.958-.254 2.026-.254 3.206v5.074zm-13.89-7.543c0-13.518 8.87-16.25 16.718-16.25h20.408c7.85 0 16.73 2.732 16.73 16.25V41.41c0 13.512-8.88 16.242-16.73 16.242h-20.408c-7.85 0-16.72-2.73-16.72-16.243V31.383z" fill="#00324F"/><g><mask id="d" fill="#fff"><use xlink:href="#c"/></mask><path d="M99.39 30.31c0-4.37 1.733-6.672 7.17-6.672h8.337c5.43 0 7.17 2.302 7.17 6.672v1.832H99.39V30.31zm36.673 10.336V33.67c0-13.79-6.34-18.536-22.29-18.536h-10.535c-10.87 0-18.2 4.63-18.2 19.726v3.893c0 17.034 9.917 18.9 19.844 18.9h14.173c12.58 0 17.008-2.126 17.008-11.34H121.89c0 2.437-2.17 2.837-5.67 2.837h-9.92c-3.366 0-7.087-2.04-7.087-5.67v-2.834h36.85z" fill="#00324F" mask="url(#d)"/><path d="M0 86h277.795V74.66H0V86z" fill="#E36731" mask="url(#d)"/></g></g></svg>