<svg xmlns="http://www.w3.org/2000/svg" width="716.661" height="272.748"><g transform="matrix(4.33883 0 0 4.33883 0 -.004)"><circle r="21.935" cy="21.936" cx="81.756" opacity=".65" fill="#c7ce86"/><path d="M68.413.23l3.172 5.883c3.78-.117 6.083 1.46 6.765 3.48 8.643.076 10.39 4.462 11.354 9.832 2.52-2.176 4.656-4.495 6.615-6.636.645 1.18.84 2.284.786 3.533 2.363.06 4.342.55 5.096 1.145-5.2 5.23-11.1 8.376-18.576 11.168-2.82 2.04-3.715 3.324-5.205 5.47-.266.472-.233 1.156-.19 1.762-.66-.022-.97.063-1.295.47l-4.646-.065c1.725-1.59 2.154-1.8 4.545-1.76.847-1.198 1.845-2.397 2.432-3.166.316-.454.58-1.232.316-1.338-2.917 1.807-7.41 3.967-8.107 5.85-.696-.282-1.278.224-1.41.45l-2.72.028c-.4.755.16 1.605.462 1.928-.396-.055-.696-.094-1.09-.752-.716-1.9 1.13-2.917 3.873-3 1.09-1.398 4.4-2.527 6.957-5.376-5.105-2.63-6.428-5.04-7.296-11.897-1.012-1.037-2.795-2.397-2.583-8.346L61.972 4.39l7.432 2.333-.99-6.493z" fill="#3a4c56"/><path d="M68.57 8.243l.737 1.218c-.01 3.588-.2 4.773 3.33 7.21-1.723 15.837 15.085 12.1 26.89 1.058l-4.012-.052.297-2.23c-1.602 1.61-2.02 2.285-3.08 3.55-1.275 1.517-3.156 2.027-4.77 3.727 1.487-8.267-4.1-12.736-10.562-10.712-.677-2.953-2.158-4.578-6.445-4.448l-.28.826-2.104-.145z" fill="#fff"/><path d="M73.162 10.125c0 .684-.542 1.237-1.21 1.237-.668 0-1.208-.554-1.208-1.237 0-.682.54-1.236 1.208-1.236.668 0 1.21.553 1.21 1.235z" fill="#202d33"/><path d="M106.352 53.515h-8.47V52h2.127V41.95c0-2.163-.505-2.846-1.983-2.846-1.405 0-1.98.36-4.36 2.593V52h2.127v1.515h-8.468V52h2.126V31.168h-2.56v-1.153l5.19-1.405h1.584v11.177c2.343-2.378 3.605-3.026 5.874-3.026 3.028 0 4.684 1.586 4.684 4.505v10.738h2.128v1.512zM108.652 45.37c0-5.007 3.496-8.61 8.324-8.61 4.83 0 8.36 3.604 8.36 8.61 0 4.975-3.53 8.613-8.36 8.613-4.828 0-8.324-3.638-8.324-8.612zm4.577 0c0 4.002 1.55 6.813 3.747 6.813 2.2 0 3.748-2.81 3.748-6.812 0-4.034-1.55-6.845-3.748-6.845-2.198 0-3.748 2.81-3.748 6.846zM137.693 52c-1.838 1.48-2.92 1.983-4.324 1.983-2.235 0-3.748-1.477-3.748-3.638V39.39h-2.38v-1.154l2.38-.612V32.47h4.106v5.082h3.712v1.837h-3.712v11.243c0 .467.47.9 1.01.9.684 0 1.08-.145 2.198-.83l.757 1.298zM154.8 51.57c-3.53 1.98-4.793 2.413-7.314 2.413-4.83 0-8.037-3.423-8.037-8.54 0-5.225 3.28-8.684 8.252-8.684 4.18 0 6.954 2.594 6.954 6.558v1.37h-10.774c0 4.467 2.02 7.242 5.26 7.242 1.336 0 2.054-.29 4.83-1.946l.828 1.585zm-4.612-8.72v-.866c0-2.162-1.046-3.675-2.52-3.675-1.91 0-3.425 1.8-3.75 4.54h6.27zM165.174 53.515h-8.467V52h2.126V31.168h-2.415v-1.153l5.188-1.405h1.44V52h2.127v1.513z" fill="#92a834"/><g fill="#274147"><path d="M8.76 53.482H.287V51.97h2.127V29.473H0V28.32l5.19-1.406h1.442V51.97H8.76v1.512zM20.655 53.482h-8.47V51.97h2.125V39.35h-2.38v-1.153l5.192-1.406h1.406v15.18h2.126v1.512zm-4.397-25.45c1.405 0 2.56 1.152 2.56 2.56 0 1.44-1.154 2.56-2.56 2.56-1.406 0-2.56-1.12-2.56-2.56 0-1.407 1.155-2.56 2.56-2.56zM43.33 53.482h-8.47V51.97h2.126V41.91c0-2.163-.47-2.848-1.948-2.848-1.405 0-2.018.36-4.36 2.596v10.31h2.09v1.514h-8.472V51.97h2.127V39.35H23.9v-1.153l5.193-1.406h1.586v2.957c2.34-2.38 3.567-3.028 5.837-3.028 3.066 0 4.688 1.585 4.688 4.505V51.97h2.127v1.512zM66.044 52.474L60.85 53.77h-1.548v-3.027c-2.415 2.524-3.64 3.21-5.84 3.21-3.102 0-4.722-1.587-4.722-4.652v-9.95h-2.562v-1.153l5.192-1.406h1.586v11.79c0 2.055.65 2.956 2.127 2.956 1.407 0 2.307-.577 4.218-2.63V39.35h-1.84v-1.296l4.76-1.262h1.3v14.492h2.523v1.19zM83.96 53.482h-7.39V51.97h1.295l-2.595-4.292-3.353 4.29h1.875v1.514h-5.59V51.97h1.552l4.542-5.914-4.398-7.39h-1.332V37.15h7.57v1.515h-1.48L77 42.56l2.99-3.894h-1.476v-1.514h5.192v1.514h-1.55l-4.184 5.48 4.65 7.823h1.335v1.512h.002z"/></g></g><text style="text-align:justify;line-height:125%;-inkscape-font-specification:DejaVu Sans" x="28.647" y="531.881" transform="matrix(1.05407 0 0 .9487 -15.955 -238.845)" font-size="35.461" font-family="DejaVu Sans"><tspan x="28.647" y="531.881" style="text-align:justify;line-height:125%;-inkscape-font-specification:DejaVu Sans">Schulungen bei den OpenSource&apos;lern</tspan></text></svg>