<?xml version="1.0" encoding="UTF-8" standalone="no"?>
<!-- Created with Inkscape (http://www.inkscape.org/) -->

<svg
   xmlns:dc="http://purl.org/dc/elements/1.1/"
   xmlns:cc="http://creativecommons.org/ns#"
   xmlns:rdf="http://www.w3.org/1999/02/22-rdf-syntax-ns#"
   xmlns:svg="http://www.w3.org/2000/svg"
   xmlns="http://www.w3.org/2000/svg"
   version="1.1"
   width="2794"
   height="584"
   id="svg3128">
  <metadata
     id="metadata3134">
    <rdf:RDF>
      <cc:Work
         rdf:about="">
        <dc:format>image/svg+xml</dc:format>
        <dc:type
           rdf:resource="http://purl.org/dc/dcmitype/StillImage" />
        <dc:title></dc:title>
      </cc:Work>
    </rdf:RDF>
  </metadata>
  <defs
     id="defs3132" />
  <path
     d="m 1495.6752,582.86629 c -4.4287,-1.2466 -15.7287,-8.0845 -15.719,-9.512 0,-0.3455 1.2398,-2.4896 2.75,-4.7647 l 2.7457,-4.1365 3.8455,3.3251 c 5.0272,4.3468 11.4413,6.4479 19.6834,6.4479 7.6401,0 12.0862,-1.2479 16.7303,-4.696 5.2759,-3.9171 7.2408,-8.9284 7.2408,-18.4671 l 0,-8.2428 -3.75,3.6536 c -5.8623,5.7116 -12.3751,8.2251 -21.2803,8.2125 -9.3998,-0.013 -16.9365,-3.3434 -22.9008,-10.1192 -6.6206,-7.5214 -8.4704,-13.6815 -8.5105,-28.341 -0.03,-10.8293 0.2815,-13.3019 2.3281,-18.5 3.0727,-7.8042 11.6139,-16.4603 18.5862,-18.836 10.97,-3.7378 23.1489,-1.3252 31.8427,6.3081 l 3.6846,3.2351 0,-4.6036 0,-4.6036 6,0 6,0 0,39.8185 c 0,45.9211 -0.1842,47.2569 -7.6116,55.1974 -6.6293,7.0872 -12.427,9.2471 -25.8884,9.6443 -7.1286,0.2103 -12.6811,-0.1487 -15.7767,-1.02 z m 26.6266,-41.1068 c 2.1174,-1.0208 5.3799,-3.2991 7.25,-5.0628 l 3.4001,-3.2067 0,-17.4358 0,-17.4357 -3.25,-3.0884 c -5.4872,-5.2143 -10.8078,-7.304 -18.5971,-7.304 -6.1553,0 -7.466,0.362 -11.7674,3.25 -6.2375,4.188 -10.1855,11.6178 -11.0287,20.7551 -1.7656,19.1334 8.5678,32.7255 24.1432,31.7573 3.3,-0.2052 7.7324,-1.2082 9.8499,-2.229 z m 1050.1147,40.4923 c -3.3239,-1.083 -7.9274,-3.5859 -10.2465,-5.571 l -4.2111,-3.6045 3.0805,-4.4774 3.0806,-4.4774 2.6528,2.6528 c 4.5625,4.5625 10.055,6.7462 18.1791,7.2276 4.125,0.2444 9.4184,-0.074 11.7631,-0.7078 4.8618,-1.3139 10.6019,-5.9394 12.9103,-10.4033 1.4475,-2.7992 3.255,-19.6647 2.1074,-19.6647 -0.2756,0 -2.0981,1.5063 -4.0501,3.3472 -10.557,9.9566 -26.9969,11.0699 -39.2256,2.6563 -17.197,-11.8318 -19.5061,-46.6482 -4.1678,-62.8428 5.0069,-5.2865 12.0747,-8.4016 20.2837,-8.94 9.3863,-0.6157 15.7399,1.5001 22.3492,7.4425 l 5.0298,4.5222 0,-5.0927 0,-5.0927 6.061,0 6.061,0 -0.349,40.75 c -0.3804,44.4139 -0.3211,43.9283 -6.4238,52.5669 -2.3186,3.2821 -4.9542,5.348 -9.979,7.8216 -6.3425,3.1225 -7.6119,3.379 -17.8492,3.6075 -8.737,0.1951 -12.2718,-0.1614 -17.0564,-1.7203 z m 29.8552,-41.3672 c 2.4582,-1.4406 5.6418,-4.0126 7.0748,-5.7156 2.5753,-3.0605 2.6054,-3.2858 2.6054,-19.4863 l 0,-16.3899 -3.3917,-3.3917 c -5.7929,-5.7929 -11.5247,-7.9483 -19.9987,-7.5204 -9.7974,0.4948 -14.3457,3.5327 -18.7828,12.5456 -2.8137,5.7155 -3.1597,7.3719 -3.1559,15.1095 0.01,13.1927 4.5936,21.9356 13.8291,26.3578 5.7298,2.7435 15.7453,2.0509 21.8198,-1.509 z m -2011.78044,13.8751 c -5.96316,-1.6004 -11.83865,-7.3472 -13.45182,-13.157 -0.65495,-2.3588 -1.07856,-15.3286 -1.08195,-33.1266 l -0.006,-29.25 6,0 6,0 0,27.5989 c 0,23.7367 0.23428,28.0926 1.67414,31.1269 4.53894,9.5651 22.59123,9.3866 32.58697,-0.3223 l 3.73889,-3.6316 0,-27.3859 0,-27.386 6.01217,0 6.01217,0 -0.26217,37.25 -0.26217,37.25 -5.75,0.2999 -5.75,0.2999 0,-5.0731 0,-5.0732 -5.06396,4.0028 c -5.48893,4.3388 -15.73311,8.0884 -21.79138,7.9762 -2.00456,-0.037 -5.87695,-0.6666 -8.60531,-1.3989 z m 294.50595,0.3741 c -15.34393,-3.0078 -26.55325,-15.4729 -29.19956,-32.4706 -2.67392,-17.1751 6.42981,-35.3973 21.15426,-42.3427 4.78333,-2.2563 6.80304,-2.593 15.5,-2.5836 8.95159,0.01 10.54691,0.2979 15.21657,2.7499 2.86912,1.5065 6.86425,4.3868 8.87807,6.4006 6.2395,6.2395 11.40541,19.8163 11.40541,29.9752 l 0,3.3635 -30.00005,0 c -33.88695,0 -31.55525,-0.6595 -28.48038,8.0556 6.03091,17.0935 24.97256,22.6438 42.09312,12.3344 l 5.83689,-3.5148 2.71243,3.3124 2.71244,3.3124 -2.65218,2.7791 c -3.49617,3.6634 -11.29983,7.2723 -18.65598,8.6277 -6.75106,1.2438 -10.17922,1.244 -16.52104,9e-4 z m 30.9547,-45.7295 c 0,-7.8277 -8.10864,-18.7052 -15.61602,-20.9483 -13.74036,-4.1056 -26.17581,2.1114 -30.94004,15.4681 -2.78083,7.7961 -4.30715,7.302 22.55606,7.302 22.55111,0 24,-0.11 24,-1.8218 z m 170.02419,45.2831 c -19.2927,-5.4111 -30.6833,-24.1986 -27.2463,-44.9401 3.1796,-19.188 16.4215,-31.5202 34.7221,-32.3369 10.2958,-0.4594 17.821,2.165 24.7251,8.6231 7.4307,6.9505 12.6158,20.1389 12.7551,32.4426 0.018,1.6282 -2.0679,1.75 -29.9802,1.75 l -30,0 0.01,2.75 c 0.015,4.3421 4.3046,12.415 8.7026,16.3793 5.1242,4.6191 10.1147,6.3249 18.2876,6.2507 6.9427,-0.063 12.0102,-1.753 18.317,-6.1087 l 3.817,-2.6361 2.397,2.9324 c 2.9973,3.6667 3.0259,4.5913 0.219,7.0735 -8.5876,7.5941 -25.0407,11.0975 -36.7258,7.8202 z m 32.4128,-47.2113 c -1.1311,-6.4896 -5.6839,-13.4601 -10.9237,-16.7247 -6.6376,-4.1354 -15.9835,-4.7247 -22.9556,-1.4474 -6.7217,3.1596 -13.2451,12.6784 -13.4816,19.6721 l -0.076,2.25 24.0453,0 24.0453,0 -0.6536,-3.75 z m 84.1523,47.6903 c -6.3902,-1.5945 -10.244,-4.6064 -13.0188,-10.1746 l -2.5705,-5.1584 0,-30.3036 0,-30.3037 6,0 6,0 0,28.3521 c 0,27.8714 0.039,28.4098 2.2846,31.75 5.5236,8.2151 21.0652,7.6236 31.0693,-1.1824 l 4.6461,-4.0896 0,-27.4151 0,-27.415 6.0122,0 6.0121,0 -0.2621,37.25 -0.2622,37.25 -5.75,0.2999 -5.75,0.2999 0,-5.0345 0,-5.0346 -5.25,3.9749 c -8.455,6.4015 -20.1509,9.1829 -29.1607,6.9347 z m 171.4107,-0.4888 c -10.1235,-2.8221 -17.5846,-10.0174 -21.5981,-20.8285 -1.5001,-4.0405 -1.8977,-7.7641 -1.8819,-17.623 0.025,-15.9042 2.0348,-21.7177 10.3926,-30.0667 6.6101,-6.6031 12.3702,-8.9378 22.0155,-8.9235 7.7774,0.012 14.6382,2.7967 20.9615,8.5094 l 4.1104,3.7135 0,-19.6163 0,-19.6164 5.5,0 5.5,0 0,52 0,52 -5.5,0 -5.5,0 0,-5 c 0,-2.75 -0.1774,-5 -0.3942,-5 -0.2169,0 -1.9044,1.4202 -3.75,3.1561 -7.6691,7.2126 -19.6507,10.1404 -29.8558,7.2954 z m 23.6823,-12.7905 c 2.7815,-1.4095 6.2408,-3.9693 7.6874,-5.6885 2.6119,-3.1041 2.6303,-3.2433 2.6303,-19.9218 l 0,-16.796 -4.3087,-3.9715 c -5.9773,-5.5097 -11.9705,-7.6257 -20.1273,-7.1064 -8.6737,0.5523 -13.8504,4.0769 -18.0515,12.2906 -2.7312,5.3399 -3.0122,6.7837 -3.0088,15.4613 0,11.0226 2.2333,17.4856 7.9375,23.0144 6.7934,6.5843 17.5025,7.6528 27.2411,2.7179 z m 242.7012,12.9887 c -10.9718,-2.7945 -20.3893,-11.0347 -24.5747,-21.5026 -1.878,-4.6966 -2.2622,-7.5826 -2.2834,-17.1471 -0.024,-10.8529 0.1519,-11.8742 3.1259,-18.1512 3.8642,-8.1561 9.7404,-14.2031 17.2007,-17.7008 4.929,-2.3109 6.921,-2.648 15.648,-2.648 8.727,0 10.719,0.3371 15.648,2.648 7.4441,3.4901 13.3512,9.5573 17.0958,17.5593 2.4923,5.326 3.1338,8.1827 3.5275,15.7108 0.7644,14.6132 -3.5962,25.9963 -13.0623,34.099 -7.8593,6.7273 -21.8214,9.808 -32.3255,7.1326 z m 19.2251,-11.9473 c 4.6081,-2.3829 8.4677,-6.732 11.2726,-12.7024 3.3933,-7.2226 3.6114,-20.0015 0.4609,-27 -4.6973,-10.4345 -11.3454,-15 -21.8421,-15 -10.4144,0 -17.1925,4.5243 -21.5536,14.3866 -7.3581,16.64 -0.1778,36.8358 14.8176,41.6772 3.8051,1.2285 13.324,0.4592 16.8446,-1.3614 z m 82.7749,11.9497 c -5.9012,-1.5058 -12.8401,-5.3446 -16.2397,-8.9844 l -2.3562,-2.5227 2.7249,-3.5725 c 3.1819,-4.1717 3.5549,-4.2615 6.0825,-1.4644 1.0478,1.1595 4.155,3.2695 6.905,4.689 4.0174,2.0737 6.4739,2.5929 12.5,2.6419 9.0328,0.073 13.5527,-2.0697 16.3494,-7.7526 3.5587,-7.2309 -0.3397,-12.4632 -11.7704,-15.7978 -19.778,-5.7695 -23.9073,-7.7047 -27.8767,-13.0641 -2.1161,-2.8571 -3.3598,-11.0688 -2.3099,-15.2519 0.9063,-3.6109 5.7365,-8.7754 13.1654,-14.0766 9.1967,-6.5626 10.4922,-9.9063 5.936,-15.321 -6.1496,-7.3083 -20.7897,-6.1773 -26.665,2.0599 -2.3287,3.265 -2.3288,3.2665 -2.8288,45.2651 l -0.5,42 -5.75,0.2999 -5.75,0.2999 0,-41.3717 c 0,-35.9957 0.2166,-42.0076 1.6672,-46.2648 2.3061,-6.7679 9.3424,-13.6363 16.3912,-15.9999 11.7194,-3.9298 26.4903,-1.0259 33.3385,6.5542 4.0992,4.5373 5.0401,7.4133 4.37,13.358 -0.682,6.0508 -3.0528,9.079 -12.0362,15.3739 -9.258,6.4872 -11.7607,10.3497 -9.7895,15.1087 1.5023,3.6268 5.2575,5.5364 17.1414,8.7168 15.6635,4.1918 21.0434,7.2896 24.012,13.8261 3.6861,8.1166 1.648,18.8266 -4.7185,24.7953 -6.722,6.302 -21.1694,9.2173 -31.9926,6.4557 z m 75.6407,-0.1908 c -19.2927,-5.4111 -30.6833,-24.1986 -27.2463,-44.9401 3.1796,-19.188 16.4215,-31.5202 34.7221,-32.3369 20.5393,-0.9165 34.4362,12.6522 36.9379,36.0657 l 0.7213,6.75 -30.0796,0 -30.0796,0 0.01,2.75 c 0.015,4.3421 4.3046,12.415 8.7026,16.3793 5.1242,4.6191 10.1147,6.3249 18.2876,6.2507 6.9427,-0.063 12.0102,-1.753 18.317,-6.1087 l 3.817,-2.6361 2.397,2.9324 c 2.9973,3.6667 3.0259,4.5913 0.219,7.0735 -8.5876,7.5941 -25.0407,11.0975 -36.7258,7.8202 z m 32.4128,-47.2113 c -1.1311,-6.4896 -5.6839,-13.4601 -10.9237,-16.7247 -6.6376,-4.1354 -15.9835,-4.7247 -22.9556,-1.4474 -6.7217,3.1596 -13.2451,12.6784 -13.4816,19.6721 l -0.076,2.25 24.0453,0 24.0453,0 -0.6536,-3.75 z m 430.6083,47.6577 c -19.5675,-3.8358 -31.9329,-23.0139 -28.9129,-44.8426 2.5857,-18.6893 16.1627,-31.834 33.9442,-32.8634 21.1284,-1.2231 35.6898,12.6965 37.6421,35.9829 l 0.5714,6.8154 -30.2564,0 -30.2563,0 0.6938,3.75 c 1.0903,5.894 5.6388,13.3829 10.2579,16.8892 4.9343,3.7457 13.3723,5.838 19.566,4.8519 4.8522,-0.7726 14.2901,-4.8058 17.0136,-7.2705 1.768,-1.5999 2.0103,-1.5083 4.7503,1.7967 1.5879,1.9155 2.8993,3.783 2.9141,4.15 0.015,0.367 -2.669,2.4675 -5.9639,4.6677 -9.0965,6.0744 -20.7045,8.2798 -31.9639,6.0727 z m 30.5482,-48.1577 c -0.9002,-5.779 -5.2626,-12.5709 -10.3877,-16.173 -5.4079,-3.8007 -14.8783,-4.7376 -21.6704,-2.1437 -5.962,2.277 -12.0082,9.0524 -13.9685,15.6533 -0.8618,2.902 -1.5669,5.6448 -1.5669,6.0949 0,0.4502 10.8575,0.8185 24.1278,0.8185 l 24.1278,0 z m 95.9065,48.3825 c -7.7708,-2.0338 -13.0126,-6.7523 -15.0235,-13.5236 -1.1528,-3.8819 -1.4765,-11.2894 -1.4765,-33.7904 l 0,-28.8185 6,0 6,0 0,27.1843 c 0,25.4058 0.1348,27.4627 2.0603,31.4403 1.6378,3.3831 2.9727,4.6045 6.5084,5.9548 8.1584,3.1157 18.8451,0.5072 26.2462,-6.4065 l 3.1851,-2.9753 0,-27.5988 0,-27.5988 6,0 6,0 0,37.5 0,37.5 -6,0 -6,0 0,-5.1036 0,-5.1036 -3.7044,3.2525 c -7.5848,6.6596 -21.1657,10.3457 -29.7956,8.0872 z m 261.5242,-0.6712 c -19.2927,-5.4111 -30.6833,-24.1986 -27.2463,-44.9401 3.1796,-19.188 16.4215,-31.5202 34.7221,-32.3369 10.2865,-0.459 17.822,2.166 24.7081,8.6072 7.5428,7.0553 12.6309,19.9862 12.7721,32.4585 0.018,1.6284 -2.074,1.75 -30.108,1.75 l -30.1278,0 0.6543,4.0918 c 0.922,5.766 3.81,10.9606 8.3982,15.1057 5.0372,4.5509 10.0589,6.2564 18.2031,6.1825 6.9427,-0.063 12.0102,-1.753 18.317,-6.1087 l 3.817,-2.6361 2.397,2.9324 c 2.9973,3.6667 3.0259,4.5913 0.219,7.0735 -8.5876,7.5941 -25.0407,11.0975 -36.7258,7.8202 z m 32.4128,-47.2113 c -1.1311,-6.4896 -5.6839,-13.4601 -10.9237,-16.7247 -6.6376,-4.1354 -15.9835,-4.7247 -22.9556,-1.4474 -6.7217,3.1596 -13.2451,12.6784 -13.4816,19.6721 l -0.076,2.25 24.0453,0 24.0453,0 -0.6536,-3.75 z m -2164.77032,46.0834 c -0.36667,-0.3667 -0.66667,-14.9917 -0.66667,-32.5 l 0,-31.8334 -6,0 -6,0 0,-5 0,-5 5.87079,0 5.87079,0 0.71259,-7.2317 c 0.85578,-8.6848 2.59735,-13.1835 6.77442,-17.4994 6.83507,-7.0623 21.3258,-7.562 29.5253,-1.0182 0.982,0.7837 0.78171,1.7866 -0.92366,4.625 -1.19765,1.9934 -2.2953,3.7827 -2.43922,3.9763 -0.14392,0.1936 -1.2909,-0.3689 -2.54885,-1.25 -2.57622,-1.8044 -9.98133,-2.133 -12.89755,-0.5723 -2.87823,1.5404 -4.89504,6.2027 -5.59978,12.9452 l -0.62974,6.0251 7.64245,0 7.64246,0 0,5 0,5 -7.5,0 -7.5,0 0,32.5 0,32.5 -5.33333,0 c -2.93334,0 -5.63334,-0.3 -6,-0.6666 z m 123.00001,0 c -0.36667,-0.3667 -0.66667,-17.2417 -0.66667,-37.5 l 0,-36.8334 6,0 6,0 0,5.7082 0,5.7082 4.25,-4.1036 c 4.98485,-4.8132 10.93959,-7.9996 16.65823,-8.9141 l 4.09177,-0.6543 0,6.1278 0,6.1278 -4.25,0.022 c -5.46547,0.028 -12.2517,3.1163 -17,7.7357 l -3.75,3.6483 0,26.797 0,26.7971 -5.33333,0 c -2.93334,0 -5.63334,-0.3 -6,-0.6667 z m 88.33333,-51.3334 0,-52 6,0 6,0 0,33.9012 0,33.9011 19.17418,-19.4011 19.17417,-19.4012 7.55951,0 7.55952,0 -10.99345,11.25 c -6.0464,6.1875 -13.41937,13.8078 -16.38438,16.9341 l -5.39093,5.684 16.15069,20.0066 c 8.88288,11.0036 16.15069,20.2583 16.15069,20.566 0,0.3076 -3.2625,0.5559 -7.25,0.5517 l -7.25,-0.01 -11.5,-14.5707 c -6.325,-8.0139 -12.26681,-15.548 -13.20402,-16.7424 l -1.70401,-2.1717 -6.04599,5.9687 -6.04598,5.9687 0,10.7813 0,10.7813 -6,0 -6,0 0,-52 z m 78,0 0,-52 6,0 6,0 0,52 0,52 -6,0 -6,0 z m 119.00004,14.5 0,-37.5 6.00001,0 6,0 0,37.5 0,37.5 -6,0 -6.00001,0 z m 34.00001,0 0,-37.5 6,0 6,0 0,4.5841 0,4.584 4.0715,-3.2248 c 12.86623,-10.1902 32.04743,-10.7212 40.13383,-1.111 4.9662,5.902 5.2946,8.3934 5.2946,40.1677 l 0,29.5 -5.68,0.2978 -5.6801,0.2979 -0.3199,-28.2979 c -0.2897,-25.618 -0.4986,-28.5927 -2.2055,-31.4122 -2.8524,-4.7114 -6.4817,-6.3888 -13.7688,-6.3636 -7.3776,0.025 -13.6697,2.4721 -18.59563,7.2308 l -3.25,3.1396 0,27.8038 0,27.8038 -6,0 -6,0 z m 291.66663,36.8334 c -0.3667,-0.3667 -0.6667,-17.2417 -0.6667,-37.5 l 0,-36.8334 6,0 6,0 0,5.1962 0,5.1962 3.25,-3.1269 c 1.7875,-1.7197 5.725,-4.3937 8.75,-5.9422 4.825,-2.4699 6.6046,-2.8159 14.5,-2.8193 10.4147,-0.01 15.5054,1.9707 19.2395,7.4654 3.8359,5.6442 4.2492,9.5083 4.2549,39.7806 l 0.01,29.25 -6,0 -6,0 0,-27.5321 c 0,-30.6398 -0.3844,-32.9028 -6.1898,-36.4422 -2.4359,-1.4852 -5.027,-2.0134 -9.8102,-2 -7.6274,0.021 -12.8425,2.0739 -18.2658,7.1886 l -3.7342,3.5219 0,27.6319 0,27.6319 -5.3333,0 c -2.9334,0 -5.6334,-0.3 -6,-0.6666 z m 296.3333,-36.8334 0,-37.5 6,0 6,0 0,5.4989 0,5.4989 4.0572,-3.9374 c 4.7453,-4.6051 10.7299,-7.7047 16.6928,-8.6455 l 4.25,-0.6705 0,6.1278 0,6.1278 -4.3403,0 c -5.4296,0 -15.8087,4.9961 -18.6403,8.9727 -1.9042,2.6742 -2.0194,4.3537 -2.0194,29.4317 l 0,26.5956 -6,0 -6,0 z m 352,-14.4867 0,-52.0133 34.0499,0 34.0499,0 -0.2999,5.75 -0.2999,5.75 -27.25,0.2661 -27.25,0.2661 0,16.4839 0,16.4839 26.5,0 26.5,0 0,6 0,6 -26.5,0 -26.5,0 0,17.5 0,17.5 27.5499,0 27.5499,0 -0.2999,5.75 -0.2999,5.75 -33.75,0.2633 -33.75,0.2633 z m 86,14.4867 0,-37.5 6,0 6,0 0,5.3199 0,5.3199 4.6031,-4.2866 c 4.6158,-4.2985 13.3214,-8.3532 17.9344,-8.3532 2.3373,0 2.4625,0.2988 2.4625,5.8762 l 0,5.8762 -5.25,0.4457 c -6.2826,0.5333 -11.7335,2.9775 -16.3499,7.3313 l -3.4001,3.2068 0,27.1319 0,27.1319 -6,0 -6,0 z m 50,0 0,-37.5 6,0 6,0 0,37.5 0,37.5 -6,0 -6,0 z m 33.6667,36.8334 c -0.3667,-0.3667 -0.6667,-17.2417 -0.6667,-37.5 l 0,-36.8334 6,0 6,0 0,5.1036 0,5.1036 3.5369,-3.1054 c 6.1006,-5.3564 13.2128,-8.3653 20.9631,-8.8687 8.6316,-0.5607 14.4831,0.9352 18.9294,4.8391 6.0669,5.3268 6.5706,8.5586 6.5706,42.1559 l 0,29.8717 -5.75,-0.2999 -5.75,-0.2999 -0.5,-28.679 c -0.4731,-27.1353 -0.6128,-28.8308 -2.5964,-31.5 -3.0182,-4.0614 -6.0702,-5.2895 -13.1868,-5.3062 -7.1821,-0.017 -13.868,2.7903 -19.095,8.0173 l -3.1218,3.1218 0,27.423 0,27.4231 -5.3333,0 c -2.9334,0 -5.6334,-0.3 -6,-0.6666 z m 83.3333,-36.8334 0,-37.5 6,0 6,0 0,5.1164 0,5.1163 4.1276,-3.729 c 5.6027,-5.0617 12.0238,-7.71 20.0938,-8.2874 8.7284,-0.6245 15.0919,1.1637 19.3718,5.4436 5.774,5.774 6.4068,9.974 6.4068,42.5216 l 0,28.8185 -6,0 -6,0 0,-27.5321 c 0,-30.6398 -0.3844,-32.9028 -6.1898,-36.4422 -2.4359,-1.4852 -5.027,-2.0134 -9.8102,-2 -7.4297,0.021 -12.7074,2.0225 -18.3154,6.9464 l -3.6846,3.2351 0,27.8964 0,27.8964 -6,0 -6,0 z m 169,0 0,-37.5 6,0 6,0 0,5.6004 0,5.6003 5.5566,-5.0784 c 3.7651,-3.4411 7.2089,-5.5691 10.6815,-6.6003 8.5247,-2.5316 8.7619,-2.4104 8.7619,4.478 l 0,6 -4.25,0.022 c -5.4655,0.028 -12.2517,3.1163 -17,7.7357 l -3.75,3.6483 0,26.797 0,26.7971 -6,0 -6,0 0,-37.5 z m 134,0.05 0,-37.5499 6,0 6,0 0,4.4934 0,4.4934 4.4656,-3.4087 c 11.9047,-9.087 29.1853,-10.2135 37.9968,-2.4769 6.5301,5.7334 7.0376,8.7551 7.0376,41.8988 l 0,29.5 -5.75,0.2999 -5.75,0.2999 0,-25.0007 c 0,-29.1797 -0.6697,-33.7239 -5.6095,-38.0611 -3.1492,-2.765 -4.089,-3.038 -10.4585,-3.038 -7.8717,0 -14.3215,2.5894 -19.1655,7.6943 l -2.7336,2.8808 -0.2664,27.4625 -0.2665,27.4624 -5.75,0.2999 -5.75,0.2999 z m 256,-0.05 0,-37.5 6,0 6,0 0,4.4984 0,4.4983 5.0067,-3.597 c 7.1944,-5.1686 13.7847,-7.4037 21.754,-7.3777 11.8818,0.039 19.9783,5.8712 22.1395,15.9484 0.6512,3.0362 1.0998,16.5297 1.0998,33.0788 l 0,27.9508 -5.9429,0 -5.9429,0 -0.3071,-28.25 c -0.269,-24.7485 -0.5261,-28.6507 -2.074,-31.483 -2.4508,-4.4844 -6.4372,-6.2711 -13.9334,-6.245 -7.2155,0.025 -12.5661,2.078 -18.1151,6.9501 l -3.6846,3.2351 0,27.8964 0,27.8964 -6,0 -6,0 z M 589.21071,467.45229 c -4.92074,-0.7969 -6.97626,-8.5087 -3.2588,-12.2262 2.55355,-2.5535 8.10588,-2.6454 10.34501,-0.1712 0.91025,1.0058 1.65499,3.411 1.65499,5.345 0,4.9101 -3.67267,7.8732 -8.7412,7.0524 z m 31.2013,-0.2517 c -3.01718,-1.1161 -4.79343,-3.7155 -4.79343,-7.0149 0,-4.0766 2.89488,-6.9596 6.98832,-6.9596 5.83207,0 9.16291,5.7347 6.36612,10.9606 -1.25105,2.3376 -5.93328,3.986 -8.56101,3.0139 z m 324.99445,-1.429 c -1.3581,-1.3581 -2.4545,-3.626 -2.4545,-5.0769 0,-2.8857 4.8626,-8.4686 7.37601,-8.4686 4.5621,0 8.624,4.2826 8.624,9.0925 0,3.0832 -4.4292,6.9075 -8,6.9075 -1.9484,0 -3.99831,-0.9073 -5.54551,-2.4545 z m 1109.61804,-0.1803 c -3.9317,-4.9983 -1.7506,-11.4039 4.4092,-12.95 5.0187,-1.2596 10.2699,4.7417 8.9056,10.1776 -1.421,5.6614 -9.6882,7.3829 -13.3148,2.7724 z"
     id="path3138-8"
     style="fill:#4d4d4d" />
  <path
     d="m 400.34072,550.81947 c -4.19602,-1.82872 -5.81766,-4.11067 -5.22669,-7.35493 0.27643,-1.51754 3.88178,-10.18416 8.01189,-19.25916 18.09007,-39.74894 29.9098,-77.52869 48.64074,-155.47178 l 7.92364,-32.97179 -9.45447,-14.82422 C 422.93425,278.1298 406.0231,244.93306 377.52492,178.20538 c -10.68772,-25.025 -22.63883,-52.7823 -26.55802,-61.68288 -3.91918,-8.90059 -7.12579,-17.397457 -7.12579,-18.881927 0,-5.83771 11.25486,-12.43519 21.21362,-12.43519 4.55768,0 9.60796,1.96135 12.01376,4.66573 2.63894,2.96645 11.97379,25.762107 28.59722,69.834267 17.67791,46.86781 23.35651,60.33733 34.57031,82 7.87831,15.21924 20.4255,36.84497 26.93812,46.42926 l 3.00972,4.42927 3.37751,-12.92927 c 15.12899,-57.91453 30.24018,-103.80385 47.14716,-143.1754 8.85083,-20.61107 22.64729,-47.722927 25.74786,-50.597947 3.4998,-3.24519 10.27252,-5.0802 15.90222,-4.30857 8.56108,1.17343 16.4825,7.00698 16.4825,12.13816 0,1.21868 -3.41717,8.824737 -7.59371,16.902337 -9.80379,18.96094 -16.86531,34.66734 -25.90213,57.61216 -16.95576,43.05129 -26.7958,75.60198 -49.89933,165.06625 -18.35282,71.06795 -24.1179,91.49296 -35.54557,125.93375 -10.72981,32.33758 -28.68148,77.02822 -34.82667,86.70089 -3.45454,5.43754 -17.24437,8.17688 -24.73298,4.9132 z m 208.50039,-187.11409 0,-23.5 17,0 17,0 0,-101.5 0,-101.5 -14.5,0 -14.5,0 0,-23.5 0,-23.499997 47,0 47,0 0,11.999997 c 0,6.6 0.38026,12 0.84501,12 0.46476,0 1.70226,-0.94928 2.75,-2.10951 3.25207,-3.6012 13.62127,-11.49706 19.90499,-15.157087 14.20993,-8.27676 30.75371,-11.60595 48.07535,-9.67447 29.4789,3.28709 50.40918,19.663607 65.43483,51.198317 12.55186,26.34289 15.45152,59.8442 7.84832,90.67571 -7.25316,29.41205 -26.82862,54.1414 -50.78759,64.15912 -13.91999,5.82023 -36.07024,7.68656 -51.3735,4.32862 -9.3987,-2.06232 -25.34162,-9.87079 -34.42348,-16.85982 -3.97433,-3.05848 -7.46807,-5.56088 -7.76385,-5.56088 -0.29578,0 -0.41905,14.5125 -0.27393,32.25 l 0.26385,32.25 20.75,0.27029 20.75,0.27029 0,23.47971 0,23.47971 -70.5,0 -70.5,0 z M 763.57019,245.03379 c 7.04854,-2.6372 15.62653,-10.60891 19.34744,-17.98 7.69618,-15.24604 8.99729,-42.62663 2.87586,-60.51964 -5.89424,-17.22897 -19.25349,-26.90091 -36.95238,-26.7531 -11.91214,0.0995 -18.58687,2.82399 -26.54898,10.83682 -9.61268,9.6739 -13.2684,19.64801 -14.16455,38.64597 -0.94251,19.9806 3.52984,35.14963 13.60579,46.1473 10.80692,11.7955 26.42702,15.38819 41.83682,9.62265 z M 12.616248,350.64658 c -1.498672,-0.8133 -3.1861715,-2.3407 -3.7499992,-3.39422 C 7.467027,344.63789 7.6058259,324.15184 9.3442252,276.70538 12.353798,194.56452 10.495947,150.85449 2.3673312,112.55861 -0.65775195,98.306713 -0.70713576,96.616773 1.7821774,92.534263 c 6.2537913,-10.2563 26.8343736,-12.46516 31.5303876,-3.38407 2.64833,5.1213 8.094115,45.802437 10.515799,78.555187 0.904865,12.23811 2.909641,60.86041 3.030523,73.5 0.03551,3.71313 0.231838,4.17511 1.122767,2.64199 0.593851,-1.02191 8.190758,-23.29691 16.882014,-49.5 27.773269,-83.73306 33.842901,-95.559717 53.506912,-104.258047 15.20089,-6.72408 33.71633,-1.1431 39.22248,11.822557 4.2333,9.96842 8.0272,38.97132 11.25509,86.04092 2.03479,29.67154 4.04006,43.5541 7.97516,55.2124 2.48005,7.34751 5.66737,12.37479 7.23242,11.40754 1.73272,-1.07089 10.72286,-20.82089 24.74782,-54.36736 22.4402,-53.67494 34.46311,-76.02004 49.31642,-91.65672 8.43112,-8.875777 17.01354,-14.703297 25.57648,-17.366597 18.05488,-5.61556 29.29444,0.73352 36.38774,20.554937 3.9345,10.99449 5.55115,22.5346 8.26089,58.96838 1.39079,18.7 3.43471,41.425 4.54203,50.5 5.16686,42.34472 14.8839,71.54921 31.44244,94.5 7.99804,11.0856 8.38678,13.86008 2.73401,19.51285 -9.24357,9.24357 -28.7135,9.32287 -36.43331,0.1484 -7.03168,-8.35668 -16.04419,-28.5944 -21.34144,-47.92251 -7.8455,-28.62593 -12.61428,-58.93627 -13.96143,-88.73874 -1.93569,-42.82244 -5.72784,-68.5 -10.1163,-68.5 -5.01667,0 -13.61705,8.62849 -20.78196,20.84988 -4.66772,7.96186 -16.20061,31.86882 -42.28307,87.65012 -15.44024,33.02131 -20.60841,41.95168 -28.10387,48.56224 -7.51603,6.6287 -13.58508,9.28957 -21.2619,9.3219 -5.38243,0.0227 -7.40288,-0.46585 -11.24898,-2.71981 -10.59142,-6.20699 -18.67029,-22.24542 -22.66052,-44.9864 -2.74598,-15.64984 -3.90455,-33.32658 -5.05836,-77.17793 -1.00063,-38.0298 -1.39494,-43.5 -3.13564,-43.5 -1.68997,0 -6.0002,5.40781 -8.93662,11.2123 -4.59058,9.07431 -8.47451,19.38209 -18.38304,48.7877 -22.020915,65.3516 -56.937494,150.4972 -64.664814,157.68793 -6.171721,5.74316 -19.705889,8.21023 -26.076058,4.75327 z M 1236.4964,297.66763 c -33.8764,-6.37554 -62.5731,-27.99628 -75.7217,-57.05044 -5.9848,-13.2243 -8.088,-23.90035 -8.6508,-43.91181 -0.7478,-26.59067 2.8046,-43.56053 12.7621,-60.96405 14.8498,-25.9541 43.6077,-45.012687 74.8034,-49.574097 12.662,-1.85143 39.4343,-0.75926 50.0559,2.04201 34.0982,8.99286 60.6112,32.559917 71.1834,63.273827 7.6559,22.24194 7.9803,56.48319 0.7457,78.72231 -8.4501,25.97581 -26.3442,46.13353 -51.8891,58.45307 -15.4573,7.45459 -26.106,9.73051 -47.4442,10.14007 -12.9463,0.24849 -20.2025,-0.069 -25.8447,-1.13089 z m 35.8395,-51.54619 c 12.0838,-4.52112 20.4725,-14.43795 24.5671,-29.04239 2.0177,-7.19666 2.354,-10.69292 2.3929,-24.87367 0.035,-12.76484 -0.3548,-17.97143 -1.7216,-23 -6.2117,-22.85304 -21.1674,-35.1418 -41.0759,-33.75117 -18.6176,1.30046 -28.9103,10.58453 -34.8577,31.44185 -3.034,10.64044 -3.3018,38.21666 -0.469,48.30932 4.3738,15.5833 12.3316,26.03054 23.2452,30.5171 7.9161,3.25432 19.8323,3.4246 27.919,0.39896 z m 353.8111,51.59846 c -32.5825,-5.91031 -60.4899,-26.17815 -74.667,-54.22703 -14.2759,-28.24445 -14.0627,-74.54956 0.4768,-103.56165 12.2306,-24.4048 36.2805,-43.298317 65.5139,-51.467407 9.4052,-2.62823 10.8838,-2.75621 31.3704,-2.71527 20.1511,0.0403 22.1229,0.21203 31.4286,2.73761 25.3139,6.87024 49.2156,24.205527 61.1424,44.344937 10.5142,17.75412 14.674,34.3825 14.7282,58.87429 0.038,17.25361 -1.4291,27.65259 -5.6538,40.07107 -10.0188,29.45006 -33.5704,52.13238 -64.7962,62.40464 -14.7172,4.84148 -43.0718,6.52666 -59.5433,3.53881 z m 38.9175,-52.8354 c 6.5535,-3.20634 14.4441,-11.31289 17.65,-18.13314 4.1309,-8.7881 5.3518,-15.48076 5.8612,-32.12908 0.4324,-14.13148 0.2343,-17.10446 -1.6327,-24.5 -4.0212,-15.92839 -11.6192,-26.4758 -22.832,-31.69503 -4.9723,-2.31448 -7.0831,-2.68823 -15.2699,-2.7038 -12.2014,-0.0232 -18.2044,1.98817 -25.3068,8.47933 -9.2606,8.46368 -14.1526,22.16711 -15.2851,42.81673 -1.4043,25.60483 6.5761,47.83262 20.195,56.2496 6.191,3.82625 11.2806,4.93012 21.4302,4.64798 8.0572,-0.22396 10.4093,-0.69354 15.1901,-3.03259 z m 472.1668,52.81355 c -34.8561,-6.11013 -65.6047,-30.30227 -77.5227,-60.99267 -10.7495,-27.68159 -10.1682,-65.61922 1.416,-92.41342 11.3912,-26.34764 36.9984,-47.585167 67.2879,-55.805807 9.3395,-2.53478 11.2042,-2.69465 31.4286,-2.69465 20.2475,0 22.0812,0.15769 31.4765,2.7068 30.3533,8.23536 55.8115,29.359827 67.24,55.793657 9.7186,22.47892 11.8438,54.89228 5.2725,80.41342 -2.236,8.68388 -9.1007,23.89504 -13.992,31.00431 -12.6818,18.43236 -35.4915,34.06186 -58.5684,40.13181 -8.5617,2.25199 -12.4068,2.65742 -27.9286,2.94485 -12.464,0.2308 -20.4942,-0.10391 -26.1098,-1.0883 z m 38.8207,-52.80743 c 7.537,-3.68749 15.9404,-12.80091 18.7651,-20.35052 4.119,-11.00916 5.2904,-18.25237 5.3101,-32.83472 0.037,-27.47907 -7.8357,-44.72225 -24.0677,-52.71325 -6.211,-3.05767 -7.3748,-3.28575 -16.6974,-3.27236 -8.8998,0.0128 -10.72,0.33561 -16.2685,2.88543 -14.3944,6.615 -21.7249,21.30472 -23.7535,47.60018 -1.2828,16.62753 3.1252,36.85921 10.2319,46.96175 8.0081,11.38388 16.2138,15.25963 31.3024,14.7849 8.0053,-0.25186 10.438,-0.74256 15.1776,-3.06141 z m 206.024,52.87636 c -30.7652,-5.82683 -57.1279,-23.43496 -71.5616,-47.7973 -9.457,-15.96239 -13.674,-33.67328 -13.6719,-57.42138 0,-16.89387 1.4786,-28.21316 5.1307,-39.31463 10.393,-31.59231 37.2447,-55.871687 71.8942,-65.006837 10.6929,-2.81914 37.4202,-3.91734 50.1254,-2.0596 21.8373,3.19304 43.3632,13.833977 58.9601,29.145907 19.2801,18.92781 28.8833,44.3313 28.8783,76.39224 -0.01,34.03015 -9.5084,58.39798 -30.6144,78.50177 -13.3777,12.74253 -28.098,20.93351 -46.1699,25.69087 -8.2969,2.18413 -12.3186,2.60509 -27.7058,2.89999 -12.4303,0.23822 -20.248,-0.0808 -25.2651,-1.03103 z m 37.9616,-52.73857 c 10.8337,-5.0653 18.4572,-15.39285 22.3835,-30.32303 2.5872,-9.83775 2.6055,-36.16936 0.032,-45.5 -4.1895,-15.18787 -11.9307,-25.56648 -22.8201,-30.59482 -5.6201,-2.59514 -7.361,-2.90518 -16.3135,-2.90518 -9.3124,0 -10.4954,0.23307 -16.708,3.292 -16.2296,7.99096 -23.4277,26.1292 -22.5045,56.708 0.3844,12.73053 0.8546,16.2342 3.108,23.15739 4.677,14.36971 12.7117,23.79653 23.6265,27.72 7.2605,2.60987 21.9643,1.82707 29.1965,-1.55436 z m -964.0036,52.15993 c -9.7683,-1.35403 -16.2479,-3.5726 -22.7972,-7.80558 -7.3629,-4.75888 -12.7531,-11.87524 -16.2594,-21.46631 l -2.6363,-7.21107 -0.2928,-61.75 -0.2929,-61.75 -12.9571,0 -12.9572,0 0,-23.47012 0,-23.470127 12.75,-0.27987 12.75,-0.27988 0.2745,-16.20372 0.2746,-16.20372 32.0158,-23.04628 c 17.6086,-12.67545 32.2173,-23.04628 32.4638,-23.04628 0.2464,0 0.5658,17.6625 0.7097,39.25 l 0.2616,39.25 18.75,0.27206 18.75,0.27207 0,23.477937 0,23.47793 -19.0441,0 -19.044,0 0.294,49.25 c 0.3307,55.37565 0.3345,55.40654 7.226,58.28599 5.7493,2.40223 19.8292,1.38813 28.8181,-2.07563 1.6355,-0.6302 1.75,0.82976 1.75,22.30637 l 0,22.9807 -9.25,3.05332 c -16.753,5.53 -37.937,8.07017 -51.5571,6.18221 z m 469,-0.006 c -14.7227,-2.02788 -28.5938,-8.30327 -41.4429,-18.7491 l -7.75,-6.30045 0,11.53606 0,11.53606 -50.5,0 -50.5,0 0,-24 0,-24 18.0048,0 18.0049,0 -0.2549,-99.75 -0.2548,-99.749527 -17.75,-0.27307 -17.75,-0.27308 0,-23.47692 0,-23.47692998 50.5,0 50.5,0 0,56.15850998 0,56.158497 6.25,-5.96584 c 16.1593,-15.424597 30.8604,-21.351167 52.9626,-21.351167 15.1616,0 23.5708,1.85015 36.3203,7.99102 36.8121,17.730777 56.4325,63.557817 50.3946,117.705887 -4.8538,43.52941 -29.1099,75.26573 -64.4275,84.29613 -8.6306,2.20675 -23.8886,3.14395 -32.3071,1.98439 z m 4.0747,-52.97637 c 11.1522,-4.17257 19.9364,-15.04158 23.8573,-29.51941 2.9096,-10.74361 3.2041,-34.65738 0.5479,-44.48165 -5.1416,-19.01668 -15.7153,-29.70647 -31.4493,-31.79478 -12.2938,-1.63171 -22.5202,1.55751 -31.5981,9.85417 -10.4091,9.51331 -14.7465,22.32301 -14.8784,43.94061 -0.059,9.64733 0.3983,15.35499 1.6021,20 7.1055,27.4183 28.6593,40.70344 51.9185,32.00106 z m -1049.26759,26.99941 0,-24 16.5,0 16.5,0 0,-100 0,-99.999997 -16.5,0 -16.5,0 0,-23.5 0,-23.49999998 49,0 49,0 0,52.49999998 c 0,36.61769 0.32364,52.499997 1.06982,52.499997 0.58841,0 3.09198,-1.39128 5.5635,-3.09173 7.17609,-4.937277 24.36207,-12.733167 32.86337,-14.907437 9.733,-2.48928 28.8282,-2.71971 38.4002,-0.46339 18.5331,4.36863 32.6339,17.756107 38.6023,36.649457 4.4379,14.04836 4.6758,17.33013 5.1881,71.5631 l 0.4936,52.25 14.9096,0 14.9095,0 0,24 0,24 -48,0 -48,0 0,-69.8185 c 0,-77.13522 -0.027,-77.50198 -6.0475,-82.56802 -8.5955,-7.23264 -24.804,-5.5568 -42.70249,4.41515 l -7.25,4.03925 0,47.96606 0,47.96606 15,0 14.99999,0 0,24 0,24 -63.99999,0 -64,0 z m 1658.99999,0 0,-24 16.5,0 16.5,0 0,-100 0,-99.999997 -16.5,0 -16.5,0 0,-23.5 0,-23.49999998 49,0 49,0 0,92.58332998 c 0,67.784567 0.2994,92.483527 1.1178,92.210717 0.6149,-0.20494 16.3179,-12.72994 34.8958,-27.83333 l 33.7779,-27.46072 -20.8958,-0.26989 -20.8957,-0.26989 0,-19.48011 0,-19.480107 61.5,0 61.5,0 0,20.499997 0,20.5 -9.8289,0 -9.829,0 -29.921,25.54234 c -16.4566,14.04828 -29.8382,25.77312 -29.7369,26.05519 0.1013,0.28208 12.2454,14.88802 26.9868,32.45767 l 26.8026,31.9448 14.2632,0 14.2632,0 0,24 0,24 -31.391,0 -31.391,0 -44.7035,-53.49941 c -24.587,-29.42467 -45.1175,-53.75522 -45.6234,-54.06788 -0.5544,-0.34263 -0.8148,11.87354 -0.6554,30.74941 l 0.2643,31.31788 12.25,0.28078 12.25,0.28078 0,22.46922 0,22.46922 -61.5,0 -61.5,0 z"
     id="path3138"
     style="fill:#79ae1c" />
</svg>
